<?xml version="1.0" encoding="utf-8"?>
<!-- Generator: Adobe Illustrator 21.0.2, SVG Export Plug-In . SVG Version: 6.00 Build 0)  -->
<svg version="1.1" id="_x35_92e89c4-40a5-4934-b8e7-a570c6ad1fc2"
	 xmlns="http://www.w3.org/2000/svg" xmlns:xlink="http://www.w3.org/1999/xlink" x="0px" y="0px" viewBox="0 0 198.1 198.1"
	 style="enable-background:new 0 0 198.1 198.1;" xml:space="preserve">
<style type="text/css">
	.st0{fill:#0000FF;}
</style>
<g>
	<path class="st0" d="M82.3,68.9c-0.6,0.4-0.9,1-0.9,1.7c0,0.6,0.2,1.2,0.7,1.6c0.4,0.4,1.1,0.6,2,0.6c1.1,0,2.1-0.4,2.8-1.1
		c0.8-0.8,1.2-1.8,1.2-3V68l-3.6,0.2C83.5,68.3,82.9,68.5,82.3,68.9z"/>
	<path class="st0" d="M97.8,103.8c0.8,0,1.6-0.3,2.2-0.8c1-0.9,1.5-2.3,1.5-4.2c0-1.9-0.5-3.3-1.5-4.2c-0.6-0.6-1.4-0.8-2.2-0.8
		c-0.9,0-1.7,0.3-2.4,1c-0.9,0.9-1.4,2.3-1.4,4c0,1.8,0.5,3.1,1.4,4.1C96,103.5,96.8,103.8,97.8,103.8z"/>
	<path class="st0" d="M102.3,136.8c-0.2-0.1-0.5-0.3-0.7-0.4c-0.2-0.1-0.5-0.2-0.9-0.2c-0.4,0-0.7,0-0.8-0.1c-0.2,0-0.5,0-0.9,0
		c-0.1,0-0.2,0-0.3,0h-2.5c-0.5,0.2-0.9,0.4-1.2,0.8c-0.3,0.4-0.5,0.8-0.5,1.3c0,0.6,0.2,1,0.5,1.4c0.6,0.6,1.8,0.9,3.6,0.9
		c1.8,0,3-0.3,3.6-0.9c0.4-0.4,0.6-0.8,0.6-1.4c0-0.3-0.1-0.6-0.2-0.9C102.7,137.2,102.5,137,102.3,136.8z"/>
	<path class="st0" d="M98.4,130.5c0.9,0,1.6-0.3,2.2-0.8c0.6-0.6,0.9-1.3,0.9-2.1c0-0.8-0.3-1.5-0.8-2.1s-1.3-0.8-2.2-0.8
		c-0.9,0-1.7,0.3-2.2,0.8s-0.8,1.2-0.8,2.1c0,0.8,0.3,1.5,0.9,2.1C96.8,130.2,97.5,130.5,98.4,130.5z"/>
	<path class="st0" d="M64.6,99.9c-0.6,0.4-0.9,1-0.9,1.7c0,0.6,0.2,1.2,0.6,1.6c0.4,0.4,1.1,0.6,2,0.6c1.1,0,2.1-0.4,2.8-1.1
		c0.8-0.8,1.2-1.8,1.2-3V99l-3.6,0.2C65.9,99.3,65.2,99.5,64.6,99.9z"/>
	<path class="st0" d="M113.3,124.8c-1.1,0-2,0.4-2.7,1.3c-0.7,0.8-1,1.7-1.1,2.6h7.4c0-1.1-0.4-2.1-1.1-2.8
		C115.1,125.1,114.3,124.8,113.3,124.8z"/>
	<path class="st0" d="M68,124.8c-0.8,0-1.6,0.3-2.2,0.9c-1,0.9-1.5,2.3-1.5,4.2c0,1.9,0.5,3.3,1.5,4.1c0.6,0.6,1.4,0.8,2.2,0.8
		c1,0,1.8-0.3,2.4-1c0.9-0.9,1.4-2.3,1.4-4c0-1.8-0.5-3.1-1.4-4C69.9,125.1,69,124.8,68,124.8z"/>
	<path class="st0" d="M80.3,130.9c-0.6,0.4-0.9,1-0.9,1.7c0,0.6,0.2,1.2,0.7,1.6c0.4,0.4,1.1,0.6,2,0.6c1.1,0,2.1-0.4,2.8-1.1
		c0.8-0.8,1.2-1.8,1.2-3V130l-3.6,0.2C81.5,130.3,80.8,130.5,80.3,130.9z"/>
	<path class="st0" d="M142.2,63.4l1.5-1c0.9-0.6,1.4-1.4,1.4-2.4c0-0.7-0.2-1.3-0.7-1.8c-0.5-0.5-1.1-0.7-1.8-0.7
		c-0.6,0-1.2,0.2-1.7,0.7c-0.5,0.5-0.7,1-0.7,1.6c0,0.8,0.3,1.6,0.9,2.3L142.2,63.4z"/>
	<path class="st0" d="M147,105.8c-0.2-0.1-0.5-0.3-0.6-0.4c-0.2-0.1-0.5-0.2-0.9-0.2c-0.4,0-0.7,0-0.8-0.1c-0.2,0-0.5,0-0.9,0
		c-0.1,0-0.2,0-0.3,0h-2.5c-0.5,0.2-0.9,0.4-1.2,0.8c-0.3,0.4-0.5,0.8-0.5,1.3c0,0.6,0.2,1,0.5,1.4c0.6,0.6,1.8,0.9,3.6,0.9
		c1.8,0,3-0.3,3.6-0.9c0.4-0.4,0.6-0.8,0.6-1.4c0-0.3-0.1-0.6-0.2-0.9C147.4,106.2,147.2,106,147,105.8z"/>
	<path class="st0" d="M143,99.5c0.9,0,1.6-0.3,2.2-0.8c0.6-0.6,0.9-1.3,0.9-2.1c0-0.8-0.3-1.5-0.8-2.1c-0.6-0.5-1.3-0.8-2.2-0.8
		s-1.7,0.3-2.2,0.8c-0.6,0.5-0.8,1.2-0.8,2.1c0,0.8,0.3,1.5,0.9,2.1C141.4,99.2,142.2,99.5,143,99.5z"/>
	<path class="st0" d="M141.2,66.2c-0.2,0.2-0.4,0.3-0.5,0.4c-0.5,0.3-0.9,0.7-1.2,1.3c-0.3,0.6-0.5,1.1-0.5,1.7c0,1,0.4,1.8,1.1,2.4
		c0.6,0.5,1.3,0.7,2.1,0.7c1.8,0,3.1-0.6,4-1.7l-4.6-5.1C141.5,65.9,141.4,66,141.2,66.2z"/>
	<path class="st0" d="M0,0v198.1h198.1V0H0z M122.7,92.2h2l0.2,2c0.4-0.7,1-1.3,1.7-1.7c0.8-0.4,1.6-0.6,2.4-0.6
		c1.5,0,2.6,0.4,3.5,1.3c0.8,0.8,1.2,2,1.2,3.6v8.7h-2.3V97c0-2.1-1-3.1-2.9-3.1c-0.6,0-1.2,0.2-1.7,0.6c-0.5,0.4-0.9,0.9-1.2,1.5
		c-0.4,0.8-0.6,2-0.6,3.4v6h-2.2V92.2z M107.4,103.5h4.8v-9.4H108v-1.9h6.5v11.3h4.8v1.9h-11.8V103.5z M111.6,89.7v-3.1h3.1v3.1
		H111.6z M98.9,55.6h3.1v3.1h-3.1V55.6z M77.4,92.2h1.9l0.2,2c0.4-0.7,1-1.3,1.7-1.7s1.6-0.6,2.4-0.6c1.5,0,2.6,0.4,3.5,1.3
		s1.2,2,1.2,3.6v8.7h-2.3V97c0-2.1-1-3.1-2.9-3.1c-0.6,0-1.2,0.2-1.7,0.6c-0.5,0.4-0.9,0.9-1.2,1.5c-0.4,0.8-0.6,2-0.6,3.4v6h-2.2
		V92.2z M46.1,55.9h12.2v2.1h-9.9v5.6h7.5v2.2h-7.5v6.4h9.9v2.1H46.1V55.9z M58.8,105.4H47.3v-1.9H52V88.4h-4.2v-1.8h6.5v16.9h4.6
		V105.4z M69.6,94.4c-0.5-0.5-1.3-0.8-2.2-0.8c-1.1,0-1.9,0.3-2.4,0.8c-0.4,0.4-0.6,0.9-0.7,1.5h-2.2c0-1,0.4-1.9,1.2-2.7
		c1-1,2.3-1.5,4.1-1.5c1.2,0,2.2,0.2,3,0.7c0.8,0.5,1.3,1.1,1.7,1.9c0.3,0.6,0.4,1.3,0.4,1.9v6.4c0,0.6,0.3,0.9,0.8,0.9l0.6-0.1v1.6
		c-0.4,0.2-0.9,0.3-1.5,0.3c-0.6,0-1-0.2-1.4-0.6c-0.4-0.4-0.5-0.9-0.5-1.4h-0.1c-0.4,0.7-1,1.2-1.8,1.6c-0.8,0.4-1.7,0.6-2.6,0.6
		c-1.5,0-2.6-0.4-3.4-1.2c-0.8-0.8-1.2-1.7-1.2-2.7c0-1.1,0.4-2.1,1.2-2.9c0.8-0.8,2-1.3,3.5-1.4l4.1-0.2v-1
		C70.3,95.5,70.1,94.9,69.6,94.4z M72.1,135.3c-1,1-2.3,1.4-3.7,1.4c-0.8,0-1.6-0.2-2.3-0.5c-0.7-0.3-1.3-0.8-1.6-1.4v6.9h-2.2
		v-18.5h2l0.2,1.7c0.4-0.6,0.9-1.1,1.7-1.5c0.8-0.4,1.5-0.5,2.3-0.5c1.5,0,2.8,0.5,3.8,1.6c1.3,1.3,1.9,3.1,1.9,5.3
		C74.1,132.2,73.5,134,72.1,135.3z M75.6,74.4h-2.2V65c0-1.5-0.5-2.2-1.6-2.2c-0.4,0-0.8,0.2-1.2,0.6c-0.5,0.5-0.8,1.6-0.8,3.2v7.8
		h-2.1v-9.2c0-1.6-0.6-2.4-1.7-2.4c-1.4,0-2.1,1.2-2.1,3.5v8h-2.2V61.2h1.8l0.2,1.3c0.2-0.5,0.6-0.9,1.1-1.2
		c0.5-0.3,1.1-0.5,1.8-0.5c0.6,0,1.2,0.2,1.6,0.5c0.5,0.4,0.8,0.8,0.9,1.2c0.7-1.2,1.7-1.7,3.1-1.7c1.1,0,1.9,0.3,2.4,1
		s0.8,1.5,0.8,2.5V74.4z M89.5,136.2c-0.4,0.2-0.9,0.3-1.5,0.3c-0.6,0-1-0.2-1.4-0.6c-0.4-0.4-0.5-0.9-0.5-1.4H86
		c-0.4,0.7-1,1.2-1.8,1.6s-1.7,0.6-2.6,0.6c-1.5,0-2.6-0.4-3.4-1.2c-0.8-0.8-1.2-1.7-1.2-2.7c0-1.1,0.4-2.1,1.2-2.9
		c0.8-0.8,2-1.3,3.5-1.4l4.1-0.2v-1c0-0.8-0.2-1.5-0.7-1.9c-0.5-0.5-1.3-0.8-2.2-0.8c-1.1,0-1.9,0.3-2.4,0.8
		c-0.4,0.4-0.7,0.9-0.7,1.5h-2.2c0-1,0.4-1.9,1.2-2.7c1-1,2.3-1.5,4.1-1.5c1.2,0,2.2,0.2,3,0.7c0.8,0.5,1.3,1.1,1.7,1.9
		c0.3,0.6,0.4,1.3,0.4,1.9v6.4c0,0.6,0.3,0.9,0.8,0.9l0.6-0.1V136.2z M91.5,74.2c-0.4,0.2-0.9,0.3-1.5,0.3c-0.6,0-1-0.2-1.4-0.6
		c-0.4-0.4-0.5-0.9-0.5-1.4h-0.1c-0.4,0.7-1,1.2-1.8,1.6s-1.7,0.6-2.6,0.6c-1.5,0-2.6-0.4-3.4-1.2c-0.8-0.8-1.2-1.7-1.2-2.7
		c0-1.1,0.4-2.1,1.2-2.9c0.8-0.8,2-1.3,3.5-1.4l4.1-0.2v-1c0-0.8-0.2-1.5-0.7-1.9c-0.5-0.5-1.3-0.8-2.2-0.8c-1.1,0-1.9,0.3-2.4,0.8
		C82.3,63.9,82,64.4,82,65h-2.2c0-1,0.4-1.9,1.2-2.7c1-1,2.3-1.5,4.1-1.5c1.2,0,2.2,0.2,3,0.7c0.8,0.5,1.3,1.1,1.7,1.9
		c0.3,0.6,0.4,1.3,0.4,1.9v6.4c0,0.6,0.3,0.9,0.8,0.9l0.6-0.1V74.2z M93.8,93.4c1.1-1,2.3-1.5,3.7-1.5c0.8,0,1.6,0.2,2.3,0.5
		c0.7,0.3,1.2,0.8,1.6,1.4v-7.2h2.2v18.8h-2l-0.2-1.7c-0.4,0.6-0.9,1.1-1.7,1.5c-0.8,0.4-1.5,0.5-2.3,0.5c-1.6,0-2.8-0.5-3.8-1.5
		c-1.3-1.3-1.9-3.1-1.9-5.4C91.7,96.5,92.4,94.7,93.8,93.4z M104,140.9c-1.1,1-2.9,1.6-5.4,1.6c-2.4,0-4.1-0.5-5.1-1.5
		c-0.7-0.7-1-1.4-1-2.3c0-0.7,0.2-1.2,0.5-1.8c0.3-0.5,0.8-0.9,1.4-1.2c-0.5-0.2-0.8-0.5-1.1-0.9c-0.3-0.4-0.4-0.8-0.4-1.4
		c0-1.1,0.6-2,1.8-2.5c-1-0.8-1.5-2-1.5-3.4c0-1.2,0.4-2.3,1.3-3.2c1-1,2.3-1.5,4-1.5c1.2,0,2.2,0.3,3.1,0.8c0.2-0.6,0.6-1,1.1-1.4
		c0.5-0.3,1-0.5,1.7-0.5c0.2,0,0.4,0,0.7,0.1v1.8c-0.1,0-0.3,0-0.5,0c-0.4,0-0.8,0.1-1.1,0.3c-0.3,0.2-0.5,0.5-0.6,0.9
		c0.6,0.8,0.9,1.7,0.9,2.7c0,1.2-0.4,2.2-1.2,3.1c-1,1.1-2.3,1.6-4,1.6c-0.7,0-1.5-0.1-2.3-0.4c-0.3,0.1-0.5,0.2-0.8,0.5
		c-0.2,0.2-0.4,0.5-0.4,0.8c0,0.5,0.1,0.8,0.5,1c0.4,0.2,0.9,0.3,1.4,0.3h2.9c2,0,3.4,0.5,4.3,1.4c0.7,0.7,1,1.5,1,2.6
		C105.1,139.3,104.7,140.2,104,140.9z M106.5,74.4H94.7v-1.9h4.8v-9.4h-4.2v-1.9h6.5v11.3h4.8V74.4z M119.3,130.5h-9.8
		c0,1.4,0.4,2.5,1.3,3.3c0.7,0.7,1.5,1,2.5,1c1,0,1.8-0.3,2.4-0.8c0.5-0.4,0.9-0.9,1.1-1.6h2.1c-0.3,1.3-1,2.4-2,3.1
		s-2.2,1.1-3.6,1.1c-1.6,0-3-0.6-4.2-1.7c-1.3-1.3-2-3-2-5.1c0-2.2,0.7-3.9,2-5.3c1.1-1.1,2.5-1.7,4.2-1.7c1.7,0,3,0.5,4.1,1.6
		c1.3,1.3,1.9,3.1,1.9,5.3V130.5z M121.1,74.4h-11.5v-1.9h4.6V57.4H110v-1.8h6.5v16.9h4.6V74.4z M132.8,135.2c-1,1-2.5,1.5-4.5,1.5
		c-2,0-3.5-0.5-4.5-1.5c-0.9-0.8-1.3-1.8-1.3-3h2.2c0,0.8,0.4,1.5,1.1,2c0.6,0.4,1.4,0.7,2.5,0.7c1.1,0,2-0.3,2.6-0.8
		c0.4-0.3,0.6-0.8,0.6-1.4c0-1-0.6-1.6-2-1.8l-3.4-0.5c-1-0.2-1.8-0.6-2.4-1.2c-0.5-0.6-0.8-1.4-0.8-2.3c0-1,0.4-1.8,1.1-2.5
		c1-1,2.3-1.5,4-1.5c2,0,3.4,0.6,4.3,1.8c0.6,0.7,0.9,1.5,0.9,2.5h-2.2c0-0.6-0.3-1.2-0.8-1.6c-0.6-0.5-1.3-0.8-2.3-0.8
		c-0.9,0-1.7,0.2-2.2,0.7c-0.5,0.4-0.7,0.9-0.7,1.4c0,0.9,0.6,1.4,1.7,1.6l3.6,0.5c0.9,0.1,1.7,0.5,2.3,1.1c0.7,0.6,1,1.4,1,2.5
		C133.8,133.6,133.5,134.4,132.8,135.2z M148.7,109.9c-1.1,1-2.9,1.6-5.4,1.6c-2.4,0-4.1-0.5-5.1-1.5c-0.7-0.7-1-1.4-1-2.3
		c0-0.7,0.2-1.2,0.5-1.8c0.3-0.5,0.8-0.9,1.4-1.2c-0.5-0.2-0.8-0.5-1.1-0.9s-0.4-0.8-0.4-1.4c0-1.1,0.6-2,1.8-2.5
		c-1-0.8-1.5-2-1.5-3.4c0-1.2,0.4-2.3,1.3-3.2c1-1,2.3-1.5,4-1.5c1.2,0,2.2,0.3,3.1,0.8c0.2-0.6,0.6-1,1.1-1.4
		c0.5-0.3,1-0.5,1.7-0.5c0.2,0,0.4,0,0.7,0.1v1.8c-0.1,0-0.3,0-0.5,0c-0.4,0-0.8,0.1-1.1,0.3c-0.3,0.2-0.5,0.5-0.6,0.9
		c0.6,0.8,0.9,1.7,0.9,2.7c0,1.2-0.4,2.2-1.2,3.1c-1,1.1-2.3,1.6-4,1.6c-0.7,0-1.5-0.1-2.3-0.4c-0.3,0.1-0.5,0.2-0.8,0.5
		c-0.2,0.2-0.4,0.5-0.4,0.8c0,0.5,0.1,0.8,0.5,1c0.4,0.2,0.9,0.3,1.4,0.3h2.9c2,0,3.4,0.5,4.3,1.4c0.7,0.7,1,1.5,1,2.6
		C149.8,108.3,149.4,109.2,148.7,109.9z M149.3,74.4l-1.6-1.8c-0.6,0.7-1.4,1.2-2.3,1.6c-1,0.4-2,0.6-2.9,0.6
		c-1.6,0-2.9-0.4-3.9-1.3c-1.1-1-1.7-2.2-1.7-3.8c0-0.8,0.3-1.7,0.8-2.5c0.5-0.9,1.1-1.5,1.9-2c0.1-0.1,0.2-0.1,0.4-0.3
		c0.2-0.1,0.3-0.2,0.4-0.3l-0.9-1.1c-0.9-1.1-1.4-2.2-1.4-3.4c0-1.1,0.4-2.1,1.3-3s1.9-1.3,3.3-1.3c1.4,0,2.5,0.4,3.4,1.2
		c0.8,0.8,1.2,1.9,1.2,3.2c0,1.6-0.8,3-2.3,4c-0.6,0.4-1,0.7-1.3,0.9l3.8,4.3c0.1-0.2,0.2-0.3,0.2-0.6c0.1-0.2,0.1-0.4,0.2-0.6
		c0-0.2,0.1-0.4,0.1-0.7c0-0.3,0.1-0.5,0.1-0.7c0-0.2,0-0.4,0-0.8c0-0.4,0-0.6,0-0.7s0-0.3,0-0.7c0-0.4,0-0.6,0-0.6h3.7v1.9h-1.6
		c0,0.9-0.1,1.9-0.3,2.8c-0.2,1-0.5,1.7-0.9,2.3l3.1,3.5H149.3z"/>
</g>
</svg>
