<?xml version="1.0" encoding="utf-8"?>
<!-- Generator: Adobe Illustrator 21.0.2, SVG Export Plug-In . SVG Version: 6.00 Build 0)  -->
<svg version="1.1" id="_x35_92e89c4-40a5-4934-b8e7-a570c6ad1fc2"
	 xmlns="http://www.w3.org/2000/svg" xmlns:xlink="http://www.w3.org/1999/xlink" x="0px" y="0px" viewBox="0 0 198.1 198.1"
	 style="enable-background:new 0 0 198.1 198.1;" xml:space="preserve">
<style type="text/css">
	.st0{fill:#0000FF;}
</style>
<g>
	<path class="st0" d="M86.1,125.3c-1.1,0-2.1,0.4-2.7,1.3c-0.7,0.8-1,1.7-1.1,2.6h7.4c0-1.1-0.4-2.1-1.1-2.8
		C87.9,125.7,87.1,125.3,86.1,125.3z"/>
	<path class="st0" d="M76.1,93.3c-0.8,0-1.6,0.3-2.2,0.9c-1,0.9-1.5,2.3-1.5,4.2c0,1.9,0.5,3.3,1.5,4.1c0.6,0.6,1.4,0.8,2.2,0.8
		c1,0,1.8-0.3,2.4-1c0.9-0.9,1.4-2.3,1.4-4c0-1.8-0.5-3.1-1.4-4C77.9,93.7,77,93.3,76.1,93.3z"/>
	<path class="st0" d="M69.6,125.3c-0.9,0-1.7,0.3-2.4,1c-0.9,0.9-1.4,2.3-1.4,4c0,1.8,0.5,3.1,1.4,4.1c0.6,0.6,1.4,0.9,2.4,0.9
		c0.8,0,1.6-0.3,2.2-0.8c1-0.9,1.5-2.3,1.5-4.2c0-1.9-0.5-3.3-1.5-4.2C71.2,125.6,70.5,125.3,69.6,125.3z"/>
	<path class="st0" d="M54,125.3c-0.9,0-1.8,0.3-2.4,0.9c-1,0.9-1.5,2.2-1.5,4c0,1.8,0.5,3.2,1.5,4.1c0.7,0.6,1.5,0.9,2.4,0.9
		s1.8-0.3,2.4-0.9c1-0.9,1.5-2.3,1.5-4.1s-0.5-3.2-1.5-4.1C55.8,125.6,54.9,125.3,54,125.3z"/>
	<path class="st0" d="M88.7,99.4c-0.6,0.4-0.9,1-0.9,1.7c0,0.6,0.2,1.2,0.6,1.6s1.1,0.6,2,0.6c1.1,0,2.1-0.4,2.8-1.1
		c0.8-0.8,1.2-1.8,1.2-3v-0.8l-3.6,0.2C89.9,98.8,89.2,99,88.7,99.4z"/>
	<path class="st0" d="M117.8,65.4c-0.7-0.7-1.5-1.1-2.5-1.1c-1.1,0-2,0.4-2.7,1.3c-0.7,0.8-1,1.7-1.1,2.6h7.4
		C118.9,67.1,118.5,66.1,117.8,65.4z"/>
	<path class="st0" d="M0,0v198.1h198.1V0H0z M132.1,70.4l-3.4-0.5c-1-0.2-1.8-0.6-2.4-1.2c-0.5-0.6-0.8-1.4-0.8-2.3
		c0-1,0.4-1.8,1.1-2.5c1-1,2.3-1.5,4-1.5c2,0,3.4,0.6,4.3,1.8c0.6,0.7,0.9,1.5,0.9,2.5h-2.2c0-0.6-0.3-1.2-0.8-1.6
		c-0.6-0.5-1.3-0.8-2.3-0.8c-0.9,0-1.7,0.2-2.2,0.7c-0.5,0.4-0.7,0.9-0.7,1.4c0,0.9,0.6,1.4,1.7,1.6l3.6,0.5
		c0.9,0.1,1.7,0.5,2.3,1.1c0.7,0.6,1,1.4,1,2.5c0,1-0.3,1.9-1,2.6c-1,1-2.5,1.5-4.5,1.5c-2,0-3.5-0.5-4.5-1.5
		c-0.9-0.8-1.3-1.8-1.3-3h2.2c0,0.8,0.4,1.5,1.1,2c0.6,0.4,1.4,0.7,2.5,0.7c1.1,0,2-0.3,2.6-0.8c0.4-0.3,0.6-0.8,0.6-1.4
		C134.1,71.2,133.4,70.6,132.1,70.4z M132.5,118.1v3.1h-3.1v-3.1H132.5z M111.1,64.1c1.1-1.1,2.5-1.7,4.2-1.7c1.7,0,3,0.5,4.1,1.6
		c1.3,1.3,1.9,3.1,1.9,5.3V70h-9.8c0,1.4,0.4,2.5,1.3,3.3c0.7,0.7,1.5,1,2.5,1c1,0,1.8-0.3,2.4-0.8c0.5-0.4,0.9-0.9,1.1-1.6h2.1
		c-0.3,1.3-1,2.4-2,3.1s-2.2,1.1-3.6,1.1c-1.6,0-3-0.6-4.2-1.7c-1.3-1.3-2-3-2-5.1C109.1,67.2,109.8,65.4,111.1,64.1z M95.7,64
		c1.1-1.1,2.5-1.6,4.1-1.6c1.6,0,2.9,0.5,3.9,1.4c1,1,1.6,2.1,1.6,3.4h-2.2c-0.1-0.7-0.4-1.4-1-2c-0.6-0.6-1.3-0.8-2.2-0.8
		c-0.9,0-1.8,0.3-2.4,0.9c-1,0.9-1.4,2.2-1.4,4.1c0,1.8,0.5,3.2,1.4,4c0.7,0.6,1.5,1,2.4,1c0.9,0,1.6-0.3,2.2-0.8
		c0.6-0.6,1-1.3,1.1-2h2.2c-0.1,1.3-0.6,2.4-1.7,3.4c-1,0.9-2.3,1.4-3.8,1.4c-1.6,0-3-0.5-4.1-1.6c-1.4-1.3-2-3.1-2-5.3
		S94.3,65.4,95.7,64z M80.1,64c1.1-1.1,2.5-1.6,4.1-1.6c1.6,0,2.9,0.5,3.9,1.4c1,1,1.6,2.1,1.6,3.4h-2.2c-0.1-0.7-0.4-1.4-1-2
		c-0.6-0.6-1.3-0.8-2.2-0.8c-0.9,0-1.8,0.3-2.4,0.9c-1,0.9-1.4,2.2-1.4,4.1c0,1.8,0.5,3.2,1.4,4c0.7,0.6,1.5,1,2.4,1
		c0.9,0,1.6-0.3,2.2-0.8c0.6-0.6,1-1.3,1.1-2h2.2c-0.1,1.3-0.6,2.4-1.7,3.4c-1,0.9-2.3,1.4-3.8,1.4c-1.6,0-3-0.5-4.1-1.6
		c-1.4-1.3-2-3.1-2-5.3S78.7,65.4,80.1,64z M44.2,136.9H42v-9.3c0-1.5-0.5-2.2-1.6-2.2c-0.4,0-0.8,0.2-1.2,0.6
		c-0.5,0.5-0.8,1.6-0.8,3.2v7.8h-2.1v-9.2c0-1.6-0.6-2.4-1.7-2.4c-1.4,0-2.1,1.2-2.1,3.5v8h-2.2v-13.2h1.8l0.2,1.3
		c0.2-0.5,0.6-0.9,1.1-1.2c0.5-0.3,1.1-0.5,1.8-0.5c0.6,0,1.2,0.2,1.6,0.5c0.5,0.4,0.8,0.8,0.9,1.2c0.7-1.2,1.7-1.7,3.1-1.7
		c1.1,0,1.9,0.3,2.4,1s0.8,1.5,0.8,2.5V136.9z M45.3,70.1h2.4c0,1.1,0.4,2.1,1.3,2.9c0.8,0.7,1.9,1.1,3.5,1.1c1.5,0,2.6-0.4,3.4-1.1
		c0.6-0.6,0.9-1.3,0.9-2.2c0-0.8-0.2-1.4-0.7-1.9c-0.5-0.5-1.3-0.9-2.3-1l-2.8-0.4c-1.5-0.2-2.7-0.7-3.5-1.6
		C46.5,65.1,46,64,46,62.6c0-1.4,0.5-2.7,1.6-3.6c1.3-1.2,2.9-1.8,4.8-1.8c2,0,3.5,0.6,4.7,1.7c1.1,1.1,1.7,2.4,1.7,4h-2.4
		c-0.1-0.9-0.3-1.6-0.9-2.3c-0.8-0.9-1.8-1.3-3.2-1.3c-1.4,0-2.4,0.4-3.2,1.3c-0.5,0.6-0.7,1.2-0.7,2c0,0.8,0.3,1.4,0.8,1.8
		c0.5,0.4,1.2,0.7,1.9,0.8c0.4,0.1,1,0.1,1.7,0.3s1.2,0.2,1.3,0.2c1.6,0.2,2.8,0.8,3.7,1.7s1.4,2.1,1.4,3.5c0,1.4-0.5,2.6-1.5,3.6
		c-1.2,1.2-3,1.8-5.2,1.8c-2.2,0-4-0.6-5.2-1.7C45.9,73.3,45.3,71.8,45.3,70.1z M58.1,135.7c-1.1,1.1-2.5,1.6-4.1,1.6
		c-1.7,0-3.1-0.5-4.2-1.6c-1.4-1.4-2.1-3.1-2.1-5.3s0.7-4,2.1-5.3c1.1-1.1,2.5-1.6,4.2-1.6c1.6,0,3,0.5,4.1,1.6
		c1.4,1.4,2.1,3.1,2.1,5.3C60.2,132.5,59.5,134.3,58.1,135.7z M63.2,62.7h2.2v8.3c0,2.1,1,3.1,2.9,3.1c0.9,0,1.7-0.4,2.4-1.1
		c0.7-0.7,1-1.7,1-2.7v-7.6H74v13.2h-2l-0.2-2c-0.3,0.7-0.9,1.3-1.7,1.7c-0.8,0.4-1.6,0.6-2.4,0.6c-1.4,0-2.5-0.4-3.4-1.3
		c-0.8-0.9-1.3-2.1-1.3-3.5V62.7z M75.4,136.9h-1.9l-0.2-1.7c-0.4,0.6-0.9,1.1-1.7,1.5c-0.8,0.4-1.5,0.5-2.3,0.5
		c-1.6,0-2.8-0.5-3.8-1.5c-1.3-1.3-1.9-3.1-1.9-5.4c0-2.3,0.7-4.2,2-5.5c1.1-1,2.3-1.5,3.7-1.5c0.8,0,1.6,0.2,2.3,0.5
		c0.7,0.3,1.2,0.8,1.6,1.4v-7.2h2.2V136.9z M74.1,104.7c-0.7-0.3-1.3-0.8-1.6-1.4v6.9h-2.2V91.7h2l0.2,1.7c0.4-0.6,0.9-1.1,1.7-1.5
		c0.8-0.4,1.5-0.5,2.3-0.5c1.5,0,2.8,0.5,3.8,1.6c1.3,1.3,1.9,3.1,1.9,5.3c0,2.4-0.7,4.2-2,5.5c-1,1-2.3,1.4-3.7,1.4
		C75.6,105.3,74.8,105.1,74.1,104.7z M92,131h-9.8c0,1.4,0.4,2.5,1.3,3.3c0.7,0.7,1.5,1,2.5,1c1,0,1.8-0.3,2.4-0.8
		c0.5-0.4,0.9-0.9,1.1-1.6h2.1c-0.3,1.3-1,2.4-2,3.1c-1,0.8-2.2,1.1-3.6,1.1c-1.6,0-3-0.6-4.2-1.7c-1.3-1.3-2-3-2-5.1
		c0-2.2,0.7-3.9,2-5.3c1.1-1.1,2.5-1.7,4.2-1.7c1.7,0,3,0.5,4.1,1.6c1.3,1.3,1.9,3.1,1.9,5.3V131z M94.5,103.1L94.5,103.1
		c-0.4,0.7-1,1.2-1.8,1.6c-0.8,0.4-1.7,0.6-2.6,0.6c-1.5,0-2.6-0.4-3.4-1.2c-0.8-0.8-1.2-1.7-1.2-2.7c0-1.1,0.4-2.1,1.2-2.9
		s2-1.3,3.5-1.4l4.1-0.2v-1c0-0.8-0.2-1.5-0.7-1.9c-0.5-0.5-1.3-0.8-2.2-0.8c-1.1,0-1.9,0.3-2.4,0.8c-0.4,0.4-0.6,0.9-0.7,1.5h-2.2
		c0-1,0.4-1.9,1.2-2.7c1-1,2.3-1.5,4.1-1.5c1.2,0,2.2,0.2,3,0.7c0.8,0.5,1.3,1.1,1.7,1.9c0.3,0.6,0.4,1.3,0.4,1.9v6.4
		c0,0.6,0.3,0.9,0.8,0.9l0.6-0.1v1.6c-0.4,0.2-0.9,0.3-1.5,0.3c-0.6,0-1-0.2-1.4-0.6C94.7,104.1,94.5,103.7,94.5,103.1z
		 M106.8,136.9H95.3V135h4.6V120h-4.2v-1.8h6.5V135h4.6V136.9z M105.5,104c-0.7-0.8-1.1-1.8-1.1-3v-7.4h-4.1v-1.9h4.1v-3.4l2.2-0.7
		v4.1h5.5v1.9h-5.5v7.2c0,0.7,0.2,1.3,0.6,1.7c0.4,0.4,1,0.6,1.7,0.6c0.9,0,2-0.3,3.3-0.9v1.9c-1.1,0.6-2.3,0.9-3.6,0.9
		C107.3,105.2,106.2,104.8,105.5,104z M121.5,136.9H110V135h4.6V120h-4.2v-1.8h6.5V135h4.6V136.9z M121.2,94
		c-0.5,0.4-0.9,0.9-1.2,1.5c-0.3,0.8-0.5,1.9-0.5,3.4v6.1h-2.2V86.1h2.2v7.4c0.4-0.6,0.9-1.1,1.7-1.5c0.8-0.4,1.5-0.6,2.3-0.6
		c1.5,0,2.6,0.4,3.5,1.3s1.2,2,1.2,3.6v8.7h-2.2v-8.3c0-2.1-1-3.1-3-3.1C122.3,93.4,121.7,93.6,121.2,94z M136.9,136.9h-11.8V135
		h4.8v-9.4h-4.2v-1.9h6.5V135h4.8V136.9z M147.2,70.4l-3.4-0.5c-1-0.2-1.8-0.6-2.4-1.2c-0.5-0.6-0.8-1.4-0.8-2.3
		c0-1,0.4-1.8,1.1-2.5c1-1,2.3-1.5,4-1.5c2,0,3.4,0.6,4.3,1.8c0.6,0.7,0.9,1.5,0.9,2.5h-2.2c0-0.6-0.3-1.2-0.8-1.6
		c-0.6-0.5-1.3-0.8-2.3-0.8c-0.9,0-1.7,0.2-2.2,0.7c-0.5,0.4-0.7,0.9-0.7,1.4c0,0.9,0.6,1.4,1.7,1.6l3.6,0.5
		c0.9,0.1,1.7,0.5,2.3,1.1c0.7,0.6,1,1.4,1,2.5c0,1-0.3,1.9-1,2.6c-1,1-2.5,1.5-4.5,1.5c-2,0-3.5-0.5-4.5-1.5
		c-0.9-0.8-1.3-1.8-1.3-3h2.2c0,0.8,0.4,1.5,1.1,2c0.6,0.4,1.4,0.7,2.5,0.7c1.1,0,2-0.3,2.6-0.8c0.4-0.3,0.6-0.8,0.6-1.4
		C149.2,71.2,148.5,70.6,147.2,70.4z M151.4,136.9h-2.3v-8.3c0-2.1-1-3.1-2.9-3.1c-0.6,0-1.2,0.2-1.7,0.6c-0.5,0.4-0.9,0.9-1.2,1.5
		c-0.4,0.8-0.6,2-0.6,3.4v6h-2.2v-13.2h2l0.2,2c0.4-0.7,1-1.3,1.7-1.7c0.8-0.4,1.6-0.6,2.4-0.6c1.5,0,2.6,0.4,3.5,1.3
		c0.8,0.8,1.2,2,1.2,3.6V136.9z M166.6,141.5c-1.1,1-2.9,1.6-5.4,1.6c-2.4,0-4.1-0.5-5.1-1.5c-0.7-0.7-1-1.4-1-2.3
		c0-0.7,0.2-1.2,0.5-1.8c0.3-0.5,0.8-0.9,1.4-1.2c-0.5-0.2-0.8-0.5-1.1-0.9c-0.3-0.4-0.4-0.8-0.4-1.4c0-1.1,0.6-2,1.8-2.5
		c-1-0.8-1.5-2-1.5-3.4c0-1.2,0.4-2.3,1.3-3.2c1-1,2.3-1.5,4-1.5c1.2,0,2.2,0.3,3.1,0.8c0.2-0.6,0.6-1,1.1-1.4
		c0.5-0.3,1-0.5,1.7-0.5c0.2,0,0.4,0,0.7,0.1v1.8c-0.1,0-0.3,0-0.5,0c-0.4,0-0.8,0.1-1.1,0.3c-0.3,0.2-0.5,0.5-0.6,0.9
		c0.6,0.8,0.9,1.7,0.9,2.7c0,1.2-0.4,2.2-1.2,3.1c-1,1.1-2.3,1.6-4,1.6c-0.7,0-1.5-0.1-2.3-0.4c-0.3,0.1-0.5,0.2-0.8,0.5
		c-0.2,0.2-0.4,0.5-0.4,0.8c0,0.5,0.1,0.8,0.5,1c0.4,0.2,0.9,0.3,1.4,0.3h2.9c2,0,3.4,0.5,4.3,1.4c0.7,0.7,1,1.5,1,2.6
		C167.7,139.9,167.4,140.7,166.6,141.5z"/>
	<path class="st0" d="M161,131c0.9,0,1.6-0.3,2.2-0.8c0.6-0.6,0.9-1.3,0.9-2.1c0-0.8-0.3-1.5-0.8-2.1s-1.3-0.8-2.2-0.8
		c-0.9,0-1.7,0.3-2.2,0.8s-0.8,1.2-0.8,2.1c0,0.8,0.3,1.5,0.9,2.1C159.4,130.7,160.1,131,161,131z"/>
	<path class="st0" d="M164.9,137.4c-0.2-0.1-0.5-0.3-0.7-0.4c-0.2-0.1-0.5-0.2-0.9-0.2c-0.4,0-0.7,0-0.8-0.1c-0.2,0-0.5,0-0.9,0
		c-0.1,0-0.2,0-0.3,0h-2.5c-0.5,0.2-0.9,0.4-1.2,0.8c-0.3,0.4-0.5,0.8-0.5,1.3c0,0.6,0.2,1,0.5,1.4c0.6,0.6,1.8,0.9,3.6,0.9
		c1.8,0,3-0.3,3.6-0.9c0.4-0.4,0.6-0.8,0.6-1.4c0-0.3-0.1-0.6-0.2-0.9C165.3,137.7,165.1,137.5,164.9,137.4z"/>
</g>
</svg>
