<?xml version="1.0" encoding="utf-8"?>
<!-- Generator: Adobe Illustrator 21.0.2, SVG Export Plug-In . SVG Version: 6.00 Build 0)  -->
<svg version="1.1" id="_x35_92e89c4-40a5-4934-b8e7-a570c6ad1fc2"
	 xmlns="http://www.w3.org/2000/svg" xmlns:xlink="http://www.w3.org/1999/xlink" x="0px" y="0px" viewBox="0 0 198.1 198.1"
	 style="enable-background:new 0 0 198.1 198.1;" xml:space="preserve">
<style type="text/css">
	.st0{fill:#0000FF;}
</style>
<g>
	<path class="st0" d="M53.8,93.8c-1.1,0-2,0.4-2.7,1.3c-0.7,0.8-1,1.7-1.1,2.6h7.4c0-1.1-0.4-2.1-1.1-2.8
		C55.7,94.1,54.8,93.8,53.8,93.8z"/>
	<path class="st0" d="M158.9,99.5c0.9,0,1.6-0.3,2.2-0.8c0.6-0.6,0.9-1.3,0.9-2.1c0-0.8-0.3-1.5-0.8-2.1c-0.6-0.5-1.3-0.8-2.2-0.8
		s-1.7,0.3-2.2,0.8c-0.6,0.5-0.8,1.2-0.8,2.1c0,0.8,0.3,1.5,0.9,2.1C157.3,99.2,158,99.5,158.9,99.5z"/>
	<path class="st0" d="M69.2,93.8c-0.8,0-1.6,0.3-2.2,0.9c-1,0.9-1.5,2.3-1.5,4.2c0,1.9,0.5,3.3,1.5,4.1c0.6,0.6,1.4,0.8,2.2,0.8
		c1,0,1.8-0.3,2.4-1c0.9-0.9,1.4-2.3,1.4-4c0-1.8-0.5-3.1-1.4-4C71,94.1,70.2,93.8,69.2,93.8z"/>
	<path class="st0" d="M0,0v198.1h198.1V0H0z M127.5,86.6h3.1v3.1h-3.1V86.6z M42.4,105.4L39,97.7h-4.2v7.7h-2.3V86.9h6.3
		c2.1,0,3.6,0.5,4.7,1.6c1,1,1.5,2.3,1.5,3.7c0,1.4-0.5,2.7-1.4,3.6c-0.5,0.6-1.3,1-2.2,1.3l3.7,8.1H42.4z M59.8,99.5H50
		c0,1.4,0.4,2.5,1.3,3.3c0.7,0.7,1.5,1,2.5,1c1,0,1.8-0.3,2.4-0.8c0.5-0.4,0.9-0.9,1.1-1.6h2.1c-0.3,1.3-1,2.4-2,3.1
		s-2.2,1.1-3.6,1.1c-1.6,0-3-0.6-4.2-1.7c-1.3-1.3-2-3-2-5.1c0-2.2,0.7-3.9,2-5.3c1.1-1.1,2.5-1.7,4.2-1.7c1.7,0,3,0.5,4.1,1.6
		c1.3,1.3,1.9,3.1,1.9,5.3V99.5z M73.3,104.3c-1,1-2.3,1.4-3.7,1.4c-0.8,0-1.6-0.2-2.3-0.5c-0.7-0.3-1.3-0.8-1.6-1.4v6.9h-2.2V92.2
		h2l0.2,1.7c0.4-0.6,0.9-1.1,1.7-1.5c0.8-0.4,1.5-0.5,2.3-0.5c1.5,0,2.8,0.5,3.8,1.6c1.3,1.3,1.9,3.1,1.9,5.3
		C75.3,101.2,74.6,103,73.3,104.3z M88.6,104.1c-1.1,1.1-2.5,1.6-4.1,1.6c-1.7,0-3.1-0.5-4.2-1.6c-1.4-1.4-2.1-3.1-2.1-5.3
		s0.7-4,2.1-5.3c1.1-1.1,2.5-1.6,4.2-1.6c1.6,0,3,0.5,4.1,1.6c1.4,1.4,2.1,3.1,2.1,5.3C90.6,101,89.9,102.8,88.6,104.1z M103.2,96.7
		c0-0.8-0.2-1.4-0.7-1.9c-0.5-0.6-1.2-0.9-2.1-0.9c-0.6,0-1.2,0.2-1.8,0.6c-0.5,0.4-1,1-1.2,1.6c-0.4,0.9-0.6,2-0.6,3.4v5.8h-2.2
		V92.2h2l0.2,2c0.4-0.8,1-1.3,1.7-1.7c0.8-0.4,1.6-0.6,2.4-0.6c1.6,0,2.8,0.6,3.7,1.9c0.6,0.8,0.8,1.8,0.8,2.9H103.2z M119.8,104.7
		c-1.1,0.6-2.3,0.9-3.6,0.9c-1.4,0-2.4-0.4-3.2-1.2c-0.7-0.8-1.1-1.8-1.1-3v-7.4h-4.1v-1.9h4.1v-3.4l2.2-0.7v4.1h5.5v1.9h-5.5v7.2
		c0,0.7,0.2,1.3,0.6,1.7s1,0.6,1.7,0.6c0.9,0,2-0.3,3.3-0.9V104.7z M135.1,105.4h-11.8v-1.9h4.8v-9.4h-4.2v-1.9h6.5v11.3h4.8V105.4z
		 M149.5,105.4h-2.3V97c0-2.1-1-3.1-2.9-3.1c-0.6,0-1.2,0.2-1.7,0.6c-0.5,0.4-0.9,0.9-1.2,1.5c-0.4,0.8-0.6,2-0.6,3.4v6h-2.2V92.2
		h1.9l0.2,2c0.4-0.7,1-1.3,1.7-1.7s1.6-0.6,2.4-0.6c1.5,0,2.6,0.4,3.5,1.3s1.2,2,1.2,3.6V105.4z M164.5,109.9
		c-1.1,1-2.9,1.6-5.4,1.6c-2.4,0-4.1-0.5-5.1-1.5c-0.7-0.7-1-1.4-1-2.3c0-0.7,0.2-1.2,0.5-1.8c0.3-0.5,0.8-0.9,1.4-1.2
		c-0.5-0.2-0.8-0.5-1.1-0.9s-0.4-0.8-0.4-1.4c0-1.1,0.6-2,1.8-2.5c-1-0.8-1.5-2-1.5-3.4c0-1.2,0.4-2.3,1.3-3.2c1-1,2.3-1.5,4-1.5
		c1.2,0,2.2,0.3,3.1,0.8c0.2-0.6,0.6-1,1.1-1.4c0.5-0.3,1-0.5,1.7-0.5c0.2,0,0.4,0,0.7,0.1v1.8c-0.1,0-0.3,0-0.5,0
		c-0.4,0-0.8,0.1-1.1,0.3c-0.3,0.2-0.5,0.5-0.6,0.9c0.6,0.8,0.9,1.7,0.9,2.7c0,1.2-0.4,2.2-1.2,3.1c-1,1.1-2.3,1.6-4,1.6
		c-0.7,0-1.5-0.1-2.3-0.4c-0.3,0.1-0.5,0.2-0.8,0.5c-0.2,0.2-0.4,0.5-0.4,0.8c0,0.5,0.1,0.8,0.5,1c0.4,0.2,0.9,0.3,1.4,0.3h2.9
		c2,0,3.4,0.5,4.3,1.4c0.7,0.7,1,1.5,1,2.6C165.7,108.3,165.3,109.2,164.5,109.9z"/>
	<path class="st0" d="M84.4,93.8c-0.9,0-1.8,0.3-2.4,0.9c-1,0.9-1.5,2.2-1.5,4c0,1.8,0.5,3.2,1.5,4.1c0.7,0.6,1.5,0.9,2.4,0.9
		c0.9,0,1.8-0.3,2.4-0.9c1-0.9,1.5-2.3,1.5-4.1s-0.5-3.2-1.5-4.1C86.2,94.1,85.4,93.8,84.4,93.8z"/>
	<path class="st0" d="M162.8,105.8c-0.2-0.1-0.5-0.3-0.6-0.4c-0.2-0.1-0.5-0.2-0.9-0.2c-0.4,0-0.7,0-0.8-0.1c-0.2,0-0.5,0-0.9,0
		c-0.1,0-0.2,0-0.3,0h-2.5c-0.5,0.2-0.9,0.4-1.2,0.8c-0.3,0.4-0.5,0.8-0.5,1.3c0,0.6,0.2,1,0.5,1.4c0.6,0.6,1.8,0.9,3.6,0.9
		c1.8,0,3-0.3,3.6-0.9c0.4-0.4,0.6-0.8,0.6-1.4c0-0.3-0.1-0.6-0.2-0.9C163.2,106.2,163.1,106,162.8,105.8z"/>
	<path class="st0" d="M42.5,92.3c0-2.2-1.2-3.2-3.7-3.2h-4v6.5h4C41.3,95.5,42.5,94.5,42.5,92.3z"/>
</g>
</svg>
