<?xml version="1.0" encoding="utf-8"?>
<!-- Generator: Adobe Illustrator 21.0.2, SVG Export Plug-In . SVG Version: 6.00 Build 0)  -->
<svg version="1.1" id="Layer_1" xmlns="http://www.w3.org/2000/svg" xmlns:xlink="http://www.w3.org/1999/xlink" x="0px" y="0px"
	 viewBox="0 0 1613.4 372.3" style="enable-background:new 0 0 1613.4 372.3;" xml:space="preserve">
<style type="text/css">
	.st0{fill:#FF5C5C;}
</style>
<g id="Layer_1_1_">
</g>
<g id="Layer_2">
</g>
<g id="Layer_3">
	<g>
		<path class="st0" d="M175.1,368.1H0v-39.5h64.7V43.7H0V4.2h175.1v39.5h-64.7v284.9h64.7L175.1,368.1L175.1,368.1z"/>
		<path class="st0" d="M465.2,368.1h-43.7V195c0-35.9-16.1-53.5-48.3-53.5c-21.3,0-39.5,10.9-54.6,33.3
			c-15.1,21.8-22.4,50.9-22.4,87.9v105.5h-43.7v-262h43.7v48.3c19.2-31.2,53-52.5,88.9-52.5c53.5,0,80.1,31.7,80.1,83.7V368.1z"/>
		<path class="st0" d="M1096.7,106.1h43.7v173.1c0,35.9,16.1,53.5,48.3,53.5c21.3,0,39.5-10.9,54.6-32.7
			c15.1-22.4,22.4-51.5,22.4-88.4V106.1h43.7v262h-43.7v-48.3c-19.2,31.2-53,52.5-88.9,52.5c-53.5,0-80.1-31.7-80.1-83.7V106.1z"/>
		<path class="st0" d="M1552.1,106.1h51.5l-85.3,123.2l95.1,138.8H1564l-69.7-102.9l-69.6,102.9h-49.4l95.1-138.8l-85.3-123.2h51.5
			l57.7,86.8L1552.1,106.1z"/>
		<path class="st0" d="M527.6,106.1h48.3V88.9c0-60.3,31.7-88.9,84.7-88.9c14.6,0,29.1,3.6,37.4,8.3l-8.8,38.5
			c-9.4-4.7-19.8-7.3-29.1-7.3c-28.6,0-40.5,15.6-40.5,49.4v17.2h83.5v39.5h-83.5v222.5h-43.7V145.6h-48.3L527.6,106.1L527.6,106.1z
			"/>
		<path class="st0" d="M832.6,43.7h-72.3V4.2h115.9v265.1c0,42.1,18.2,63.4,55.1,63.4c33.8,0,54.1-21.3,60.8-63.4l39.5,7.8
			c-8.8,62.4-45.7,95.1-100.3,95.1c-60.8,0-98.8-37.9-98.8-102.9V43.7H832.6z"/>
	</g>
</g>
</svg>
