<svg id="e6a509c4-d1c1-4152-9c38-6180d03ab5a3" data-name="Layer 1" xmlns="http://www.w3.org/2000/svg" viewBox="0 0 2152 1080.72"><defs><style>.b0a2e342-1e64-4b27-ae84-376027266ea0{fill:#ff5c5c;}</style></defs><title>netflux</title><path class="b0a2e342-1e64-4b27-ae84-376027266ea0" d="M461.43,745.36H264.11V700.84H337v-321H264.11V335.36H461.43v44.52H388.54v321h72.89Z"/><path class="b0a2e342-1e64-4b27-ae84-376027266ea0" d="M759.14,745.36h-49.2v-195c0-40.41-18.16-60.33-54.47-60.33-24,0-44.52,12.3-61.5,37.49-17,24.6-25.19,57.4-25.19,99v118.9h-49.2V450.16h49.2v54.47c21.67-35.14,59.74-59.16,100.16-59.16,60.33,0,90.2,35.73,90.2,94.3Z"/><path class="b0a2e342-1e64-4b27-ae84-376027266ea0" d="M1059.91,335.36h49.24V634.07c0,47.44,20.5,71.46,62.08,71.46,38.07,0,60.91-24,68.53-71.46l44.52,8.79c-10,70.28-51.54,107.19-113,107.19-68.53,0-111.29-42.76-111.29-116Z"/><path class="b0a2e342-1e64-4b27-ae84-376027266ea0" d="M1330.87,450.16h49.2v195c0,40.41,18.16,60.33,54.47,60.33q36,0,61.5-36.9c17-25.19,25.19-58,25.19-99.57V450.16h49.2v295.2h-49.2V690.89C1499.56,726,1461.49,750,1421.07,750c-60.33,0-90.2-35.73-90.2-94.3Z"/><path class="b0a2e342-1e64-4b27-ae84-376027266ea0" d="M1818.78,450.16h58L1780.71,589l107.19,156.39h-55.64l-78.48-116-78.49,116h-55.64L1726.82,589l-96.06-138.81h58l65,97.81Z"/><path class="b0a2e342-1e64-4b27-ae84-376027266ea0" d="M806.78,450.16h54.45V430.83c0-67.94,35.73-100.16,95.47-100.16,16.4,0,32.8,4.1,42.17,9.37l-10,43.34c-10.54-5.27-22.26-8.2-32.8-8.2-32.21,0-45.69,17.57-45.69,55.64v19.33h94v44.51h-94V745.36h-49.2V494.67H806.78Z"/></svg>