<svg id="1a5290f7-5567-44a1-b771-02a11d1074b4" data-name="Layer 1" xmlns="http://www.w3.org/2000/svg" viewBox="0 0 482 490"><defs><style>.\33 9beeb45-0afd-44dc-85d7-187d48461b89{fill:#FF5B5B;}</style></defs><title>netflux</title><path class="39beeb45-0afd-44dc-85d7-187d48461b89" d="M204.83,329.27,245.71,311q-1.07-1.3-1.71-2.16a37.44,37.44,0,0,0-12.2-9.5l-32.74,14.5H164.39l-.64,2.75q0,12.66,25,12.65Z"/><path class="39beeb45-0afd-44dc-85d7-187d48461b89" d="M247.85,337a47.66,47.66,0,0,0-10.27-10.48L207,340.19h-19.9v1.28q0,14.33,20.92,14.33h7.11L250.2,340Q248.7,338,247.85,337Z"/><path class="39beeb45-0afd-44dc-85d7-187d48461b89" d="M197.13,303.38,236.72,286q-7.49-9.91-18-12.65l-32.09,14.15H175.38q-16,0-24.25-4.5a12.4,12.4,0,0,0-2.78,7.2q0,6.57,6.53,9.85t19.58,3.28Z"/><path class="39beeb45-0afd-44dc-85d7-187d48461b89" d="M299.84,235.33q-6.85-3.21-20.54-22.47-5.57-7.48-16.47-21.18l-43-45.79-8.56-39.59q-21.4,7.28-21.4,27.39,0,10.49,7.28,22.68l2.78,4.71q16.69,27.82,16.69,53.07l.21,6h-7.72q-34.12,0-51.29,6.77t-17.17,20.51a28.12,28.12,0,0,0,8.9,21.05,30.12,30.12,0,0,0,21.76,8.59h13.07l38.87-17.45q-8.78-13.36-23.54-13.36a37.16,37.16,0,0,0-9.84,1.73,127.16,127.16,0,0,0-14.12,5.17l-10.05.43-10.06-10.75,17.34-.21a86.75,86.75,0,0,1,13.7-4.71A48.73,48.73,0,0,1,198,236.4q27.39,0,40,27.95l-7.28,3.45q13.48,6.58,20.75,22.92l-8.34,3.59q9.84,6.2,18.19,21.17l-13.27,6.31q10.91,7.91,17.55,22.47L239.29,356a57.1,57.1,0,0,0,10.91,1.28l8.35-.22q28.46-16.47,46.22-40H334.3a115.43,115.43,0,0,0,6.63-37.23,121.8,121.8,0,0,0-7.28-41.3Q306.69,238.54,299.84,235.33Z"/><path class="39beeb45-0afd-44dc-85d7-187d48461b89" d="M437.19,379.4a239.43,239.43,0,0,0,44.34-139.19C481.53,107.37,373.84-.32,241-.32S.47,107.37.47,240.21,108.16,480.74,241,480.74a240,240,0,0,0,85.33-15.58c6.84-2.59,90.91,37.74,123.06,21.12C407.27,446.38,430.86,388.31,437.19,379.4Zm-95.84-51.2H309.48q-22,25.25-47.72,37-8.13.64-12,.64A94.23,94.23,0,0,1,224.95,362l-7.7,3.85H208q-31.46,0-31.46-22.47a25.52,25.52,0,0,1,.43-3.85q-23.11-1.93-23.11-22.08a57.69,57.69,0,0,1,.43-6q-8.56-2.34-12.94-7.65T137,290.43q0-6.59,4.52-14Q130.15,264,130.16,248.72q0-17.6,19-28.33t50.5-10.73h5.35a114.46,114.46,0,0,0-11.77-37.23l-3.42-6q-11.12-21.18-11.13-32.74,0-31.88,33.6-39.8l6.2-1.5,10.7,47.5L268.82,182q4.06,4.71,14.12,18.19l6,7.91q9.63,13.06,13.59,15.94T315.25,227h25a117.62,117.62,0,0,1,11.56,50.5Q351.84,302.74,341.36,328.2Z"/></svg>
