<?xml version="1.0" encoding="utf-8"?>
<!-- Generator: Adobe Illustrator 21.0.2, SVG Export Plug-In . SVG Version: 6.00 Build 0)  -->
<svg version="1.1" id="_x35_92e89c4-40a5-4934-b8e7-a570c6ad1fc2"
	 xmlns="http://www.w3.org/2000/svg" xmlns:xlink="http://www.w3.org/1999/xlink" x="0px" y="0px" viewBox="0 0 402.2 402.2"
	 style="enable-background:new 0 0 402.2 402.2;" xml:space="preserve">
<style type="text/css">
	.st0{fill-rule:evenodd;clip-rule:evenodd;fill:#FF5C5C;}
	.st1{fill-rule:evenodd;clip-rule:evenodd;fill:#FFFFFF;}
</style>
<title>arrow</title>
<polygon class="st0" points="8.6,7 6.8,8.9 28.3,30.4 14.5,30.4 14.5,33 32.8,33 32.8,14.8 30.1,14.8 30.1,28.5 "/>
<g>
	<path class="st1" d="M361.6,305c-0.5,0.1-0.4,0.6-0.4,1c0,13.8,0,27.5,0,41.3c0,0.2,0,0.4,0.1,0.6c0,0.1,0.2,0.2,0.3,0.2
		c0.1,0,0.3-0.2,0.3-0.4c0.1-0.2,0-0.5,0-0.7c0-6.8,0-13.6,0-20.5c0-6.9,0-13.8,0-20.6C361.9,305.5,362.1,304.9,361.6,305"/>
	<path class="st1" d="M302.3,297.8v-6.1h-8.5v110.6h8.5v-39.3c33.8,8.9,66-13,100-1.3v-65.1C368.3,284.8,336.1,306.7,302.3,297.8z
		 M338,356.2c-1.2,0.2-2.3,0.4-3.5,0.6v-23.9c-0.3,0-0.5,0.1-0.7,0.1v23.9c-1.2,0.2-2.3,0.4-3.5,0.5v-49.2c1.1-0.1,2.3-0.3,3.5-0.5
		v21.4c0.3,0,0.5-0.1,0.7-0.1v-21.4c1.2-0.2,2.3-0.4,3.5-0.6V356.2z M344.6,354.8c-1.9,0.4-3.8,0.8-5.7,1.2v-49.2
		c1.9-0.4,3.7-0.8,5.6-1.2v3.3c-0.7,0.2-1.4,0.3-2.1,0.5v18.1c0.7-0.1,1.3-0.3,2-0.4v3.4c-0.7,0.1-1.3,0.3-2,0.4V352
		c0.7-0.2,1.5-0.3,2.2-0.5V354.8z M350.9,353.4c-1.8,0.4-3.7,0.8-5.5,1.2v-49.2c1.1-0.2,2.2-0.5,3.4-0.8v45.9
		c0.8-0.2,1.4-0.3,2.1-0.5V353.4z M357.2,352.1c-0.9,0.2-1.8,0.4-2.8,0.6c-0.9,0.2-1.8,0.4-2.8,0.6v-49.2c1.1-0.2,2.2-0.5,3.4-0.8
		v45.9c0.8-0.2,1.4-0.3,2.1-0.5V352.1z M365.5,346.4c0,0.8-0.2,1.7-0.4,2.5c-0.2,0.7-0.7,1.3-1.3,1.7c-1.4,1-3.9,1.2-4.9,0.4
		c-0.7-0.6-1-1.4-1.1-2.4c0-0.2,0-0.5,0-0.7c0-13.7,0-27.3,0-41c0-1,0.1-2.1,0.7-3c0.3-0.4,0.6-0.8,1-1.1c1.4-1,2.8-1.2,4.2-0.9
		c1.3,0.3,1.7,1.5,1.9,2.8c0,0.3,0,0.6,0,0.9c0,6.8,0,13.6,0,20.4C365.5,332.7,365.5,339.5,365.5,346.4z M369.6,349.9
		c-1.1,0.1-2.1,0.3-3.2,0.5v-5c1.1-0.2,2.1-0.3,3.2-0.5V349.9z M369,344.3c-0.7,0.1-1.3,0.2-1.9,0.3c-0.2-14.5-0.5-29-0.7-43.5
		c1.2-0.2,2.3-0.3,3.4-0.5C369.4,315.2,369.2,329.7,369,344.3z"/>
</g>
</svg>
