<?xml version="1.0" encoding="utf-8"?>
<!-- Generator: Adobe Illustrator 21.0.2, SVG Export Plug-In . SVG Version: 6.00 Build 0)  -->
<svg version="1.1" id="_x35_92e89c4-40a5-4934-b8e7-a570c6ad1fc2"
	 xmlns="http://www.w3.org/2000/svg" xmlns:xlink="http://www.w3.org/1999/xlink" x="0px" y="0px" viewBox="0 0 205.3 209"
	 style="enable-background:new 0 0 205.3 209;" xml:space="preserve">
<style type="text/css">
	.st0{fill:#FFFFFF;}
</style>
<path class="st0" d="M128.4,25.3c-0.9,0.2-0.7,1.2-0.7,1.8c0,26,0,52,0,78c0,0.4,0,0.8,0.1,1.1c0.1,0.2,0.4,0.5,0.6,0.4
	c0.2-0.1,0.5-0.4,0.6-0.7c0.1-0.4,0.1-0.9,0.1-1.4c0-12.9,0-25.8,0-38.7c0-13,0-26,0-39C129,26.2,129.3,25.1,128.4,25.3z"/>
<path class="st0" d="M16.1,11.6V0H0v209h16.1v-74.4c64,16.7,124.9-24.6,189.2-2.5c0-41,0-82,0-123C141-13,80.1,28.4,16.1,11.6z
	 M83.8,122c-2.2,0.4-4.3,0.8-6.6,1.2c0-15.1,0-30.1,0-45.2c-0.5,0.1-0.9,0.1-1.3,0.2c0,15.1,0,30.1,0,45.2c-2.2,0.4-4.4,0.7-6.6,1
	c0-31,0-62,0-93c2.2-0.3,4.3-0.6,6.5-0.9c0,13.5,0,27,0,40.5c0.5-0.1,0.9-0.1,1.4-0.2c0-13.5,0-27,0-40.5c2.3-0.4,4.4-0.8,6.6-1.2
	C83.8,59.9,83.8,91,83.8,122z M96.2,119.4c-3.7,0.8-7.2,1.5-10.8,2.2c0-31,0-62,0-93c3.6-0.7,7.1-1.4,10.7-2.2c0,2.1,0,4.1,0,6.2
	c-1.4,0.3-2.7,0.6-4,0.9c0,11.4,0,22.7,0,34.2c1.3-0.3,2.5-0.5,3.8-0.8c0,2.2,0,4.3,0,6.5c-1.3,0.3-2.5,0.5-3.8,0.8
	c0,13.3,0,26.5,0,39.8c1.4-0.3,2.8-0.6,4.2-0.9C96.2,115.3,96.2,117.3,96.2,119.4z M108.1,116.8c-3.5,0.8-7,1.6-10.5,2.3
	c0-31,0-62,0-93c2.1-0.5,4.2-0.9,6.5-1.4c0,28.9,0,57.8,0,86.7c1.5-0.3,2.7-0.6,4-0.9C108.1,112.6,108.1,114.7,108.1,116.8z
	 M120,114.2c-1.8,0.4-3.5,0.7-5.2,1.1c-1.7,0.4-3.5,0.8-5.3,1.2c0-31,0-62,0-93.1c2.1-0.5,4.2-0.9,6.5-1.4c0,28.9,0,57.8,0,86.7
	c1.5-0.3,2.7-0.6,4-0.9C120,110,120,112,120,114.2z M135.7,103.4c0,1.5-0.4,3.1-0.8,4.7c-0.4,1.3-1.3,2.4-2.5,3.2
	c-2.7,1.8-7.4,2.3-9.4,0.8c-1.4-1.1-1.9-2.7-2.1-4.6c0-0.4,0-0.9,0-1.3c0-25.8,0-51.6,0-77.5c0-1.9,0.2-3.9,1.4-5.7
	c0.5-0.8,1.2-1.6,1.9-2.1c2.6-1.8,5.3-2.3,8-1.7c2.5,0.6,3.3,2.8,3.5,5.2c0.1,0.6,0,1.2,0,1.8c0,12.8,0,25.7,0,38.5
	C135.8,77.5,135.8,90.5,135.7,103.4z M143.5,110c-2,0.3-4,0.5-6,0.9c0-3.2,0-6.3,0-9.5c2-0.3,4-0.6,6-0.9
	C143.5,103.7,143.5,106.8,143.5,110z M142.3,99.5c-1.3,0.2-2.4,0.3-3.7,0.5c-0.5-27.4-0.9-54.8-1.4-82.2c2.2-0.4,4.3-0.7,6.5-0.9
	C143.3,44.5,142.8,72,142.3,99.5z"/>
</svg>
