<?xml version="1.0" encoding="utf-8"?>
<!-- Generator: Adobe Illustrator 21.0.2, SVG Export Plug-In . SVG Version: 6.00 Build 0)  -->
<svg version="1.1" id="Layer_1" xmlns="http://www.w3.org/2000/svg" xmlns:xlink="http://www.w3.org/1999/xlink" x="0px" y="0px"
	 viewBox="0 0 1500 780" style="enable-background:new 0 0 1500 780;" xml:space="preserve">
<style type="text/css">
	.st0{fill:#FFFFFF;}
	.st1{fill:#64E281;}
	.st2{fill:#0000FF;}
	.st3{fill:#FF5C5C;}
	.st4{fill:#FF00FF;}
	.st5{fill:#333333;}
	.st6{opacity:0.2;}
	.st7{fill:#1D1D1B;}
	.st8{opacity:0.8;fill:#333333;}
	.st9{fill:#F4850C;}
</style>
<path class="st0" d="M0,0v780h1500V0H0z M1045.8,435.6h61.1v4.3h-61.1V435.6z M904.2,243.6h97.1v46.7l11.9-13l3.2,3l-17.2,18.6
	l-17.5-18.6l3.2-3l12.1,13v-42.6h-92.8V243.6z M781.7,243.7h56.8v4.3h-56.8V243.7z M631.2,243.7H688v4.3h-56.8V243.7z M464.7,243.6
	h94.8l-13.1-12.2l3-3.2l18.6,17.5L549.4,263l-3-3.2l13.2-12H469v45h-4.3V243.6z M183.6,453.3l-3-3.2l13.1-11.9h-46.6v-196h4v191.7
	h42.4l-12.9-12l3-3.2l18.6,17.5L183.6,453.3z M410.8,439.9h-61.1v-4.3h61.1V439.9z M1163.2,553.9l-348,0.1v153.9l11.7-12.6l2.9,2.9
	l-16.6,17.9l-16.6-17.9l3.1-2.9l11.4,12.5V554l-348,0.1v-2v-2v-45.7h4.2v45.7l265.6-0.1h426.4v-45.5h3.9V553.9z M1336.4,257.4
	l-12.3-13.2v193.8h-49v-4.3h45V244.3l-12,13.1l-3.2-3l17.2-18.6l17.5,18.6L1336.4,257.4z"/>
<g>
	<g>
		<path class="st1" d="M164.1,168.1c-1.3-1.1-3.2-1.9-5.1-1.9c-0.5,0-1.3,0-2.2,0.3c-6.5,1.6-11.6,7.5-11.8,14c0,2.7,1.1,5.1,3,6.7
			c1.9,1.6,4.6,2.2,7,1.6c6.5-1.6,11.6-7.5,11.8-14C167.1,172.1,166,169.7,164.1,168.1z"/>
	</g>
	<g>
		<path class="st1" d="M115.9,152.2v-3.5h-6.7V237h6.7v-32c28.3,7,55.5-10,83.7-1.1c0-17.5,0-35.3,0-52.8
			C171.4,142.2,144.4,159.2,115.9,152.2z M157.1,195.3L157.1,195.3c-1.1,0.3-2.4,0.5-3.5,0.5c-3.5,0-6.7-1.1-9.4-3.2
			c-3.8-3-5.7-7.3-5.7-12.1c0.3-9.4,7.3-18,17-20.5c4.6-1.1,9.4,0,12.9,3c3.8,3,5.7,7.3,5.7,12.1
			C173.8,184.5,166.5,193.1,157.1,195.3z"/>
	</g>
	<g>
		<path d="M105.9,73.3h1.6l10.8,15.3V73.3h1.6v18h-1.6L107.6,76v15.3h-1.6V73.3z"/>
		<path d="M125.1,85.1L125.1,85.1c0,3.2,1.9,5.1,4.3,5.1c2.2,0,3.5-1.1,3.8-2.7h1.3c-0.5,2.4-2.4,4.3-5.4,4.3
			c-3.5,0-5.9-2.4-5.9-6.7c0-4,2.4-7,5.9-7c3.5,0,5.7,2.7,5.7,6.7c0,0.3,0,0.5,0,0.5h-1.3L125.1,85.1z M125.1,83.8h8.3
			c0-2.7-1.6-4.6-4-4.6C126.9,79.2,125.3,81.1,125.1,83.8z"/>
		<path d="M136.9,78.1h1.6l3,11.6l3.2-11.6h1.6l3.2,11.6l3-11.6h1.6l-3.8,12.9h-1.6l-1.9-6.5l-1.3-4.8l0,0l-1.3,4.8l-1.9,6.2h-1.6
			L136.9,78.1z"/>
		<path d="M163,89.2V73h1.3v15.9c0,0.8,0.5,1.1,1.1,1.1h0.8v1.3h-1.1C164.1,91.3,163,90.8,163,89.2z"/>
		<path d="M169.7,85.1L169.7,85.1c0,3.2,1.9,5.1,4.3,5.1c2.2,0,3.5-1.1,3.8-2.7h1.3c-0.5,2.4-2.4,4.3-5.4,4.3
			c-3.5,0-5.9-2.4-5.9-6.7c0-4,2.4-7,5.9-7c3.5,0,5.7,2.7,5.7,6.7c0,0.3,0,0.5,0,0.5h-1.3L169.7,85.1z M169.7,83.8h8.3
			c0-2.7-1.6-4.6-4-4.6C171.6,79.2,170,81.1,169.7,83.8z"/>
		<path d="M181.9,88.1c0-2.4,1.9-3.5,4.3-4l3-0.5c1.1-0.3,1.3-0.5,1.3-1.3c0-1.6-0.8-2.7-3.2-2.7c-2.4,0-3.2,1.1-3.5,2.7h-1.3
			c0-2.4,1.6-4.3,4.8-4.3c3,0,4.8,1.1,4.8,4.3v6.7c0,0.8,0.3,0.8,0.8,0.8h0.5v1.3h-1.3c-0.8,0-1.3-0.5-1.3-1.3v-0.8
			c-0.8,1.6-2.4,2.4-4.8,2.4C183.7,91.6,181.9,90.3,181.9,88.1z M190.5,86.5v-2.4c-0.3,0.3-0.8,0.5-1.3,0.5l-2.4,0.5
			c-2.2,0.5-3.2,1.1-3.2,2.7c0,1.3,1.1,2.4,2.7,2.4C188.6,90.3,190.5,88.6,190.5,86.5z"/>
		<path d="M206.9,73v18h-1.3v-2.2c-0.8,1.3-2.4,2.4-4.3,2.4c-3.8,0-5.7-3-5.7-6.7c0-4,2.2-6.7,5.7-6.7c1.9,0,3.2,0.8,4.3,2.4V73
			C205.6,73,206.9,73,206.9,73z M205.3,84.6c0-3-1.9-5.1-4.3-5.1c-2.7,0-4.3,2.2-4.3,5.4c0,3,1.6,5.4,4.3,5.4s4.3-2.4,4.3-5.1V84.6z
			"/>
		<path d="M92.7,104.8c0-0.5,0.5-1.1,1.1-1.1c0.5,0,1.1,0.5,1.1,1.1s-0.5,1.1-1.1,1.1C93.3,106.1,92.7,105.6,92.7,104.8z
			 M93.3,108.6h1.3v12.9h-1.3V108.6z"/>
		<path d="M98.7,108.6h1.3v2.2c0.8-1.6,2.2-2.4,4-2.4c3.2,0,4.8,1.9,4.8,5.4v8.1h-1.3V114c0-2.7-1.3-4.3-3.5-4.3s-3.8,1.9-3.8,4.3
			v7.5h-1.3v-12.9H98.7z"/>
		<path d="M129.9,103.5v18h-1.3v-2.2c-0.8,1.3-2.4,2.4-4.3,2.4c-3.8,0-5.7-3-5.7-6.7c0-4,2.2-6.7,5.7-6.7c1.9,0,3.2,0.8,4.3,2.4
			v-7.3H129.9z M128.6,115c0-3-1.9-5.1-4.3-5.1c-2.7,0-4.3,2.2-4.3,5.4c0,3,1.6,5.4,4.3,5.4s4.3-2.4,4.3-5.1V115z"/>
		<path d="M133.1,118.5c0-2.4,1.9-3.5,4.3-4l3-0.5c1.1-0.3,1.3-0.5,1.3-1.3c0-1.6-0.8-2.7-3.2-2.7c-2.4,0-3.2,1.1-3.5,2.7h-1.6
			c0-2.4,1.6-4.3,4.8-4.3c3,0,4.8,1.1,4.8,4.3v6.7c0,0.8,0.3,0.8,0.8,0.8h0.5v1.3h-1.3c-0.8,0-1.3-0.5-1.3-1.3v-0.8
			c-0.8,1.6-2.4,2.4-4.8,2.4C135,122,133.1,120.7,133.1,118.5z M141.7,116.9v-2.4c-0.3,0.3-0.8,0.5-1.3,0.5l-2.4,0.5
			c-2.2,0.5-3.2,1.1-3.2,2.7c0,1.3,1.1,2.4,2.7,2.4C139.9,120.7,141.7,119.1,141.7,116.9z"/>
		<path d="M148.2,119.1v-9.2h-2.4v-1.3h2.4v-3.8h1.3v3.8h3.2v1.3h-3.2v8.9c0,1.3,0.5,1.6,1.9,1.6h1.6v1.3h-2.2
			C149.3,121.8,148.2,121.2,148.2,119.1z"/>
		<path d="M154.7,118.5c0-2.4,1.9-3.5,4.3-4l3-0.5c1.1-0.3,1.3-0.5,1.3-1.3c0-1.6-0.8-2.7-3.2-2.7c-2.4,0-3.2,1.1-3.5,2.7h-1.6
			c0-2.4,1.6-4.3,4.8-4.3c3,0,4.8,1.1,4.8,4.3v6.7c0,0.8,0.3,0.8,0.8,0.8h0.5v1.3h-1.3c-0.8,0-1.3-0.5-1.3-1.3v-0.8
			c-0.8,1.6-2.4,2.4-4.8,2.4C156.6,122,154.7,120.7,154.7,118.5z M163.3,116.9v-2.4c-0.3,0.3-0.8,0.5-1.3,0.5l-2.4,0.5
			c-2.2,0.5-3.2,1.1-3.2,2.7c0,1.3,1.1,2.4,2.7,2.4C161.4,120.7,163.3,119.1,163.3,116.9z"/>
		<path d="M180.5,115c0,4-2.2,7-5.7,7c-1.9,0-3.5-0.8-4.3-2.4v2.2h-1.6v-18h1.3v7.3c0.8-1.6,2.4-2.4,4.3-2.4
			C178.4,108.3,180.5,111.3,180.5,115z M178.9,115c0-3.2-1.6-5.4-4-5.4c-2.7,0-4.3,2.2-4.3,5.4c0,3.5,1.9,5.4,4.3,5.4
			C177.3,120.7,178.9,118.5,178.9,115z"/>
		<path d="M182.9,118.5c0-2.4,1.9-3.5,4.3-4l3-0.5c1.1-0.3,1.3-0.5,1.3-1.3c0-1.6-0.8-2.7-3.2-2.7c-2.4,0-3.2,1.1-3.5,2.7h-1.6
			c0-2.4,1.6-4.3,4.8-4.3c3,0,4.8,1.1,4.8,4.3v6.7c0,0.8,0.3,0.8,0.8,0.8h0.5v1.3h-1.3c-0.8,0-1.3-0.5-1.3-1.3v-0.8
			c-0.8,1.6-2.4,2.4-4.8,2.4C184.6,122,182.9,120.7,182.9,118.5z M191.6,116.9v-2.4c-0.3,0.3-0.8,0.5-1.3,0.5l-2.4,0.5
			c-2.2,0.5-3.2,1.1-3.2,2.7c0,1.3,1.1,2.4,2.7,2.4C189.7,120.7,191.6,119.1,191.6,116.9z"/>
		<path d="M196.1,117.7h1.6c0,1.9,1.3,3,3.5,3c1.9,0,3.5-0.8,3.5-2.2c0-1.1-0.8-1.6-2.4-2.2l-2.2-0.8c-1.9-0.5-3.5-1.3-3.5-3.5
			s1.9-3.5,4.6-3.5s4.8,1.1,4.8,4.3h-1.6c0-1.9-1.3-2.7-3.2-2.7c-2.2,0-3,1.1-3,2.2c0,1.3,0.8,1.6,2.4,2.2l2.4,0.8
			c2.2,0.8,3.2,1.6,3.2,3.5c0,2.7-2.4,3.8-4.8,3.8C198.3,122,196.1,120.7,196.1,117.7z"/>
		<path d="M210.1,115.6L210.1,115.6c0,3.2,1.9,5.1,4.3,5.1c2.2,0,3.5-1.1,3.8-2.7h1.3c-0.5,2.4-2.4,4.3-5.4,4.3
			c-3.5,0-5.9-2.4-5.9-6.7c0-4,2.4-7,5.9-7c3.5,0,5.7,2.7,5.7,6.7c0,0.3,0,0.5,0,0.5h-1.3L210.1,115.6z M210.1,114.2h8.3
			c0-2.7-1.6-4.6-4-4.6C212,109.6,210.4,111.5,210.1,114.2z"/>
	</g>
</g>
<g>
	<g>
		<path class="st2" d="M302.6,477.3L294,469l-8.6,8.3l-8.6-8.3l-8.6,8.3L256,465.5v-67.6h94v67.6l-12.1,11.8l-8.6-8.3l-8.6,8.3
			L312,469L302.6,477.3z M262.5,462.8l5.4,5.1l8.6-8.3l8.6,8.3l8.6-8.3l8.6,8.3l8.6-8.3l8.6,8.3l8.6-8.3l8.6,8.3l5.4-5.1v-57.9
			h-80.5v57.9H262.5z"/>
	</g>
	<g>
		<rect x="276.5" y="414.6" class="st2" width="36.6" height="6.7"/>
	</g>
	<g>
		<rect x="276.5" y="432.4" class="st2" width="52.2" height="4"/>
	</g>
	<g>
		<rect x="276.5" y="442.1" class="st2" width="43.3" height="4"/>
	</g>
	<g>
		<path d="M245,359.9c0-1.6,1.1-3.2,2.4-3.5v0.8c-0.8,0.3-1.3,0.8-1.3,1.9l0,0c0.5,0,1.1,0.5,1.1,1.1c0,0.8-0.5,1.1-1.1,1.1
			C245.5,361.8,245,361.3,245,359.9z M248.5,359.9c0-1.6,1.1-3.2,2.4-3.5v0.8c-0.8,0.3-1.3,0.8-1.3,1.9l0,0c0.5,0,1.1,0.5,1.1,1.1
			c0,0.8-0.5,1.1-1.1,1.1C249,361.8,248.5,361.3,248.5,359.9z"/>
		<path d="M253.3,356.4h1.6l3,11c0.5,1.6,0.8,3.2,1.3,5.1c0.5-1.9,0.8-3.5,1.3-5.4l3-11h1.9l3,11c0.5,1.6,0.8,3.2,1.3,5.4
			c0.5-1.9,0.8-3.8,1.3-5.4l3-11h1.6l-4.8,18h-1.9l-2.7-9.2c-0.5-2.2-1.3-4.6-1.9-7c-0.5,2.4-1.1,4.6-1.9,7l-2.7,9.2h-1.9
			L253.3,356.4z"/>
		<path d="M278.6,368.6L278.6,368.6c0,3.2,1.9,5.1,4.3,5.1c2.2,0,3.5-1.1,3.8-2.7h1.3c-0.5,2.4-2.4,4.3-5.4,4.3
			c-3.5,0-5.9-2.4-5.9-6.7c0-4,2.4-7,5.9-7c3.5,0,5.7,2.7,5.7,6.7c0,0.3,0,0.5,0,0.5H287L278.6,368.6z M278.9,367.2h8.3
			c0-2.7-1.6-4.6-4-4.6S278.9,364.5,278.9,367.2z"/>
		<path d="M291.8,372.6v-16.2h1.3v15.9c0,0.8,0.5,1.1,1.1,1.1h0.8v1.3H294C292.9,374.5,291.8,374.2,291.8,372.6z"/>
		<path d="M296.9,368.3c0-4,2.2-7,5.9-7c2.7,0,4.8,1.6,5.1,4.6h-1.6c-0.3-1.9-1.6-3.2-3.5-3.2c-3.2,0-4.6,2.7-4.6,5.7
			c0,3,1.3,5.4,4.3,5.4c2.2,0,3.5-1.1,3.8-3h1.6c-0.3,2.7-2.4,4.3-5.4,4.3C299.1,375,296.9,372.1,296.9,368.3z"/>
		<path d="M310.4,368c0-3.8,2.4-6.7,5.9-6.7c3.5,0,5.9,3,5.9,6.7s-2.4,6.7-5.9,6.7C312.8,375,310.4,372.1,310.4,368z M320.9,368
			c0-3.2-1.9-5.4-4.6-5.4c-2.7,0-4.6,2.4-4.6,5.4c0,3.2,1.6,5.4,4.6,5.4C319,373.4,320.9,371.3,320.9,368z"/>
		<path d="M325.5,361.6h1.3v1.6c0.5-1.3,1.9-2.2,3.5-2.2c1.9,0,3.2,0.8,3.8,2.4c0.8-1.9,2.4-2.4,4-2.4c3,0,4.6,1.9,4.6,5.1v8.3h-1.3
			v-8.1c0-2.4-1.1-4-3.2-4c-1.9,0-3.2,1.6-3.2,4v8.1h-1.3v-8.1c0-2.4-1.1-4-3.2-4c-1.9,0-3.2,1.6-3.2,3.8v8.3h-1.3v-12.9H325.5z"/>
		<path d="M347.6,368.6L347.6,368.6c0,3.2,1.9,5.1,4.3,5.1c2.2,0,3.5-1.1,3.8-2.7h1.3c-0.5,2.4-2.4,4.3-5.4,4.3
			c-3.5,0-5.9-2.4-5.9-6.7c0-4,2.4-7,5.9-7c3.5,0,5.7,2.7,5.7,6.7c0,0.3,0,0.5,0,0.5h-1.3L347.6,368.6z M347.6,367.2h8.3
			c0-2.7-1.6-4.6-4-4.6C349.4,362.6,347.8,364.5,347.6,367.2z"/>
		<path d="M361.8,358.3c0,1.6-1.1,3.2-2.4,3.5V361c0.8-0.3,1.3-0.8,1.3-1.9l0,0c-0.5,0-1.1-0.5-1.1-1.1c0-0.8,0.5-1.1,1.1-1.1
			C361.3,356.7,361.8,357,361.8,358.3z M365.3,358.3c0,1.6-1.1,3.2-2.4,3.5V361c0.8-0.3,1.3-0.8,1.3-1.9l0,0c-0.5,0-1.1-0.5-1.1-1.1
			c0-0.8,0.5-1.1,1.1-1.1C364.8,356.7,365.3,357,365.3,358.3z"/>
	</g>
</g>
<g>
	<g>
		<path class="st2" d="M998.7,477.3L990,469l-8.6,8.3l-8.6-8.3l-8.6,8.3l-12.1-11.8v-67.6h94v67.6l-12.1,11.8l-8.6-8.3l-8.6,8.3
			l-8.6-8.3L998.7,477.3z M958.5,462.8l5.4,5.1l8.6-8.3l8.6,8.3l8.6-8.3l8.6,8.3l8.6-8.3l8.6,8.3l8.6-8.3l8.6,8.3l5.4-5.1v-57.9
			h-80.5v57.9H958.5z"/>
	</g>
	<g>
		<rect x="972.5" y="414.6" class="st2" width="36.6" height="6.7"/>
	</g>
	<g>
		<rect x="972.5" y="432.4" class="st2" width="52.2" height="4"/>
	</g>
	<g>
		<rect x="972.5" y="442.1" class="st2" width="43.3" height="4"/>
	</g>
	<g>
		<path d="M941,359.9c0-1.6,1.1-3.2,2.4-3.5v0.8c-0.8,0.3-1.3,0.8-1.3,1.9l0,0c0.5,0,1.1,0.5,1.1,1.1c0,0.8-0.5,1.1-1.1,1.1
			C941.6,361.8,941,361.3,941,359.9z M944.5,359.9c0-1.6,1.1-3.2,2.4-3.5v0.8c-0.8,0.3-1.3,0.8-1.3,1.9l0,0c0.5,0,1.1,0.5,1.1,1.1
			c0,0.8-0.5,1.1-1.1,1.1C945.1,361.8,944.5,361.3,944.5,359.9z"/>
		<path d="M949.4,356.4h1.6l3,11c0.5,1.6,0.8,3.2,1.3,5.1c0.5-1.9,0.8-3.5,1.3-5.4l3-11h1.9l3,11c0.5,1.6,0.8,3.2,1.3,5.4
			c0.5-1.9,0.8-3.8,1.3-5.4l3-11h1.6l-4.8,18H965l-2.7-9.2c-0.5-2.2-1.3-4.6-1.9-7c-0.5,2.4-1.1,4.6-1.9,7l-2.7,9.2H954L949.4,356.4
			z"/>
		<path d="M974.7,368.6L974.7,368.6c0,3.2,1.9,5.1,4.3,5.1c2.2,0,3.5-1.1,3.8-2.7h1.3c-0.5,2.4-2.4,4.3-5.4,4.3
			c-3.5,0-5.9-2.4-5.9-6.7c0-4,2.4-7,5.9-7c3.5,0,5.7,2.7,5.7,6.7c0,0.3,0,0.5,0,0.5H983L974.7,368.6z M975,367.2h8.3
			c0-2.7-1.6-4.6-4-4.6C976.8,362.6,975,364.5,975,367.2z"/>
		<path d="M987.9,372.6v-16.2h1.3v15.9c0,0.8,0.5,1.1,1.1,1.1h0.8v1.3H990C989,374.5,987.9,374.2,987.9,372.6z"/>
		<path d="M993,368.3c0-4,2.2-7,5.9-7c2.7,0,4.8,1.6,5.1,4.6h-1.6c-0.3-1.9-1.6-3.2-3.5-3.2c-3.2,0-4.6,2.7-4.6,5.7
			c0,3,1.3,5.4,4.3,5.4c2.2,0,3.5-1.1,3.8-3h1.6c-0.3,2.7-2.4,4.3-5.4,4.3C995.2,375,993,372.1,993,368.3z"/>
		<path d="M1006.5,368c0-3.8,2.4-6.7,5.9-6.7c3.5,0,5.9,3,5.9,6.7s-2.4,6.7-5.9,6.7C1008.9,375,1006.5,372.1,1006.5,368z M1017,368
			c0-3.2-1.9-5.4-4.6-5.4c-2.7,0-4.6,2.4-4.6,5.4c0,3.2,1.6,5.4,4.6,5.4C1015.1,373.4,1017,371.3,1017,368z"/>
		<path d="M1021.5,361.6h1.3v1.6c0.5-1.3,1.9-2.2,3.5-2.2c1.9,0,3.2,0.8,3.8,2.4c0.8-1.9,2.4-2.4,4-2.4c3,0,4.6,1.9,4.6,5.1v8.3
			h-1.3v-8.1c0-2.4-1.1-4-3.2-4c-1.9,0-3.2,1.6-3.2,4v8.1h-1.3v-8.1c0-2.4-1.1-4-3.2-4c-1.9,0-3.2,1.6-3.2,3.8v8.3h-1.3v-12.9
			H1021.5z"/>
		<path d="M1043.6,368.6L1043.6,368.6c0,3.2,1.9,5.1,4.3,5.1c2.2,0,3.5-1.1,3.8-2.7h1.3c-0.5,2.4-2.4,4.3-5.4,4.3
			c-3.5,0-5.9-2.4-5.9-6.7c0-4,2.4-7,5.9-7c3.5,0,5.7,2.7,5.7,6.7c0,0.3,0,0.5,0,0.5h-1.3L1043.6,368.6z M1043.6,367.2h8.3
			c0-2.7-1.6-4.6-4-4.6C1045.5,362.6,1043.9,364.5,1043.6,367.2z"/>
		<path d="M1057.9,358.3c0,1.6-1.1,3.2-2.4,3.5V361c0.8-0.3,1.3-0.8,1.3-1.9l0,0c-0.5,0-1.1-0.5-1.1-1.1c0-0.8,0.5-1.1,1.1-1.1
			C1057.3,356.7,1057.9,357,1057.9,358.3z M1061.4,358.3c0,1.6-1.1,3.2-2.4,3.5V361c0.8-0.3,1.3-0.8,1.3-1.9l0,0
			c-0.5,0-1.1-0.5-1.1-1.1c0-0.8,0.5-1.1,1.1-1.1C1060.8,356.7,1061.4,357,1061.4,358.3z"/>
	</g>
</g>
<g>
	<g>
		<path class="st3" d="M1330.5,168.3c-1.3-1.1-3.2-1.9-5.1-1.9c-0.5,0-1.3,0-2.2,0.3c-6.5,1.6-11.6,7.5-11.8,14c0,2.7,1.1,5.1,3,6.7
			s4.6,2.2,7,1.6c6.5-1.6,11.6-7.5,11.8-14C1333.4,172.4,1332.4,170,1330.5,168.3z"/>
	</g>
	<g>
		<path class="st3" d="M1282.3,152.2v-3.5h-6.7V237h6.7v-31.8c28.3,7,55.5-10,83.7-1.1c0-17.5,0-35.3,0-52.8
			C1337.8,142.2,1310.8,159.5,1282.3,152.2z M1323.5,195.5L1323.5,195.5c-1.1,0.3-2.4,0.5-3.5,0.5c-3.5,0-6.7-1.1-9.4-3.2
			c-3.8-3-5.7-7.3-5.7-12.1c0.3-9.4,7.3-18,17-20.5c4.6-1.1,9.4,0,12.9,3c3.8,3,5.7,7.3,5.7,12.1
			C1340.2,184.5,1332.9,193.1,1323.5,195.5z"/>
	</g>
	<g>
		<g>
			<path d="M1251.2,80.8c0-5.4,3-9.4,8.3-9.4c4.6,0,7,3,7.3,6.5h-1.6c-0.3-2.7-2.7-4.8-5.9-4.8c-4.6,0-6.7,3.8-6.7,8.1
				s2.2,7.8,6.7,7.8c3.5,0,5.4-2.4,5.9-4.6h1.6c-0.5,3.2-3,6.2-7.3,6.2C1254.4,90.3,1251.2,86.5,1251.2,80.8z"/>
			<path d="M1270,71.7h1.3v6.7c0.8-1.3,2.2-2.2,3.8-2.2c3.2,0,4.8,1.9,4.8,5.1v8.3h-1.3v-7.8c0-2.4-1.3-4-3.8-4
				c-1.3,0-2.7,0.8-3.2,2.2c-0.3,0.5-0.3,1.3-0.3,2.2V90h-1.3L1270,71.7L1270,71.7z"/>
			<path d="M1283.2,86.5c0-2.4,1.9-3.5,4.3-4l3-0.5c1.1-0.3,1.3-0.5,1.3-1.3c0-1.6-0.8-2.7-3.2-2.7c-2.4,0-3.2,1.1-3.5,2.7h-1.6
				c0-2.4,1.6-4.3,4.8-4.3c3,0,4.8,1.1,4.8,4.3v6.7c0,0.8,0.3,0.8,0.8,0.8h0.5v1.3h-1.3c-0.8,0-1.3-0.5-1.3-1.3v-0.8
				c-0.8,1.6-2.4,2.4-4.8,2.4C1284.9,90.3,1283.2,88.9,1283.2,86.5z M1291.9,85.1v-2.4c-0.3,0.3-0.8,0.5-1.3,0.5l-2.4,0.5
				c-2.2,0.5-3.2,1.1-3.2,2.7c0,1.3,1.1,2.4,2.7,2.4C1290,88.9,1291.9,87.3,1291.9,85.1z"/>
			<path d="M1297.5,76.8h1.3V79c0.8-1.6,2.2-2.4,4-2.4c3.2,0,4.8,1.9,4.8,5.4V90h-1.3v-7.8c0-2.7-1.3-4.3-3.5-4.3
				c-2.2,0-3.8,1.9-3.8,4.3v7.5h-1.3V76.8H1297.5z"/>
			<path d="M1322.3,76.8V90c0,3.5-1.3,5.1-4.8,5.1h-4.8v-1.3h4.6c2.7,0,3.8-1.3,3.8-4v-1.9c-1.1,1.6-2.4,2.4-4.3,2.4
				c-3.5,0-5.7-2.7-5.7-6.7c0-4,2.2-7,5.7-7c1.9,0,3.5,0.8,4.3,2.4v-2.2L1322.3,76.8L1322.3,76.8z M1320.9,83.3
				c0-3.2-1.6-5.4-4.3-5.4c-2.7,0-4.3,2.2-4.3,5.4c0,3.2,1.6,5.4,4.3,5.4C1319,88.6,1320.9,86.5,1320.9,83.3z"/>
			<path d="M1327.1,83.8L1327.1,83.8c0,3.2,1.9,5.1,4.3,5.1c2.2,0,3.5-1.1,3.8-2.7h1.3c-0.5,2.4-2.4,4.3-5.4,4.3
				c-3.5,0-5.9-2.4-5.9-6.7c0-4,2.4-7,5.9-7c3.5,0,5.7,2.7,5.7,6.7c0,0.3,0,0.5,0,0.5h-1.3L1327.1,83.8z M1327.1,82.5h8.3
				c0-2.7-1.6-4.6-4-4.6S1327.4,79.8,1327.1,82.5z"/>
			<path d="M1346.5,87.8V71.7h1.3v15.9c0,0.8,0.5,1.1,1.1,1.1h0.8V90h-1.1C1347.6,90,1346.5,89.5,1346.5,87.8z"/>
			<path d="M1353.2,83.8L1353.2,83.8c0,3.2,1.9,5.1,4.3,5.1c2.2,0,3.5-1.1,3.8-2.7h1.3c-0.5,2.4-2.4,4.3-5.4,4.3
				c-3.5,0-5.9-2.4-5.9-6.7c0-4,2.4-7,5.9-7c3.5,0,5.7,2.7,5.7,6.7c0,0.3,0,0.5,0,0.5h-1.3L1353.2,83.8z M1353.2,82.5h8.3
				c0-2.7-1.6-4.6-4-4.6C1355.1,77.9,1353.5,79.8,1353.2,82.5z"/>
			<path d="M1365.4,86.5c0-2.4,1.9-3.5,4.3-4l3-0.5c1.1-0.3,1.3-0.5,1.3-1.3c0-1.6-0.8-2.7-3.2-2.7c-2.4,0-3.2,1.1-3.5,2.7h-1.6
				c0-2.4,1.6-4.3,4.8-4.3c3,0,4.8,1.1,4.8,4.3v6.7c0,0.8,0.3,0.8,0.8,0.8h0.5v1.3h-1.3c-0.8,0-1.3-0.5-1.3-1.3v-0.8
				c-0.8,1.6-2.4,2.4-4.8,2.4C1366.7,89.7,1365.4,88.9,1365.4,86.5z M1374,85.1v-2.4c-0.3,0.3-0.8,0.5-1.3,0.5l-2.4,0.5
				c-2.2,0.5-3.2,1.1-3.2,2.7c0,1.3,1.1,2.4,2.7,2.4C1372.1,88.9,1374,87.3,1374,85.1z"/>
			<path d="M1390.4,71.7v18h-1.3v-2.2c-0.8,1.3-2.4,2.4-4.3,2.4c-3.8,0-5.7-3-5.7-6.7c0-4,2.2-6.7,5.7-6.7c1.9,0,3.2,0.8,4.3,2.4
				v-7.3H1390.4z M1389,83c0-3-1.9-5.1-4.3-5.1c-2.7,0-4.3,2.2-4.3,5.4c0,3,1.6,5.4,4.3,5.4c2.7,0,4.3-2.4,4.3-5.1V83z"/>
		</g>
		<g>
			<path d="M1234.3,116.4h1.6c0,1.9,1.3,3,3.5,3c1.9,0,3.5-0.8,3.5-2.2c0-1.1-0.8-1.6-2.4-2.2l-2.2-0.8c-1.9-0.5-3.5-1.3-3.5-3.5
				s1.9-3.5,4.6-3.5s4.8,1.1,4.8,4.3h-1.6c0-1.9-1.3-2.7-3.2-2.7c-2.2,0-3,1.1-3,2.2c0,1.3,0.8,1.6,2.4,2.2l2.4,0.8
				c2.2,0.8,3.2,1.6,3.2,3.5c0,2.7-2.4,3.8-4.8,3.8C1236.5,120.7,1234.3,119.3,1234.3,116.4z"/>
			<path d="M1248.1,117.7v-9.2h-2.4v-1.3h2.4v-3.8h1.3v3.8h3.2v1.3h-3.2v8.9c0,1.3,0.5,1.6,1.9,1.6h1.6v1.3h-2.2
				C1249.4,120.1,1248.1,119.9,1248.1,117.7z"/>
			<path d="M1254.5,116.9c0-2.4,1.9-3.5,4.3-4l3-0.5c1.1-0.3,1.3-0.5,1.3-1.3c0-1.6-0.8-2.7-3.2-2.7c-2.4,0-3.2,1.1-3.5,2.7h-1.6
				c0-2.4,1.6-4.3,4.8-4.3c3,0,4.8,1.1,4.8,4.3v6.7c0,0.8,0.3,0.8,0.8,0.8h0.5v1.3h-1.3c-0.8,0-1.3-0.5-1.3-1.3v-0.8
				c-0.8,1.6-2.4,2.4-4.8,2.4C1256.4,120.7,1254.5,119.3,1254.5,116.9z M1263.4,115.6v-2.4c-0.3,0.3-0.8,0.5-1.3,0.5l-2.4,0.5
				c-2.2,0.5-3.2,1.1-3.2,2.7c0,1.3,1.1,2.4,2.7,2.4C1261.3,119.3,1263.4,117.5,1263.4,115.6z"/>
			<path d="M1269.9,117.7v-9.2h-2.4v-1.3h2.4v-3.8h1.3v3.8h3.2v1.3h-3.2v8.9c0,1.3,0.5,1.6,1.9,1.6h1.6v1.3h-2.2
				C1270.9,120.1,1269.9,119.9,1269.9,117.7z"/>
			<path d="M1277.1,115.6v-8.3h1.3v8.1c0,2.7,1.6,3.8,3.5,3.8c2.4,0,3.8-1.9,3.8-4v-7.8h1.3v12.9h-1.3v-1.6c-0.5,1.1-2.2,2.2-4,2.2
				C1278.8,120.7,1277.1,118.8,1277.1,115.6z"/>
			<path d="M1290.3,116.4h1.6c0,1.9,1.3,3,3.5,3c1.9,0,3.5-0.8,3.5-2.2c0-1.1-0.8-1.6-2.4-2.2l-2.2-0.8c-1.9-0.5-3.5-1.3-3.5-3.5
				s1.9-3.5,4.6-3.5c2.7,0,4.8,1.1,4.8,4.3h-1.6c0-1.9-1.3-2.7-3.2-2.7c-2.2,0-3,1.1-3,2.2c0,1.3,0.8,1.6,2.4,2.2l2.4,0.8
				c2.2,0.8,3.2,1.6,3.2,3.5c0,2.7-2.4,3.8-4.8,3.8C1292.5,120.7,1290.3,119.3,1290.3,116.4z"/>
			<path d="M1310.5,117.7v-9.2h-2.4v-1.3h2.4v-3.8h1.3v3.8h3.2v1.3h-3.2v8.9c0,1.3,0.5,1.6,1.9,1.6h1.6v1.3h-2.2
				C1311.6,120.1,1310.5,119.9,1310.5,117.7z"/>
			<path d="M1317,113.7c0-3.8,2.4-6.7,5.9-6.7c3.5,0,5.9,3,5.9,6.7c0,3.8-2.4,6.7-5.9,6.7C1319.4,120.7,1317,117.7,1317,113.7z
				 M1327.5,113.7c0-3.2-1.9-5.4-4.6-5.4c-2.7,0-4.6,2.4-4.6,5.4c0,3.2,1.6,5.4,4.6,5.4C1325.6,119.3,1327.5,116.9,1327.5,113.7z"/>
			<path class="st3" d="M1336.2,116.6h1.6c0,1.9,1.3,3,3.5,3c1.9,0,3.5-0.8,3.5-2.2c0-1.1-0.8-1.6-2.4-2.2l-2.2-0.8
				c-1.9-0.5-3.5-1.3-3.5-3.5c0-2.2,1.9-3.5,4.6-3.5s4.8,1.1,4.8,4.3h-1.6c0-1.9-1.3-2.7-3.2-2.7c-2.2,0-3,1.1-3,2.2
				c0,1.3,0.8,1.6,2.4,2.2l2.4,0.8c2.2,0.8,3.2,1.6,3.2,3.5c0,2.7-2.4,3.8-4.8,3.8C1338.3,121,1336.2,119.6,1336.2,116.6z"/>
			<path class="st3" d="M1350.2,118v-9.2h-2.4v-1.3h2.4v-3.8h1.3v3.8h3.2v1.3h-3.2v8.9c0,1.3,0.5,1.6,1.9,1.6h1.6v1.3h-2.2
				C1351.3,120.4,1350.2,120.1,1350.2,118z"/>
			<path class="st3" d="M1356.6,117.2c0-2.4,1.9-3.5,4.3-4l3-0.5c1.1-0.3,1.3-0.5,1.3-1.3c0-1.6-0.8-2.7-3.2-2.7
				c-2.4,0-3.2,1.1-3.5,2.7h-1.6c0-2.4,1.6-4.3,4.8-4.3c3,0,4.8,1.1,4.8,4.3v6.7c0,0.8,0.3,0.8,0.8,0.8h0.5v1.3h-1.3
				c-0.8,0-1.3-0.5-1.3-1.3V118c-0.8,1.6-2.4,2.4-4.8,2.4C1358,120.4,1356.6,119.6,1356.6,117.2z M1365.3,115.8v-2.4
				c-0.3,0.3-0.8,0.5-1.3,0.5l-2.4,0.5c-2.2,0.5-3.2,1.1-3.2,2.7c0,1.3,1.1,2.4,2.7,2.4C1363.4,119.3,1365.3,117.7,1365.3,115.8z"/>
			<path class="st3" d="M1370.9,118.5v-16.2h1.3v15.9c0,0.8,0.5,1.1,1.1,1.1h0.8v1.3h-1.1C1372,120.4,1370.9,120.1,1370.9,118.5z"/>
			<path class="st3" d="M1376.8,118.5v-16.2h1.3v15.9c0,0.8,0.5,1.1,1.1,1.1h0.8v1.3h-1.1C1377.9,120.4,1376.8,120.1,1376.8,118.5z"
				/>
			<path class="st3" d="M1383.6,114.5L1383.6,114.5c0,3.2,1.9,5.1,4.3,5.1c2.2,0,3.5-1.1,3.8-2.7h1.3c-0.5,2.4-2.4,4.3-5.4,4.3
				c-3.5,0-5.9-2.4-5.9-6.7c0-4,2.4-7,5.9-7c3.5,0,5.7,2.7,5.7,6.7c0,0.3,0,0.5,0,0.5h-1.3L1383.6,114.5z M1383.6,113.1h8.3
				c0-2.7-1.6-4.6-4-4.6S1383.8,110.5,1383.6,113.1z"/>
			<path class="st3" d="M1407.3,102.4v18h-1.3v-2.2c-0.8,1.3-2.4,2.4-4.3,2.4c-3.8,0-5.7-3-5.7-6.7c0-4,2.2-6.7,5.7-6.7
				c1.9,0,3.2,0.8,4.3,2.4v-7.3H1407.3z M1405.6,113.7c0-3-1.9-5.1-4.3-5.1c-2.7,0-4.3,2.2-4.3,5.4c0,3,1.6,5.4,4.3,5.4
				s4.3-2.4,4.3-5.1V113.7z"/>
		</g>
	</g>
</g>
<g>
	<g>
		<rect x="708.5" y="240.8" class="st4" width="52.2" height="4"/>
	</g>
	<g>
		<rect x="708.5" y="250.5" class="st4" width="43.3" height="4"/>
	</g>
	<g>
		<path class="st4" d="M734.9,285.7l-8.9-8.6l-8.6,8.3l-8.6-8.3l-8.6,8.3L688,273.6V206h94v67.6l-12.1,11.8l-8.9-8.3l-8.6,8.3
			l-8.6-8.3L734.9,285.7z M694.5,270.9l5.4,5.1l8.6-8.3l8.6,8.3l8.6-8.3l8.6,8.3l8.6-8.3l8.6,8.3l8.6-8.3l8.6,8.3l5.4-5.1V213h-80.5
			v57.9H694.5z"/>
	</g>
	<g>
		<rect x="708.5" y="223" class="st4" width="36.6" height="6.7"/>
	</g>
</g>
<g>
	<path d="M688.3,160.1c0-1.6,1.1-3.2,2.4-3.5v0.8c-0.8,0.3-1.3,0.8-1.3,1.9l0,0c0.5,0,1.1,0.5,1.1,1.1c0,0.8-0.5,1.1-1.1,1.1
		C688.8,162,688.3,161.4,688.3,160.1z M691.8,160.1c0-1.6,1.1-3.2,2.4-3.5v0.8c-0.8,0.3-1.3,0.8-1.3,1.9l0,0c0.5,0,1.1,0.5,1.1,1.1
		c0,0.8-0.5,1.1-1.1,1.1C692.3,162,691.8,161.4,691.8,160.1z"/>
	<path d="M787.9,158.1c0,1.6-1.1,3.2-2.4,3.5v-0.8c0.8-0.3,1.3-0.8,1.3-1.9l0,0c-0.5,0-1.1-0.5-1.1-1.1c0-0.8,0.5-1.1,1.1-1.1
		C787.3,156.3,787.9,156.8,787.9,158.1z M784.4,158.1c0,1.6-1.1,3.2-2.4,3.5v-0.8c0.8-0.3,1.3-0.8,1.3-1.9l0,0
		c-0.5,0-1.1-0.5-1.1-1.1c0-0.8,0.5-1.1,1.1-1.1C783.8,156.3,784.4,156.8,784.4,158.1z"/>
	<path d="M698.3,156.6h1.6l10.8,15.3v-15.3h1.6v18h-1.6l-10.8-15.3v15.3h-1.6V156.6z"/>
	<path d="M716.6,170v-8.3h1.3v8.1c0,2.7,1.6,3.8,3.5,3.8c2.4,0,3.8-1.9,3.8-4v-7.8h1.3v12.9h-1.3V173c-0.5,1.1-2.2,2.2-4,2.2
		C718.4,175.2,716.6,173.3,716.6,170z"/>
	<path d="M730.8,161.7h1.3v2.2c0.5-1.3,1.9-2.2,3.8-2.2h1.1v1.3h-1.1c-1.9,0-3.5,1.1-3.5,4.3v7.3h-1.3v-12.9H730.8z"/>
	<path d="M740.3,172.2V163h-2.4v-1.3h2.4v-3.8h1.3v3.8h3.2v1.3h-3.2v8.9c0,1.3,0.5,1.6,1.9,1.6h1.6v1.3h-2.2
		C741.3,174.6,740.3,174.4,740.3,172.2z"/>
	<path d="M747.5,170v-8.3h1.3v8.1c0,2.7,1.6,3.8,3.5,3.8c2.4,0,3.8-1.9,3.8-4v-7.8h1.3v12.9h-1.3V173c-0.5,1.1-2.2,2.2-4,2.2
		C749.4,175.2,747.5,173.3,747.5,170z"/>
	<path d="M761.8,161.7h1.3v2.2c0.5-1.3,1.9-2.2,3.8-2.2h1.1v1.3h-1.1c-1.9,0-3.5,1.1-3.5,4.3v7.3h-1.3v-12.9H761.8z"/>
	<path d="M770.4,168.7L770.4,168.7c0,3.2,1.9,5.1,4.3,5.1c2.2,0,3.5-1.1,3.8-2.7h1.3c-0.5,2.4-2.4,4.3-5.4,4.3
		c-3.5,0-5.9-2.4-5.9-6.7c0-4,2.4-7,5.9-7c3.5,0,5.7,2.7,5.7,6.7c0,0.3,0,0.5,0,0.5h-1.3L770.4,168.7z M770.4,167.4h8.3
		c0-2.7-1.6-4.6-4-4.6C772.3,162.8,770.7,164.7,770.4,167.4z"/>
</g>
<g>
	<g>
		<path class="st5" d="M592.2,284.9h-3.5v-78.1h3.5c21.5,0,39,17.5,39,39S613.7,284.9,592.2,284.9z M595.7,213.8v64.1
			c16.2-1.6,28.8-15.3,28.8-32S611.8,215.7,595.7,213.8z"/>
	</g>
	<g>
		<path d="M606.2,136.8c2.4-1.6,4-3.2,4-5.4c0-2.2-1.3-3.5-3.8-3.5c-3,0-4,1.9-4,4.8h-1.6c0-4,2.2-6.2,5.7-6.2
			c3.2,0,5.4,1.9,5.4,4.8c0,3-2.4,4.8-5.4,6.7c-2.2,1.3-3.8,3-4,4.6h9.7v1.3h-11.6C600.5,141.2,602.4,139.3,606.2,136.8z"/>
		<path d="M592.7,156.5v18h-1.3v-2.2c-0.8,1.3-2.4,2.4-4.3,2.4c-3.8,0-5.7-3-5.7-6.7c0-4,2.2-6.7,5.7-6.7c1.9,0,3.2,0.8,4.3,2.4
			v-7.3H592.7z M591.4,167.8c0-3-1.9-5.1-4.3-5.1c-2.7,0-4.3,2.2-4.3,5.4c0,3,1.6,5.4,4.3,5.4c2.7,0,4.3-2.4,4.3-5.1V167.8z"/>
		<path d="M595.9,171.3c0-2.4,1.9-3.5,4.3-4l3-0.5c1.1-0.3,1.3-0.5,1.3-1.3c0-1.6-0.8-2.7-3.2-2.7s-3.2,1.1-3.5,2.7h-1.6
			c0-2.4,1.6-4.3,4.8-4.3c3,0,4.8,1.1,4.8,4.3v6.7c0,0.8,0.3,0.8,0.8,0.8h0.5v1.3h-1.3c-0.8,0-1.3-0.5-1.3-1.3v-0.8
			c-0.8,1.6-2.4,2.4-4.8,2.4C597.8,175.1,595.9,173.7,595.9,171.3z M604.6,170v-2.4c-0.3,0.3-0.8,0.5-1.3,0.5l-2.4,0.5
			c-2.2,0.5-3.2,1.1-3.2,2.7c0,1.3,1.1,2.4,2.7,2.4C602.7,173.5,604.6,171.8,604.6,170z"/>
		<path d="M609.4,178.6h1.9c0.8,0,1.3-0.3,1.6-1.1c0.3-0.5,0.5-1.1,0.5-1.3c0-0.5-0.3-0.8-0.5-1.6l-4.6-12.9h1.6l2.4,7l1.9,5.4
			l1.6-5.7l2.2-7h1.6l-5.1,15.6c-0.5,1.9-1.6,2.7-3.2,2.7h-2.2v-1.1H609.4z"/>
		<path d="M621.3,170.8h1.6c0,1.9,1.3,3,3.5,3c1.9,0,3.5-0.8,3.5-2.2c0-1.1-0.8-1.6-2.4-2.2l-2.2-0.8c-1.9-0.5-3.5-1.3-3.5-3.5
			s1.9-3.5,4.6-3.5s4.8,1.1,4.8,4.3h-1.6c0-1.9-1.3-2.7-3.2-2.7c-2.2,0-3,1.1-3,2.2c0,1.3,0.8,1.6,2.4,2.2l2.4,0.8
			c2.2,0.8,3.2,1.6,3.2,3.5c0,2.7-2.4,3.8-4.8,3.8C623.4,175.1,621.3,173.7,621.3,170.8z"/>
	</g>
</g>
<g>
	<g>
		<path class="st5" d="M842,284.9h-3.5v-78.1h3.5c21.5,0,39,17.5,39,39S863.6,284.9,842,284.9z M845.5,213.8v64.1
			c16.2-1.6,28.8-15.3,28.8-32C874.3,229.2,861.7,215.7,845.5,213.8z"/>
	</g>
	<g>
		<path d="M859,136.8c2.4-1.6,4-3.2,4-5.4c0-2.2-1.3-3.5-3.8-3.5c-3,0-4,1.9-4,4.8h-1.6c0-4,2.2-6.2,5.7-6.2c3.2,0,5.4,1.9,5.4,4.8
			c0,3-2.4,4.8-5.4,6.7c-2.2,1.3-3.8,3-4,4.6h9.7v1.3h-11.6C853.6,141.2,855.5,139.3,859,136.8z"/>
		<path d="M845.8,156.5v18h-1.3v-2.2c-0.8,1.3-2.4,2.4-4.3,2.4c-3.8,0-5.7-3-5.7-6.7c0-4,2.2-6.7,5.7-6.7c1.9,0,3.2,0.8,4.3,2.4
			v-7.3H845.8z M844.2,167.8c0-3-1.9-5.1-4.3-5.1c-2.7,0-4.3,2.2-4.3,5.4c0,3,1.6,5.4,4.3,5.4c2.7,0,4.3-2.4,4.3-5.1V167.8z"/>
		<path d="M848.8,171.3c0-2.4,1.9-3.5,4.3-4l3-0.5c1.1-0.3,1.3-0.5,1.3-1.3c0-1.6-0.8-2.7-3.2-2.7s-3.2,1.1-3.5,2.7H849
			c0-2.4,1.6-4.3,4.8-4.3c3,0,4.8,1.1,4.8,4.3v6.7c0,0.8,0.3,0.8,0.8,0.8h0.5v1.3h-1.3c-0.8,0-1.3-0.5-1.3-1.3v-0.8
			c-0.8,1.6-2.4,2.4-4.8,2.4C850.6,175.1,848.8,173.7,848.8,171.3z M857.4,170v-2.4c-0.3,0.3-0.8,0.5-1.3,0.5l-2.4,0.5
			c-2.2,0.5-3.2,1.1-3.2,2.7c0,1.3,1.1,2.4,2.7,2.4C855.5,173.5,857.4,171.8,857.4,170z"/>
		<path d="M862.5,178.6h1.9c0.8,0,1.3-0.3,1.6-1.1c0.3-0.5,0.5-1.1,0.5-1.3c0-0.5-0.3-0.8-0.5-1.6l-4.6-12.9h1.6l2.4,7l1.9,5.4
			l1.6-5.7l2.2-7h1.6l-5.1,15.6c-0.5,1.9-1.6,2.7-3.2,2.7h-2.2v-1.1H862.5z"/>
		<path d="M874.3,170.8h1.6c0,1.9,1.3,3,3.5,3c1.9,0,3.5-0.8,3.5-2.2c0-1.1-0.8-1.6-2.4-2.2l-2.2-0.8c-1.9-0.5-3.5-1.3-3.5-3.5
			s1.9-3.5,4.6-3.5s4.8,1.1,4.8,4.3h-1.6c0-1.9-1.3-2.7-3.2-2.7c-2.2,0-3,1.1-3,2.2c0,1.3,0.8,1.6,2.4,2.2l2.4,0.8
			c2.2,0.8,3.2,1.6,3.2,3.5c0,2.7-2.4,3.8-4.8,3.8C876.5,175.1,874.3,173.7,874.3,170.8z"/>
	</g>
</g>
<g class="st6">
	<g>
		<rect x="349.7" y="435.6" class="st7" width="61.1" height="4.3"/>
	</g>
	<g>
		<rect x="1045.8" y="435.6" class="st7" width="61.1" height="4.3"/>
	</g>
	<polygon class="st7" points="183.6,418.5 180.6,421.8 193.5,433.8 151.1,433.8 151.1,242.1 147.1,242.1 147.1,438.1 193.7,438.1 
		180.6,450 183.6,453.3 202.1,436 	"/>
	<polygon class="st7" points="1339.6,254.5 1322.1,235.9 1304.9,254.5 1308.1,257.4 1320.1,244.3 1320.1,433.8 1275.1,433.8 
		1275.1,438.1 1324.1,438.1 1324.1,244.2 1336.4,257.4 	"/>
	<polygon class="st7" points="549.4,228.2 546.5,231.5 559.6,243.6 464.7,243.6 464.7,292.6 469,292.6 469,247.7 559.7,247.7 
		546.5,259.7 549.4,263 568,245.7 	"/>
	<polygon class="st7" points="1013.2,277.3 1001.3,290.3 1001.3,243.6 904.2,243.6 904.2,247.7 997,247.7 997,290.3 984.9,277.3 
		981.7,280.2 999.2,298.8 1016.4,280.2 	"/>
	<g>
		<rect x="631.2" y="243.7" class="st7" width="56.8" height="4.3"/>
	</g>
	<g>
		<rect x="781.7" y="243.7" class="st7" width="56.8" height="4.3"/>
	</g>
</g>
<polygon class="st8" points="1163.2,553.9 1163.2,504.5 1159.3,504.5 1159.3,550 732.9,550 467.3,550.1 467.3,504.5 463.1,504.5 
	463.1,550.1 463.1,552.1 463.1,554 811.1,554 811.1,707.8 799.7,695.3 796.5,698.1 813.2,716.1 829.8,698.1 827,695.3 815.3,707.9 
	815.3,554 "/>
<g>
	<g>
		<path class="st9" d="M465.8,403.6l-59.2,34.2l59.2,34.2l59.2-34.2L465.8,403.6z M462.3,413.3v48.5l-42-24.2L462.3,413.3z"/>
	</g>
	<g>
		<path d="M433.4,326h6.5c5.1,0,9.2,3.5,9.2,8.9c0,5.4-3.8,9.2-9.2,9.2h-6.2v-18H433.4z M439.1,340.8c3.8,0,6.2-1.6,6.2-5.7
			c0-3.5-2.2-5.7-6.2-5.7h-2.2v11.3L439.1,340.8L439.1,340.8z"/>
		<path d="M456.9,341.6c1.3,0,2.2-0.5,2.4-1.6h3.2c-0.3,2.7-2.7,4.3-5.7,4.3c-3.8,0-6.2-2.4-6.2-6.7s2.7-7,6.2-7s5.9,2.4,5.9,6.7
			c0,0.5,0,0.8,0,1.3h-8.9C454.2,340.6,455.3,341.6,456.9,341.6z M454.2,336h5.7c-0.3-1.6-1.1-2.4-2.7-2.4
			C455.5,333.8,454.4,334.4,454.2,336z"/>
		<path d="M465.2,331.1h3.2v1.3c0.5-1.1,1.9-1.9,3.5-1.9c1.6,0,3,0.5,3.5,1.9c1.1-1.3,2.4-1.9,4-1.9c2.7,0,4.8,1.9,4.8,5.4v8.1h-3.2
			v-7.5c0-1.9-0.8-2.7-2.2-2.7c-1.6,0-2.2,1.3-2.2,3v7.3h-3.2v-7.5c0-1.9-0.8-2.7-2.2-2.7c-1.6,0-2.2,1.3-2.2,3v7.3h-4V331.1z"/>
		<path d="M486.5,337.6c0-3.8,2.4-7,6.5-7c4,0,6.5,3,6.5,7c0,3.8-2.4,7-6.5,7C488.9,344.6,486.5,341.6,486.5,337.6z M495.9,337.6
			c0-2.4-1.1-3.8-3-3.8s-3,1.3-3,3.8s1.1,3.8,3,3.8C494.6,341.4,495.9,340,495.9,337.6z"/>
		<path d="M408.7,361.6h3.2v1.6c0.8-1.3,2.2-1.6,3.5-1.6h1.3v3.2h-1.3c-1.9,0-3,1.3-3,3.5v6.7h-3.8V361.6z"/>
		<path d="M423.5,372.1c1.3,0,2.2-0.5,2.4-1.6h3.2c-0.3,2.7-2.7,4.3-5.7,4.3c-3.8,0-6.2-2.4-6.2-6.7s2.7-7,6.2-7
			c3.5,0,5.9,2.4,5.9,6.7c0,0.5,0,0.8,0,1.3h-8.9C420.8,371,421.9,372.1,423.5,372.1z M420.8,366.4h5.7c-0.3-1.6-1.1-2.4-2.7-2.4
			C422.1,364,421.1,364.8,420.8,366.4z"/>
		<path d="M445.8,377.2v2.7h-2.4c-2.2,0-3.2-1.1-3.2-3v-3.5c-0.8,1.1-1.9,1.6-3.2,1.6c-3.2,0-5.7-2.4-5.7-7c0-4.3,2.4-7,5.7-7
			c1.6,0,2.7,0.5,3.5,1.6v-1.3h3.2v14.5c0,1.1,0.5,1.1,1.1,1.1h1.1V377.2z M440.4,368L440.4,368c0-2.2-1.1-3.8-3-3.8
			c-1.6,0-3,1.6-3,3.8c0,2.4,1.1,3.8,3,3.8C439.1,371.8,440.4,370.4,440.4,368z"/>
		<path d="M446.4,369.6v-8.1h3.2v7.3c0,2.2,0.8,3,2.4,3c1.9,0,2.4-1.6,2.4-3.2v-7h3.2v13.2h-3.2v-1.3c-0.5,1.1-1.9,1.9-3.5,1.9
			C448.3,375,446.4,372.9,446.4,369.6z"/>
		<path d="M466.6,372.1c1.3,0,2.2-0.5,2.4-1.6h3.2c-0.3,2.7-2.7,4.3-5.7,4.3c-3.8,0-6.2-2.4-6.2-6.7s2.7-7,6.2-7
			c3.5,0,5.9,2.4,5.9,6.7c0,0.5,0,0.8,0,1.3h-8.9C463.9,371,464.9,372.1,466.6,372.1z M463.6,366.4h5.7c-0.3-1.6-1.1-2.4-2.7-2.4
			C465.2,364,464.1,364.8,463.6,366.4z"/>
		<path d="M474.1,370.4h3.2c0,1.3,0.8,1.6,2.4,1.6c1.6,0,2.2-0.3,2.2-1.3c0-0.8-0.5-0.8-1.9-1.3l-2.2-0.8c-1.6-0.5-3.2-1.3-3.2-3.8
			c0-3,2.7-4,5.4-4c2.7,0,5.1,1.1,5.1,4.3h-3.2c0-1.1-0.8-1.3-2.2-1.3s-1.9,0.3-1.9,1.1c0,0.5,0.3,0.8,1.3,1.1l2.7,0.8
			c1.9,0.5,3.2,1.6,3.2,3.8c0,3.2-2.7,4.3-5.4,4.3C476.5,375,474.1,373.9,474.1,370.4z"/>
		<path d="M488.6,371v-6.7h-2.4v-3h2.4v-3.8h3.2v3.8h3v3h-3v5.9c0,0.8,0.3,1.3,1.3,1.3h1.6v3h-2.2
			C490.3,374.5,488.6,374.2,488.6,371z"/>
		<path d="M502.6,372.1c1.3,0,2.2-0.5,2.4-1.6h3.2c-0.3,2.7-2.7,4.3-5.7,4.3c-3.8,0-6.2-2.4-6.2-6.7s2.7-7,6.2-7s5.9,2.4,5.9,6.7
			c0,0.5,0,0.8,0,1.3h-8.9C499.9,371,501,372.1,502.6,372.1z M499.9,366.4h5.7c-0.3-1.6-1.1-2.4-2.7-2.4
			C501.3,364,500.2,364.8,499.9,366.4z"/>
		<path d="M522.6,356.4v18h-3.2v-1.3c-0.8,1.1-1.9,1.6-3.5,1.6c-3.2,0-5.7-2.4-5.7-7c0-4.3,2.4-7,5.7-7c1.3,0,2.7,0.5,3.5,1.6v-6.2
			h3.2V356.4z M519.3,368c0-2.2-1.1-3.8-3-3.8c-1.6,0-3,1.6-3,3.8c0,2.4,1.1,3.8,3,3.8S519.3,370.4,519.3,368L519.3,368z"/>
	</g>
</g>
<g>
	<g>
		<path class="st9" d="M1161.8,403.6l-59.2,34.2l59.2,34.2l59.2-34.2L1161.8,403.6z M1158.3,413.3v48.5l-42-24.2L1158.3,413.3z"/>
	</g>
	<g>
		<path d="M1129.5,326h6.5c5.1,0,9.2,3.5,9.2,8.9c0,5.4-3.8,9.2-9.2,9.2h-6.2v-18H1129.5z M1135.2,340.8c3.8,0,6.2-1.6,6.2-5.7
			c0-3.5-2.2-5.7-6.2-5.7h-2.2v11.3L1135.2,340.8L1135.2,340.8z"/>
		<path d="M1152.9,341.6c1.3,0,2.2-0.5,2.4-1.6h3.2c-0.3,2.7-2.7,4.3-5.7,4.3c-3.8,0-6.2-2.4-6.2-6.7s2.7-7,6.2-7
			c3.5,0,5.9,2.4,5.9,6.7c0,0.5,0,0.8,0,1.3h-8.9C1150.2,340.6,1151.3,341.6,1152.9,341.6z M1150.2,336h5.7
			c-0.3-1.6-1.1-2.4-2.7-2.4C1151.6,333.8,1150.5,334.4,1150.2,336z"/>
		<path d="M1161.3,331.1h3.2v1.3c0.5-1.1,1.9-1.9,3.5-1.9s3,0.5,3.5,1.9c1.1-1.3,2.4-1.9,4-1.9c2.7,0,4.8,1.9,4.8,5.4v8.1h-3.2v-7.5
			c0-1.9-0.8-2.7-2.2-2.7c-1.6,0-2.2,1.3-2.2,3v7.3h-3.2v-7.5c0-1.9-0.8-2.7-2.2-2.7c-1.6,0-2.2,1.3-2.2,3v7.3h-4V331.1z"/>
		<path d="M1182.5,337.6c0-3.8,2.4-7,6.5-7c4,0,6.5,3,6.5,7c0,3.8-2.4,7-6.5,7C1185,344.6,1182.5,341.6,1182.5,337.6z M1192,337.6
			c0-2.4-1.1-3.8-3-3.8s-3,1.3-3,3.8s1.1,3.8,3,3.8C1190.6,341.4,1192,340,1192,337.6z"/>
		<path d="M1104.7,361.6h3.2v1.6c0.8-1.3,2.2-1.6,3.5-1.6h1.3v3.2h-1.3c-1.9,0-3,1.3-3,3.5v6.7h-3.8V361.6z"/>
		<path d="M1119.5,372.1c1.3,0,2.2-0.5,2.4-1.6h3.2c-0.3,2.7-2.7,4.3-5.7,4.3c-3.8,0-6.2-2.4-6.2-6.7s2.7-7,6.2-7s5.9,2.4,5.9,6.7
			c0,0.5,0,0.8,0,1.3h-8.9C1116.8,371,1117.9,372.1,1119.5,372.1z M1116.8,366.4h5.7c-0.3-1.6-1.1-2.4-2.7-2.4
			C1118.2,364,1117.1,364.8,1116.8,366.4z"/>
		<path d="M1141.9,377.2v2.7h-2.4c-2.2,0-3.2-1.1-3.2-3v-3.5c-0.8,1.1-1.9,1.6-3.2,1.6c-3.2,0-5.7-2.4-5.7-7c0-4.3,2.4-7,5.7-7
			c1.6,0,2.7,0.5,3.5,1.6v-1.3h3.2v14.5c0,1.1,0.5,1.1,1.1,1.1h1.1V377.2z M1136.5,368L1136.5,368c0-2.2-1.1-3.8-3-3.8
			c-1.6,0-3,1.6-3,3.8c0,2.4,1.1,3.8,3,3.8C1135.2,371.8,1136.5,370.4,1136.5,368z"/>
		<path d="M1142.4,369.6v-8.1h3.2v7.3c0,2.2,0.8,3,2.4,3c1.9,0,2.4-1.6,2.4-3.2v-7h3.2v13.2h-3.2v-1.3c-0.5,1.1-1.9,1.9-3.5,1.9
			C1144.3,375,1142.4,372.9,1142.4,369.6z"/>
		<path d="M1162.6,372.1c1.3,0,2.2-0.5,2.4-1.6h3.2c-0.3,2.7-2.7,4.3-5.7,4.3c-3.8,0-6.2-2.4-6.2-6.7s2.7-7,6.2-7s5.9,2.4,5.9,6.7
			c0,0.5,0,0.8,0,1.3h-8.9C1159.9,371,1161,372.1,1162.6,372.1z M1159.7,366.4h5.7c-0.3-1.6-1.1-2.4-2.7-2.4
			C1161.3,364,1160.2,364.8,1159.7,366.4z"/>
		<path d="M1170.2,370.4h3.2c0,1.3,0.8,1.6,2.4,1.6c1.6,0,2.2-0.3,2.2-1.3c0-0.8-0.5-0.8-1.9-1.3l-2.2-0.8c-1.6-0.5-3.2-1.3-3.2-3.8
			c0-3,2.7-4,5.4-4c2.7,0,5.1,1.1,5.1,4.3h-3.2c0-1.1-0.8-1.3-2.2-1.3c-1.3,0-1.9,0.3-1.9,1.1c0,0.5,0.3,0.8,1.3,1.1l2.7,0.8
			c1.9,0.5,3.2,1.6,3.2,3.8c0,3.2-2.7,4.3-5.4,4.3C1172.6,375,1170.2,373.9,1170.2,370.4z"/>
		<path d="M1184.7,371v-6.7h-2.4v-3h2.4v-3.8h3.2v3.8h3v3h-3v5.9c0,0.8,0.3,1.3,1.3,1.3h1.6v3h-2.2
			C1186.3,374.5,1184.7,374.2,1184.7,371z"/>
		<path d="M1198.7,372.1c1.3,0,2.2-0.5,2.4-1.6h3.2c-0.3,2.7-2.7,4.3-5.7,4.3c-3.8,0-6.2-2.4-6.2-6.7s2.7-7,6.2-7s5.9,2.4,5.9,6.7
			c0,0.5,0,0.8,0,1.3h-8.9C1196,371,1197.1,372.1,1198.7,372.1z M1196,366.4h5.7c-0.3-1.6-1.1-2.4-2.7-2.4
			C1197.3,364,1196.3,364.8,1196,366.4z"/>
		<path d="M1218.6,356.4v18h-3.2v-1.3c-0.8,1.1-1.9,1.6-3.5,1.6c-3.2,0-5.7-2.4-5.7-7c0-4.3,2.4-7,5.7-7c1.3,0,2.7,0.5,3.5,1.6v-6.2
			h3.2V356.4z M1215.4,368c0-2.2-1.1-3.8-3-3.8c-1.6,0-3,1.6-3,3.8c0,2.4,1.1,3.8,3,3.8S1215.4,370.4,1215.4,368L1215.4,368z"/>
	</g>
</g>
</svg>
