<svg id="3f90796c-132d-4541-aeed-ef3a5ae8391f" data-name="592e89c4-40a5-4934-b8e7-a570c6ad1fc2" xmlns="http://www.w3.org/2000/svg" viewBox="0 0 198.1 198.1"><defs><style>.\35 ca4ec25-2441-43a5-a7b2-6c6f38d3a8cd{fill:blue;}</style></defs><title>stamp</title><path class="5ca4ec25-2441-43a5-a7b2-6c6f38d3a8cd" d="M153.39,110.43a3.53,3.53,0,0,0-2.44.94,5.18,5.18,0,0,0-1.48,4,5.25,5.25,0,0,0,1.48,4.08,3.66,3.66,0,0,0,4.89,0,6.29,6.29,0,0,0,0-8.11A3.54,3.54,0,0,0,153.39,110.43Z"/><path class="5ca4ec25-2441-43a5-a7b2-6c6f38d3a8cd" d="M105,116.54a2,2,0,0,0-.86,1.74,2.06,2.06,0,0,0,.65,1.57,2.79,2.79,0,0,0,2,.61,3.67,3.67,0,0,0,2.76-1.07,4.13,4.13,0,0,0,1.17-3v-.78l-3.64.21A4,4,0,0,0,105,116.54Z"/><path class="5ca4ec25-2441-43a5-a7b2-6c6f38d3a8cd" d="M102.1,80.27a3.34,3.34,0,0,0-2.52-1.07,3.29,3.29,0,0,0-2.72,1.26,4.47,4.47,0,0,0-1.05,2.64h7.41A4.14,4.14,0,0,0,102.1,80.27Z"/><path class="5ca4ec25-2441-43a5-a7b2-6c6f38d3a8cd" d="M75.26,110.43a3.53,3.53,0,0,0-2.44.94,5.18,5.18,0,0,0-1.48,4,5.25,5.25,0,0,0,1.48,4.08,3.66,3.66,0,0,0,4.89,0,6.29,6.29,0,0,0,0-8.11A3.54,3.54,0,0,0,75.26,110.43Z"/><path class="5ca4ec25-2441-43a5-a7b2-6c6f38d3a8cd" d="M56.27,85.24v-.78l-3.64.21a4,4,0,0,0-2.05.68,2,2,0,0,0-.86,1.74,2.06,2.06,0,0,0,.65,1.57,2.79,2.79,0,0,0,2,.61A3.67,3.67,0,0,0,55.1,88.2,4.13,4.13,0,0,0,56.27,85.24Z"/><polygon class="5ca4ec25-2441-43a5-a7b2-6c6f38d3a8cd" points="26.2 115.06 32 115.06 29.06 105.93 26.2 115.06"/><path class="5ca4ec25-2441-43a5-a7b2-6c6f38d3a8cd" d="M161.12,84.93a3,3,0,0,0,2.2-.85,2.8,2.8,0,0,0,.87-2.09,2.75,2.75,0,0,0-.84-2.08,3.47,3.47,0,0,0-4.45,0,2.75,2.75,0,0,0-.84,2.08,2.8,2.8,0,0,0,.87,2.09A3,3,0,0,0,161.12,84.93Z"/><path class="5ca4ec25-2441-43a5-a7b2-6c6f38d3a8cd" d="M99,0A99.05,99.05,0,1,0,198.1,99.05,99.05,99.05,0,0,0,99,0Zm37.88,103.23h3.15v3.12h-3.15ZM128.68,72h3.15v3.12h-3.15ZM124.49,88.9h4.76V79.52H125V77.65h6.47V88.9h4.78v1.9H124.49ZM108.76,77.65h4.11V74.24l2.21-.7v4.11h5.51v1.9h-5.51v7.18a2.39,2.39,0,0,0,.61,1.73,2.28,2.28,0,0,0,1.73.64,8.37,8.37,0,0,0,3.33-.88v2a7.21,7.21,0,0,1-3.64.94,4,4,0,0,1-3.16-1.21,4.27,4.27,0,0,1-1.08-3V79.54h-4.11ZM34.21,122l-1.53-4.76H25.52L24,122H21.65l6.06-18.43h2.81L36.6,122Zm1.73-36.79-3.2-8.89V90.8H30.5V72.37h2.86L37,82.66l3.59-10.3h2.83V90.8H41.21V76.27L38,85.21ZM50.17,122H48.22L48,120a3.5,3.5,0,0,1-1.65,1.69,5.06,5.06,0,0,1-2.38.62A4.43,4.43,0,0,1,40.65,121a4.85,4.85,0,0,1-1.27-3.51v-8.66h2.24v8.35q0,3.15,2.91,3.15a3.14,3.14,0,0,0,2.41-1.1,3.94,3.94,0,0,0,1-2.74v-7.64h2.24ZM48.62,90a3.7,3.7,0,0,1-1.17-2.72,4.11,4.11,0,0,1,1.18-2.9A5,5,0,0,1,52.16,83l4.11-.23v-1a2.46,2.46,0,0,0-.68-1.9,3.11,3.11,0,0,0-2.21-.75,3.24,3.24,0,0,0-2.39.81,2.39,2.39,0,0,0-.7,1.53H48.1a3.83,3.83,0,0,1,1.22-2.7,5.48,5.48,0,0,1,4.06-1.46,5.73,5.73,0,0,1,3,.72,4,4,0,0,1,1.68,1.88,4.89,4.89,0,0,1,.39,2v6.37q0,.88.78.88L59.8,89v1.64a3.22,3.22,0,0,1-1.46.31,1.85,1.85,0,0,1-1.4-.57A2,2,0,0,1,56.4,89h-.05a4,4,0,0,1-1.75,1.57,5.76,5.76,0,0,1-2.59.58A4.61,4.61,0,0,1,48.62,90Zm16.94,31.37a7.21,7.21,0,0,1-3.64.94,4,4,0,0,1-3.16-1.21,4.27,4.27,0,0,1-1.08-3v-7.38H53.58v-1.9h4.11v-3.41l2.21-.7v4.11h5.51v1.9H59.89v7.18a2.39,2.39,0,0,0,.61,1.73,2.28,2.28,0,0,0,1.73.64,8.37,8.37,0,0,0,3.33-.88Zm1.13-39.8A8.78,8.78,0,0,0,66.12,85V90.8H63.88V77.65h1.95l.18,2a4,4,0,0,1,1.73-1.73,5.22,5.22,0,0,1,2.43-.58,4.32,4.32,0,0,1,3.74,1.92,5,5,0,0,1,.83,2.86H72.49a2.77,2.77,0,0,0-.7-1.92,2.67,2.67,0,0,0-2.08-.86,2.84,2.84,0,0,0-1.78.64A4,4,0,0,0,66.69,81.55Zm12.7,39.21a5.67,5.67,0,0,1-4.11,1.59,5.73,5.73,0,0,1-4.16-1.59,7.94,7.94,0,0,1,0-10.66,5.74,5.74,0,0,1,4.16-1.59,5.67,5.67,0,0,1,4.11,1.59,7.94,7.94,0,0,1,0,10.66Zm2-33.51V90.8H79.22V72h2.21V84.25l6.29-6.6h2.94l-5,5.23,5.2,7.93h-2.6l-4.13-6.34ZM98.69,122H96.5v-9.33q0-2.21-1.59-2.21a1.74,1.74,0,0,0-1.22.6,4.68,4.68,0,0,0-.78,3.17V122H90.83v-9.18q0-2.37-1.72-2.37-2.05,0-2.05,3.51v8H84.88V108.84h1.79l.21,1.27A3,3,0,0,1,88,109a3.29,3.29,0,0,1,1.75-.46,2.59,2.59,0,0,1,1.64.55,2.71,2.71,0,0,1,.94,1.2,3.38,3.38,0,0,1,3.09-1.74,3,3,0,0,1,2.44,1,3.88,3.88,0,0,1,.83,2.5ZM95.42,89.42a6.91,6.91,0,0,1-1.95-5.15A7.24,7.24,0,0,1,95.42,79a5.69,5.69,0,0,1,4.19-1.69,5.39,5.39,0,0,1,4.06,1.59,7.21,7.21,0,0,1,1.9,5.25v.78H95.73a4.32,4.32,0,0,0,1.33,3.3,3.52,3.52,0,0,0,2.52,1,3.72,3.72,0,0,0,2.42-.78,3.07,3.07,0,0,0,1.09-1.59h2.13a5.28,5.28,0,0,1-2,3.15,5.92,5.92,0,0,1-3.64,1.14A5.78,5.78,0,0,1,95.42,89.42Zm18.79,32.45a3.22,3.22,0,0,1-1.46.31,1.85,1.85,0,0,1-1.4-.57,2,2,0,0,1-.55-1.43h-.05a4,4,0,0,1-1.75,1.57,5.76,5.76,0,0,1-2.59.58,4.61,4.61,0,0,1-3.38-1.16,3.7,3.7,0,0,1-1.17-2.72,4.11,4.11,0,0,1,1.18-2.9,5,5,0,0,1,3.52-1.39l4.11-.23v-1a2.46,2.46,0,0,0-.68-1.9,3.1,3.1,0,0,0-2.21-.75,3.24,3.24,0,0,0-2.39.81,2.39,2.39,0,0,0-.7,1.53h-2.18a3.83,3.83,0,0,1,1.22-2.7,5.48,5.48,0,0,1,4.06-1.46,5.73,5.73,0,0,1,3,.71,4,4,0,0,1,1.68,1.89,4.88,4.88,0,0,1,.39,1.95v6.37q0,.88.78.88l.57-.08Zm14-.52a7.21,7.21,0,0,1-3.64.94,4,4,0,0,1-3.16-1.21,4.27,4.27,0,0,1-1.08-3v-7.38h-4.11v-1.9h4.11v-3.41l2.21-.7v4.11h5.51v1.9h-5.51v7.18a2.39,2.39,0,0,0,.61,1.73,2.28,2.28,0,0,0,1.73.64,8.37,8.37,0,0,0,3.33-.88Zm16.3.65H132.75v-1.9h4.76v-9.39h-4.24v-1.87h6.47V120.1h4.78Zm-.37-42.11a4,4,0,0,0-1.24,1.52,8.25,8.25,0,0,0-.57,3.38v6h-2.24V77.65h2l.18,2a4,4,0,0,1,1.73-1.7,5,5,0,0,1,2.38-.61,4.57,4.57,0,0,1,3.46,1.27A4.94,4.94,0,0,1,151,82.14V90.8h-2.26V82.46q0-3.15-2.89-3.15A2.85,2.85,0,0,0,144.16,79.89Zm13.37,40.86a5.67,5.67,0,0,1-4.11,1.59,5.73,5.73,0,0,1-4.16-1.59,7.94,7.94,0,0,1,0-10.66,5.74,5.74,0,0,1,4.16-1.59,5.67,5.67,0,0,1,4.11,1.59,7.94,7.94,0,0,1,0,10.66Zm-1.24-25.32a3.17,3.17,0,0,1-1-2.31,3.11,3.11,0,0,1,.52-1.77,3.45,3.45,0,0,1,1.35-1.2,2.35,2.35,0,0,1-1.51-2.21,2.73,2.73,0,0,1,1.79-2.55A4.2,4.2,0,0,1,155.92,82a4.45,4.45,0,0,1,1.27-3.2,5.23,5.23,0,0,1,4-1.48,5.77,5.77,0,0,1,3.07.78,2.85,2.85,0,0,1,1.07-1.35,2.9,2.9,0,0,1,1.66-.49,5.6,5.6,0,0,1,.65.05v1.79a3.05,3.05,0,0,0-.49,0,1.71,1.71,0,0,0-1.07.34,1.51,1.51,0,0,0-.57.86,4.34,4.34,0,0,1,.88,2.73,4.51,4.51,0,0,1-1.2,3.12,5.17,5.17,0,0,1-4,1.59,7.12,7.12,0,0,1-2.29-.42,2,2,0,0,0-.77.46,1.1,1.1,0,0,0-.38.77,1,1,0,0,0,.53,1,3.33,3.33,0,0,0,1.42.27h2.89a5.8,5.8,0,0,1,4.29,1.38,3.49,3.49,0,0,1,1,2.57,3.6,3.6,0,0,1-1.12,2.63q-1.59,1.56-5.38,1.56Q157.8,96.94,156.29,95.43ZM172.37,122v-8.35q0-3.15-2.89-3.15a2.85,2.85,0,0,0-1.73.58,4,4,0,0,0-1.24,1.52,8.25,8.25,0,0,0-.57,3.38v6h-2.24V108.84h2l.18,2a4,4,0,0,1,1.73-1.7,5,5,0,0,1,2.38-.61,4.57,4.57,0,0,1,3.46,1.27,4.94,4.94,0,0,1,1.22,3.56V122Z"/><path class="5ca4ec25-2441-43a5-a7b2-6c6f38d3a8cd" d="M165,91.28a6.29,6.29,0,0,0-.65-.36,2.48,2.48,0,0,0-.87-.18l-.84-.05H159a2.62,2.62,0,0,0-1.18.79,1.92,1.92,0,0,0-.48,1.29,1.87,1.87,0,0,0,.55,1.38q.91.91,3.64.91t3.61-.94a1.87,1.87,0,0,0,.6-1.35,2.27,2.27,0,0,0-.16-.87A1.26,1.26,0,0,0,165,91.28Z"/></svg>