<svg id="08589298-9205-4a25-ae8f-201504e5f1c0" data-name="592e89c4-40a5-4934-b8e7-a570c6ad1fc2" xmlns="http://www.w3.org/2000/svg" viewBox="0 0 198.1 198.1"><defs><style>.f34aa75e-66d9-4eed-b73c-455f7a4473da{fill:blue;}</style></defs><title>stamp</title><path class="f34aa75e-66d9-4eed-b73c-455f7a4473da" d="M74.95,94.81a3.29,3.29,0,0,0-2.72,1.26,4.47,4.47,0,0,0-1.05,2.64h7.41a4.14,4.14,0,0,0-1.12-2.83A3.34,3.34,0,0,0,74.95,94.81Z"/><path class="f34aa75e-66d9-4eed-b73c-455f7a4473da" d="M58.39,94.83a3.3,3.3,0,0,0-2.42,1,5.38,5.38,0,0,0-1.4,4,5.5,5.5,0,0,0,1.38,4.06,3.31,3.31,0,0,0,2.44.94A3.22,3.22,0,0,0,60.6,104a6.58,6.58,0,0,0,0-8.32A3.22,3.22,0,0,0,58.39,94.83Z"/><path class="f34aa75e-66d9-4eed-b73c-455f7a4473da" d="M99.05,0a99.05,99.05,0,1,0,99,99.05A99.05,99.05,0,0,0,99.05,0ZM47.88,89.87H43.8v14.61h4.08v1.92H37.38v-1.92h4.08V89.87H37.38V88h10.5ZM64.16,106.4h-2l-.16-1.72a3.71,3.71,0,0,1-1.7,1.51,5.42,5.42,0,0,1-2.33.55,5.08,5.08,0,0,1-3.82-1.53,7.35,7.35,0,0,1-1.9-5.36,7.22,7.22,0,0,1,2-5.46,5.3,5.3,0,0,1,3.74-1.48,5.08,5.08,0,0,1,2.28.52,3.94,3.94,0,0,1,1.6,1.35V87.63h2.21Zm16.77-5.88H71.1a4.32,4.32,0,0,0,1.33,3.3,3.52,3.52,0,0,0,2.52,1,3.72,3.72,0,0,0,2.42-.78,3.07,3.07,0,0,0,1.09-1.59h2.13a5.28,5.28,0,0,1-2,3.15,5.91,5.91,0,0,1-3.64,1.14A5.78,5.78,0,0,1,70.79,105a6.91,6.91,0,0,1-1.95-5.15,7.24,7.24,0,0,1,1.95-5.28A5.69,5.69,0,0,1,75,92.91,5.39,5.39,0,0,1,79,94.49a7.21,7.21,0,0,1,1.9,5.25Zm15.7,5.88H94.37V98.06q0-3.15-2.89-3.15a2.85,2.85,0,0,0-1.73.58A4,4,0,0,0,88.52,97a8.25,8.25,0,0,0-.57,3.38v6H85.71V93.25h2l.18,2a4,4,0,0,1,1.73-1.7A5,5,0,0,1,92,92.91a4.57,4.57,0,0,1,3.46,1.27,4.94,4.94,0,0,1,1.22,3.56Zm25.61-18.77h3.15v3.12h-3.15Zm-9.62,18.12a7.21,7.21,0,0,1-3.64.94,4,4,0,0,1-3.16-1.21,4.27,4.27,0,0,1-1.08-3V95.14h-4.11v-1.9h4.11V89.84l2.21-.7v4.11h5.51v1.9H107v7.18a2.39,2.39,0,0,0,.61,1.73,2.28,2.28,0,0,0,1.73.64,8.36,8.36,0,0,0,3.33-.88Zm17.21.65H118.06v-1.9h4.76V95.12h-4.24V93.25H125V104.5h4.78Zm15-.65a7.21,7.21,0,0,1-3.64.94,4,4,0,0,1-3.16-1.21,4.27,4.27,0,0,1-1.08-3V95.14h-4.11v-1.9H137V89.84l2.21-.7v4.11h5.51v1.9h-5.51v7.18a2.39,2.39,0,0,0,.61,1.73,2.28,2.28,0,0,0,1.73.64,8.36,8.36,0,0,0,3.33-.88Zm11,3.35q-1.14,2.83-3.64,2.83a4.76,4.76,0,0,1-2.37-.49v-1.9a5.46,5.46,0,0,0,1.9.39,2,2,0,0,0,2-1.33l.88-2.21-5.75-13.16h2.73l4.24,10.45,3.93-10.45h2.52Z"/></svg>