<svg id="b7376130-5997-4c03-b726-a152f2c97a11" data-name="592e89c4-40a5-4934-b8e7-a570c6ad1fc2" xmlns="http://www.w3.org/2000/svg" viewBox="0 0 198.1 198.1"><defs><style>.\35 ed6ac1c-62c5-424b-8e50-672782205e0f{fill:blue;}</style></defs><title>stamp</title><polygon class="5ed6ac1c-62c5-424b-8e50-672782205e0f" points="23.6 68.26 29.4 68.26 26.46 59.13 23.6 68.26"/><path class="5ed6ac1c-62c5-424b-8e50-672782205e0f" d="M117.77,95.87a3.34,3.34,0,0,0-2.52-1.07,3.28,3.28,0,0,0-2.72,1.26,4.47,4.47,0,0,0-1.05,2.64h7.41A4.14,4.14,0,0,0,117.77,95.87Z"/><path class="5ed6ac1c-62c5-424b-8e50-672782205e0f" d="M93.9,68.86l-3.64.21a4,4,0,0,0-2.05.68,2,2,0,0,0-.86,1.74A2.06,2.06,0,0,0,88,73.06a2.79,2.79,0,0,0,2,.61,3.67,3.67,0,0,0,2.76-1.07,4.13,4.13,0,0,0,1.17-3Z"/><path class="5ed6ac1c-62c5-424b-8e50-672782205e0f" d="M99.05,131.73a3,3,0,0,0,2.2-.84,2.8,2.8,0,0,0,.87-2.09,2.75,2.75,0,0,0-.84-2.08,3.47,3.47,0,0,0-4.45,0,2.74,2.74,0,0,0-.84,2.08,2.8,2.8,0,0,0,.87,2.09A3,3,0,0,0,99.05,131.73Z"/><path class="5ed6ac1c-62c5-424b-8e50-672782205e0f" d="M69.88,122.52a4.5,4.5,0,0,0-3.41-1.22H63.3v14.17h3.17a4.55,4.55,0,0,0,3.48-1.3A4.26,4.26,0,0,0,71,131.89a22.15,22.15,0,0,0,.23-3.55,19.91,19.91,0,0,0-.26-3.56A4.31,4.31,0,0,0,69.88,122.52Z"/><path class="5ed6ac1c-62c5-424b-8e50-672782205e0f" d="M31.52,129.44l-.48.36a3.55,3.55,0,0,0-1.18,1.29,3.33,3.33,0,0,0-.48,1.65,3,3,0,0,0,1.14,2.44,3.35,3.35,0,0,0,2.11.7,4.78,4.78,0,0,0,4-1.66L32,129.1A4.22,4.22,0,0,0,31.52,129.44Z"/><path class="5ed6ac1c-62c5-424b-8e50-672782205e0f" d="M32.57,126.6l1.51-1a2.74,2.74,0,0,0,1.38-2.42,2.47,2.47,0,0,0-.7-1.75,2.43,2.43,0,0,0-1.85-.74,2.24,2.24,0,0,0-1.66.73,2.3,2.3,0,0,0-.7,1.64,3.29,3.29,0,0,0,.94,2.29Z"/><path class="5ed6ac1c-62c5-424b-8e50-672782205e0f" d="M66.81,104.82a3.54,3.54,0,0,0,2.44-.94,6.29,6.29,0,0,0,0-8.11,3.66,3.66,0,0,0-4.89,0,5.18,5.18,0,0,0-1.48,4,5.25,5.25,0,0,0,1.48,4.08A3.53,3.53,0,0,0,66.81,104.82Z"/><path class="5ed6ac1c-62c5-424b-8e50-672782205e0f" d="M103,138.08a6.3,6.3,0,0,0-.65-.36,2.49,2.49,0,0,0-.87-.18l-.84-.05H96.89a2.62,2.62,0,0,0-1.18.79,1.92,1.92,0,0,0-.48,1.29,1.87,1.87,0,0,0,.55,1.38q.91.91,3.64.91t3.61-.94a1.87,1.87,0,0,0,.6-1.35,2.27,2.27,0,0,0-.16-.87A1.26,1.26,0,0,0,103,138.08Z"/><path class="5ed6ac1c-62c5-424b-8e50-672782205e0f" d="M139.35,63.63a3.53,3.53,0,0,0-2.44.94,5.18,5.18,0,0,0-1.48,4,5.25,5.25,0,0,0,1.48,4.08,3.66,3.66,0,0,0,4.89,0,5.22,5.22,0,0,0,1.48-4.06,5.22,5.22,0,0,0-1.48-4.06A3.54,3.54,0,0,0,139.35,63.63Z"/><path class="5ed6ac1c-62c5-424b-8e50-672782205e0f" d="M144.63,132.14a2,2,0,0,0-.86,1.74,2.06,2.06,0,0,0,.65,1.57,2.79,2.79,0,0,0,2,.61,3.67,3.67,0,0,0,2.76-1.07,4.13,4.13,0,0,0,1.17-3v-.78l-3.64.21A4,4,0,0,0,144.63,132.14Z"/><path class="5ed6ac1c-62c5-424b-8e50-672782205e0f" d="M99,0A99.05,99.05,0,1,0,198.1,99.05,99.05,99.05,0,0,0,99,0Zm23.19,56.43h3.15v3.12h-3.15ZM118.06,73.3h4.76V63.92h-4.24V62h6.47V73.3h4.78v1.9H118.06ZM57.76,56.43h3.15v3.12H57.76ZM53.58,73.3h4.76V63.92H54.1V62h6.47V73.3h4.78v1.9H53.58ZM21.41,75.2H19l6.06-18.43h2.81L34,75.2H31.61l-1.53-4.76H22.92Zm18.2,62.4L38,135.81a5.79,5.79,0,0,1-2.34,1.57,8.15,8.15,0,0,1-2.94.56,5.75,5.75,0,0,1-3.9-1.33,4.83,4.83,0,0,1-1.66-3.82,5.06,5.06,0,0,1,.75-2.55,5.8,5.8,0,0,1,1.9-2,3.5,3.5,0,0,0,.38-.29,3.1,3.1,0,0,1,.43-.31l-.91-1.09a5.23,5.23,0,0,1-1.35-3.41,4.19,4.19,0,0,1,1.26-3A4.39,4.39,0,0,1,33,118.83,4.65,4.65,0,0,1,36.34,120a4.2,4.2,0,0,1,1.25,3.16,4.77,4.77,0,0,1-2.31,4,15.23,15.23,0,0,1-1.27.88l3.82,4.32a3.06,3.06,0,0,0,.23-.56c.07-.22.13-.42.17-.6a6.62,6.62,0,0,0,.12-.73l.08-.69c0-.16,0-.42,0-.78s0-.59,0-.69v-1.31h3.69V129H40.55a12.39,12.39,0,0,1-.34,2.82,6.71,6.71,0,0,1-.94,2.3l3.12,3.51ZM41.4,64.29a4,4,0,0,0-1.24,1.52,8.25,8.25,0,0,0-.57,3.38v6H37.35V62h2l.18,2a4,4,0,0,1,1.73-1.7,5,5,0,0,1,2.38-.61A4.57,4.57,0,0,1,47.05,63a4.94,4.94,0,0,1,1.22,3.56V75.2H46V66.86q0-3.15-2.89-3.15A2.85,2.85,0,0,0,41.4,64.29ZM55.64,105A6.52,6.52,0,0,1,51,106.77a6.6,6.6,0,0,1-4.76-2,6.51,6.51,0,0,1-1.83-3.2,22.73,22.73,0,0,1,0-8.79,6.51,6.51,0,0,1,1.83-3.2,6.86,6.86,0,0,1,9.36-.26,6,6,0,0,1,2,4.39H55.21a3.92,3.92,0,0,0-1.07-2.6A4,4,0,0,0,51,89.81a4.21,4.21,0,0,0-3.12,1.4,4.58,4.58,0,0,0-1.05,1.87,8.78,8.78,0,0,0-.4,1.92q-.05.78-.05,2.18t.05,2.18a8.79,8.79,0,0,0,.4,1.92,4.58,4.58,0,0,0,1.05,1.87,4.31,4.31,0,0,0,6.11.26,3.9,3.9,0,0,0,1.25-2.91h2.39A6.19,6.19,0,0,1,55.64,105Zm7-10.49a5.74,5.74,0,0,1,4.16-1.59,5.67,5.67,0,0,1,4.11,1.59,7.94,7.94,0,0,1,0,10.66,5.67,5.67,0,0,1-4.11,1.59,5.73,5.73,0,0,1-4.16-1.59,7.94,7.94,0,0,1,0-10.66Zm9.67,40.33q-1.72,2.78-5.88,2.78H61V119.17h5.49q4.13,0,5.9,2.86,1.25,2,1.25,6.32T72.35,134.82Zm3.8-67.39V75.2H74.06V66q0-2.36-1.72-2.37-2.05,0-2.05,3.51v8H68.11V62H69.9l.21,1.27a3,3,0,0,1,1.11-1.16A3.29,3.29,0,0,1,73,61.71a2.59,2.59,0,0,1,1.64.55,2.72,2.72,0,0,1,.94,1.2,3.38,3.38,0,0,1,3.09-1.74,3,3,0,0,1,2.44,1,3.88,3.88,0,0,1,.83,2.5v10H79.73V65.87q0-2.21-1.59-2.21a1.74,1.74,0,0,0-1.22.6A4.68,4.68,0,0,0,76.14,67.43Zm1.51,25.82h2l.18,2a4,4,0,0,1,1.73-1.7,5,5,0,0,1,2.38-.61,4.57,4.57,0,0,1,3.46,1.27,4.94,4.94,0,0,1,1.22,3.56v8.66H86.31V98.06q0-3.15-2.89-3.15a2.85,2.85,0,0,0-1.73.58A4,4,0,0,0,80.46,97a8.25,8.25,0,0,0-.57,3.38v6H77.65Zm7.44,25.58v3.12H81.94v-3.12Zm4.45,18.77H77.76v-1.9h4.76v-9.39H78.28v-1.87h6.47V135.7h4.78Zm.1-62.06a4.61,4.61,0,0,1-3.38-1.16,3.7,3.7,0,0,1-1.17-2.72,4.11,4.11,0,0,1,1.18-2.9,5,5,0,0,1,3.52-1.39l4.11-.23v-1a2.46,2.46,0,0,0-.68-1.9A3.11,3.11,0,0,0,91,63.53a3.24,3.24,0,0,0-2.39.81,2.39,2.39,0,0,0-.7,1.53H85.74A3.83,3.83,0,0,1,87,63.16,5.48,5.48,0,0,1,91,61.71a5.73,5.73,0,0,1,3,.72,4,4,0,0,1,1.68,1.88,4.89,4.89,0,0,1,.39,2v6.37q0,.88.78.88l.57-.08v1.64a3.22,3.22,0,0,1-1.46.31,1.85,1.85,0,0,1-1.4-.57A2,2,0,0,1,94,73.38H94A4,4,0,0,1,92.23,75,5.76,5.76,0,0,1,89.64,75.54Zm2.94,17.71h4.11V89.84l2.21-.7v4.11h5.51v1.9H98.89v7.18A2.39,2.39,0,0,0,99.5,104a2.28,2.28,0,0,0,1.73.64,8.37,8.37,0,0,0,3.33-.88v1.95a7.21,7.21,0,0,1-3.64.94,4,4,0,0,1-3.16-1.21,4.27,4.27,0,0,1-1.08-3V95.14H92.58Zm12.09,48.93q-1.59,1.56-5.38,1.56-3.56,0-5.07-1.51a3.17,3.17,0,0,1-1-2.31,3.12,3.12,0,0,1,.52-1.77A3.47,3.47,0,0,1,95.1,137a2.35,2.35,0,0,1-1.51-2.21,2.73,2.73,0,0,1,1.79-2.55,4.2,4.2,0,0,1-1.53-3.41,4.45,4.45,0,0,1,1.27-3.2,5.23,5.23,0,0,1,4-1.48,5.76,5.76,0,0,1,3.07.78,2.85,2.85,0,0,1,1.07-1.35,2.89,2.89,0,0,1,1.66-.49,5.47,5.47,0,0,1,.65.05v1.79a3,3,0,0,0-.49,0,1.71,1.71,0,0,0-1.07.34,1.52,1.52,0,0,0-.57.86,4.34,4.34,0,0,1,.88,2.73,4.51,4.51,0,0,1-1.2,3.12,5.16,5.16,0,0,1-4,1.59,7.09,7.09,0,0,1-2.29-.42,2,2,0,0,0-.77.46,1.1,1.1,0,0,0-.38.77.94.94,0,0,0,.53,1,3.33,3.33,0,0,0,1.42.27h2.89a5.8,5.8,0,0,1,4.29,1.38,3.49,3.49,0,0,1,1,2.57A3.6,3.6,0,0,1,104.67,142.18Zm1.16-67.9a4.27,4.27,0,0,1-1.08-3V63.94h-4.11V62h4.11V58.64l2.21-.7V62h5.51v1.9H107v7.18a2.39,2.39,0,0,0,.61,1.73,2.28,2.28,0,0,0,1.73.64,8.37,8.37,0,0,0,3.33-.88v2a7.21,7.21,0,0,1-3.64.94A4,4,0,0,1,105.82,74.28Zm5.26,20.32a5.69,5.69,0,0,1,4.19-1.69,5.39,5.39,0,0,1,4.06,1.59,7.21,7.21,0,0,1,1.9,5.25v.78H111.4a4.32,4.32,0,0,0,1.33,3.3,3.52,3.52,0,0,0,2.52,1,3.71,3.71,0,0,0,2.42-.78,3.07,3.07,0,0,0,1.09-1.59h2.13a5.28,5.28,0,0,1-2,3.15,5.92,5.92,0,0,1-3.64,1.14,5.78,5.78,0,0,1-4.16-1.72,6.91,6.91,0,0,1-1.95-5.15A7.24,7.24,0,0,1,111.09,94.6Zm6.24,24.23v3.12h-3.15v-3.12Zm4.45,18.77H110v-1.9h4.76v-9.39h-4.24v-1.87H117V135.7h4.78Zm15-.65a7.21,7.21,0,0,1-3.64.94,4,4,0,0,1-3.16-1.21,4.27,4.27,0,0,1-1.08-3v-7.38h-4.11v-1.9h4.11V121l2.21-.7v4.11h5.51v1.9h-5.51v7.18a2.39,2.39,0,0,0,.61,1.73,2.28,2.28,0,0,0,1.73.64,8.37,8.37,0,0,0,3.33-.88Zm.13-30.55h-2.26V98.06q0-3.15-2.89-3.15a2.85,2.85,0,0,0-1.73.58A4,4,0,0,0,128.82,97a8.25,8.25,0,0,0-.57,3.38v6H126V93.25h2l.18,2a4,4,0,0,1,1.73-1.7,5,5,0,0,1,2.38-.61,4.57,4.57,0,0,1,3.46,1.27,4.94,4.94,0,0,1,1.22,3.56ZM135.22,74a7.94,7.94,0,0,1,0-10.66,5.74,5.74,0,0,1,4.16-1.59,5.67,5.67,0,0,1,4.11,1.59,7.94,7.94,0,0,1,0,10.66,5.67,5.67,0,0,1-4.11,1.59A5.73,5.73,0,0,1,135.22,74Zm5.72,19.29H145V89.84l2.21-.7v4.11h5.51v1.9h-5.51v7.18a2.39,2.39,0,0,0,.61,1.73,2.28,2.28,0,0,0,1.73.64,8.37,8.37,0,0,0,3.33-.88v1.95a7.21,7.21,0,0,1-3.64.94,4,4,0,0,1-3.16-1.21,4.27,4.27,0,0,1-1.08-3V95.14h-4.11Zm12.92,44.23a3.22,3.22,0,0,1-1.46.31,1.85,1.85,0,0,1-1.4-.57,2,2,0,0,1-.55-1.43h-.05a4,4,0,0,1-1.75,1.57,5.76,5.76,0,0,1-2.59.58,4.61,4.61,0,0,1-3.38-1.16,3.7,3.7,0,0,1-1.17-2.72,4.11,4.11,0,0,1,1.18-2.9,5,5,0,0,1,3.52-1.39l4.11-.23v-1a2.46,2.46,0,0,0-.68-1.9,3.1,3.1,0,0,0-2.21-.75,3.24,3.24,0,0,0-2.39.81,2.39,2.39,0,0,0-.7,1.53h-2.18a3.83,3.83,0,0,1,1.22-2.7,5.48,5.48,0,0,1,4.06-1.46,5.73,5.73,0,0,1,3,.71,4,4,0,0,1,1.68,1.89,4.88,4.88,0,0,1,.39,1.95V135q0,.88.78.88l.57-.08ZM156,63.71a2.85,2.85,0,0,0-1.73.58A4,4,0,0,0,153,65.82a8.25,8.25,0,0,0-.57,3.38v6h-2.24V62h2l.18,2a4,4,0,0,1,1.73-1.7,5,5,0,0,1,2.38-.61A4.57,4.57,0,0,1,159.89,63a4.94,4.94,0,0,1,1.22,3.56V75.2h-2.26V66.86Q158.85,63.71,156,63.71Zm13.68,73.89H158.17v-1.87h4.63V120.68h-4.24v-1.85H165v16.9h4.6Zm3.22-59.29a4.68,4.68,0,0,1-2.42,1.94l-.83-1.51a3.23,3.23,0,0,0,1.65-1.3,4.72,4.72,0,0,0,.43-2.24h-2.05V71.33h3.93V75.2A6.22,6.22,0,0,1,172.86,78.31Z"/></svg>