<svg id="b6ff8a23-1186-419e-955d-0b2811fca495" data-name="592e89c4-40a5-4934-b8e7-a570c6ad1fc2" xmlns="http://www.w3.org/2000/svg" viewBox="0 0 198.1 198.1"><defs><style>.\36 ee4d85a-c5db-4560-9970-f1f123eda366{fill:blue;}</style></defs><title>stamp</title><path class="6ee4d85a-c5db-4560-9970-f1f123eda366" d="M131.29,94.83a3.53,3.53,0,0,0-2.44.94,5.18,5.18,0,0,0-1.48,4,5.25,5.25,0,0,0,1.48,4.08,3.66,3.66,0,0,0,4.89,0,6.29,6.29,0,0,0,0-8.11A3.54,3.54,0,0,0,131.29,94.83Z"/><path class="6ee4d85a-c5db-4560-9970-f1f123eda366" d="M98.69,94.83a3.3,3.3,0,0,0-2.42,1,5.38,5.38,0,0,0-1.4,4,5.5,5.5,0,0,0,1.38,4.06,3.31,3.31,0,0,0,2.44.94,3.22,3.22,0,0,0,2.21-.83,6.58,6.58,0,0,0,0-8.32A3.22,3.22,0,0,0,98.69,94.83Z"/><path class="6ee4d85a-c5db-4560-9970-f1f123eda366" d="M115.25,94.8a3.29,3.29,0,0,0-2.72,1.26,4.47,4.47,0,0,0-1.05,2.64h7.41a4.14,4.14,0,0,0-1.12-2.83A3.34,3.34,0,0,0,115.25,94.8Z"/><path class="6ee4d85a-c5db-4560-9970-f1f123eda366" d="M99.05,0A99.05,99.05,0,1,0,198.1,99.05,99.05,99.05,0,0,0,99.05,0ZM81.94,87.63h3.15v3.12H81.94ZM68.19,106.4H65.43L59.71,88h2.47l4.68,15.76L71.46,88h2.44Zm21.35,0H77.76v-1.9h4.76V95.12H78.28V93.25h6.47V104.5h4.78Zm14.92,0h-2l-.16-1.72a3.71,3.71,0,0,1-1.7,1.51,5.42,5.42,0,0,1-2.33.55,5.08,5.08,0,0,1-3.82-1.53,7.35,7.35,0,0,1-1.9-5.36,7.22,7.22,0,0,1,2-5.46,5.3,5.3,0,0,1,3.74-1.48,5.08,5.08,0,0,1,2.28.52,3.94,3.94,0,0,1,1.6,1.35V87.63h2.21Zm16.77-5.88H111.4a4.32,4.32,0,0,0,1.33,3.3,3.52,3.52,0,0,0,2.52,1,3.72,3.72,0,0,0,2.42-.78,3.07,3.07,0,0,0,1.09-1.59h2.13a5.28,5.28,0,0,1-2,3.15,5.91,5.91,0,0,1-3.64,1.14,5.78,5.78,0,0,1-4.16-1.72,6.91,6.91,0,0,1-1.95-5.15,7.24,7.24,0,0,1,1.95-5.28,5.69,5.69,0,0,1,4.19-1.69,5.39,5.39,0,0,1,4.06,1.59,7.21,7.21,0,0,1,1.9,5.25Zm14.2,4.63a5.67,5.67,0,0,1-4.11,1.59,5.73,5.73,0,0,1-4.16-1.59,7.94,7.94,0,0,1,0-10.66,5.74,5.74,0,0,1,4.16-1.59,5.67,5.67,0,0,1,4.11,1.59,7.94,7.94,0,0,1,0,10.66Z"/></svg>