<svg id="f374e5b1-ea6a-448f-a73c-0b852846a597" data-name="592e89c4-40a5-4934-b8e7-a570c6ad1fc2" xmlns="http://www.w3.org/2000/svg" viewBox="0 0 198.1 198.1"><defs><style>.\31 3ab7278-9bcc-4e6e-b393-d9c9b963b727{fill:blue;}</style></defs><title>stamp</title><path class="13ab7278-9bcc-4e6e-b393-d9c9b963b727" d="M112.39,100.94a2,2,0,0,0-.86,1.74,2.06,2.06,0,0,0,.65,1.57,2.79,2.79,0,0,0,2,.61,3.67,3.67,0,0,0,2.76-1.07,4.13,4.13,0,0,0,1.17-3v-.78l-3.64.21A4,4,0,0,0,112.39,100.94Z"/><path class="13ab7278-9bcc-4e6e-b393-d9c9b963b727" d="M82.57,94.83a3.3,3.3,0,0,0-2.42,1,5.38,5.38,0,0,0-1.4,4,5.5,5.5,0,0,0,1.38,4.06,3.31,3.31,0,0,0,2.44.94,3.22,3.22,0,0,0,2.21-.83,6.58,6.58,0,0,0,0-8.32A3.22,3.22,0,0,0,82.57,94.83Z"/><path class="13ab7278-9bcc-4e6e-b393-d9c9b963b727" d="M66.81,94.83a3.53,3.53,0,0,0-2.44.94,5.18,5.18,0,0,0-1.48,4,5.25,5.25,0,0,0,1.48,4.08,3.66,3.66,0,0,0,4.89,0,6.29,6.29,0,0,0,0-8.11A3.54,3.54,0,0,0,66.81,94.83Z"/><path class="13ab7278-9bcc-4e6e-b393-d9c9b963b727" d="M51.68,90.07H47.41v7.07H51.7a4.36,4.36,0,0,0,2.94-.9,3.39,3.39,0,0,0,1-2.72A3.1,3.1,0,0,0,54.58,91,4.5,4.5,0,0,0,51.68,90.07Z"/><path class="13ab7278-9bcc-4e6e-b393-d9c9b963b727" d="M99.05,0a99.05,99.05,0,1,0,99,99.05A99.05,99.05,0,0,0,99.05,0ZM56.51,97.64a6.45,6.45,0,0,1-4.76,1.61H47.41v7.15H45.1V88h6.63a6.38,6.38,0,0,1,4.91,1.74,5.45,5.45,0,0,1,1.43,3.82A5.55,5.55,0,0,1,56.51,97.64Zm14.43,7.51a5.67,5.67,0,0,1-4.11,1.59,5.73,5.73,0,0,1-4.16-1.59,7.94,7.94,0,0,1,0-10.66,5.74,5.74,0,0,1,4.16-1.59,5.67,5.67,0,0,1,4.11,1.59,7.94,7.94,0,0,1,0,10.66Zm17.39,1.25h-2l-.16-1.72a3.71,3.71,0,0,1-1.7,1.51,5.42,5.42,0,0,1-2.33.55,5.08,5.08,0,0,1-3.82-1.53,7.35,7.35,0,0,1-1.9-5.36,7.22,7.22,0,0,1,2-5.46,5.3,5.3,0,0,1,3.74-1.48,5.08,5.08,0,0,1,2.28.52,3.94,3.94,0,0,1,1.6,1.35V87.63h2.21Zm8.5-2.55a3.55,3.55,0,0,0,2.44,1,3.13,3.13,0,0,0,2.24-.83,3.43,3.43,0,0,0,1.07-2h2.21a5.09,5.09,0,0,1-1.66,3.38,5.31,5.31,0,0,1-3.85,1.4,5.67,5.67,0,0,1-4.11-1.61,8,8,0,0,1,0-10.61,5.68,5.68,0,0,1,4.11-1.61,5.35,5.35,0,0,1,3.87,1.43,5,5,0,0,1,1.64,3.35h-2.24a3.39,3.39,0,0,0-1-2,3.13,3.13,0,0,0-2.24-.83,3.54,3.54,0,0,0-2.44.94,6.43,6.43,0,0,0,0,8.09Zm24.78,2.42a3.22,3.22,0,0,1-1.46.31,1.85,1.85,0,0,1-1.4-.57,2,2,0,0,1-.55-1.43h-.05a4,4,0,0,1-1.75,1.57,5.76,5.76,0,0,1-2.59.58,4.61,4.61,0,0,1-3.38-1.16,3.7,3.7,0,0,1-1.17-2.72,4.11,4.11,0,0,1,1.18-2.9A5,5,0,0,1,114,98.58l4.11-.23v-1a2.46,2.46,0,0,0-.68-1.9,3.11,3.11,0,0,0-2.21-.75,3.24,3.24,0,0,0-2.39.81,2.39,2.39,0,0,0-.7,1.53h-2.18a3.83,3.83,0,0,1,1.22-2.7,5.48,5.48,0,0,1,4.06-1.46,5.73,5.73,0,0,1,3,.72,4,4,0,0,1,1.68,1.88,4.89,4.89,0,0,1,.39,2v6.37q0,.88.78.88l.57-.08Zm14.3-1.07a6,6,0,0,1-4.5,1.53,6.15,6.15,0,0,1-4.5-1.53,4.06,4.06,0,0,1-1.3-3h2.21a2.54,2.54,0,0,0,1.14,2,4.18,4.18,0,0,0,2.55.65,3.87,3.87,0,0,0,2.57-.75,1.65,1.65,0,0,0,.65-1.35q0-1.53-1.95-1.82l-3.35-.49A4,4,0,0,1,127,99.2a3.36,3.36,0,0,1-.78-2.26,3.45,3.45,0,0,1,1.07-2.52,5.3,5.3,0,0,1,4-1.51,5.16,5.16,0,0,1,4.34,1.77,4.34,4.34,0,0,1,.91,2.5h-2.21a2.13,2.13,0,0,0-.78-1.61,3.23,3.23,0,0,0-2.26-.78,3.54,3.54,0,0,0-2.24.65,1.75,1.75,0,0,0-.73,1.38q0,1.35,1.74,1.64l3.56.55a4.3,4.3,0,0,1,2.31,1.13,3.2,3.2,0,0,1,1,2.46A3.67,3.67,0,0,1,135.92,105.21Zm17,.55a7.21,7.21,0,0,1-3.64.94,4,4,0,0,1-3.16-1.21,4.27,4.27,0,0,1-1.08-3V95.14h-4.11v-1.9H145V89.84l2.21-.7v4.11h5.51v1.9h-5.51v7.18a2.39,2.39,0,0,0,.61,1.73,2.28,2.28,0,0,0,1.73.64,8.36,8.36,0,0,0,3.33-.88Z"/></svg>