<svg id="036caed0-1389-4202-b40c-72f982a8137b" data-name="592e89c4-40a5-4934-b8e7-a570c6ad1fc2" xmlns="http://www.w3.org/2000/svg" viewBox="0 0 198.1 198.1"><defs><style>.\30 e3b02fc-b921-4881-a36a-98421e269189{fill:blue;}</style></defs><title>stamp</title><path class="0e3b02fc-b921-4881-a36a-98421e269189" d="M96.27,100.94a2,2,0,0,0-.86,1.74,2.06,2.06,0,0,0,.65,1.57,2.79,2.79,0,0,0,2,.61,3.67,3.67,0,0,0,2.76-1.07,4.13,4.13,0,0,0,1.17-3v-.78l-3.64.21A4,4,0,0,0,96.27,100.94Z"/><polygon class="0e3b02fc-b921-4881-a36a-98421e269189" points="31.66 99.46 37.46 99.46 34.52 90.33 31.66 99.46"/><path class="0e3b02fc-b921-4881-a36a-98421e269189" d="M147.41,94.83a3.53,3.53,0,0,0-2.44.94,5.18,5.18,0,0,0-1.48,4,5.25,5.25,0,0,0,1.48,4.08,3.66,3.66,0,0,0,4.89,0,6.29,6.29,0,0,0,0-8.11A3.54,3.54,0,0,0,147.41,94.83Z"/><path class="0e3b02fc-b921-4881-a36a-98421e269189" d="M99.05,0a99.05,99.05,0,1,0,99,99.05A99.05,99.05,0,0,0,99.05,0ZM130.3,87.63h3.15v3.12H130.3Zm-64.48,0H69v3.12H65.82ZM39.67,106.4l-1.53-4.76H31l-1.51,4.76H27.11L33.17,88H36l6.08,18.43Zm16.67,0H54.07V98.06q0-3.15-2.89-3.15a2.85,2.85,0,0,0-1.73.58A4,4,0,0,0,48.22,97a8.25,8.25,0,0,0-.57,3.38v6H45.41V93.25h2l.18,2a4,4,0,0,1,1.73-1.7,5,5,0,0,1,2.38-.61,4.57,4.57,0,0,1,3.46,1.27,4.94,4.94,0,0,1,1.22,3.56Zm17.08,0H61.64v-1.9h4.76V95.12H62.16V93.25h6.47V104.5h4.78Zm16.56,0H87.79V97.07q0-2.21-1.59-2.21a1.74,1.74,0,0,0-1.22.6,4.68,4.68,0,0,0-.78,3.17v7.77H82.12V97.22q0-2.36-1.72-2.37-2.05,0-2.05,3.51v8H76.17V93.25H78l.21,1.27a3,3,0,0,1,1.11-1.16A3.29,3.29,0,0,1,81,92.91a2.59,2.59,0,0,1,1.64.55,2.72,2.72,0,0,1,.94,1.2,3.38,3.38,0,0,1,3.09-1.74,3,3,0,0,1,2.44,1,3.88,3.88,0,0,1,.83,2.5Zm15.52-.13a3.22,3.22,0,0,1-1.46.31,1.85,1.85,0,0,1-1.4-.57,2,2,0,0,1-.55-1.43H102a4,4,0,0,1-1.75,1.57,5.76,5.76,0,0,1-2.59.58,4.61,4.61,0,0,1-3.38-1.16,3.7,3.7,0,0,1-1.17-2.72,4.11,4.11,0,0,1,1.18-2.9,5,5,0,0,1,3.52-1.39l4.11-.23v-1a2.46,2.46,0,0,0-.68-1.9,3.11,3.11,0,0,0-2.21-.75,3.24,3.24,0,0,0-2.39.81,2.39,2.39,0,0,0-.7,1.53H93.8A3.83,3.83,0,0,1,95,94.36a5.48,5.48,0,0,1,4.06-1.46,5.73,5.73,0,0,1,3,.72,4,4,0,0,1,1.68,1.88,4.89,4.89,0,0,1,.39,2v6.37q0,.88.78.88l.57-.08Zm15.18-.52a7.21,7.21,0,0,1-3.64.94,4,4,0,0,1-3.16-1.21,4.27,4.27,0,0,1-1.08-3V95.14H108.7v-1.9h4.11V89.84l2.21-.7v4.11h5.51v1.9H115v7.18a2.39,2.39,0,0,0,.61,1.73,2.28,2.28,0,0,0,1.73.64,8.36,8.36,0,0,0,3.33-.88Zm17.21.65H126.12v-1.9h4.76V95.12h-4.24V93.25h6.47V104.5h4.78Zm13.65-1.25a5.67,5.67,0,0,1-4.11,1.59,5.73,5.73,0,0,1-4.16-1.59,7.94,7.94,0,0,1,0-10.66,5.74,5.74,0,0,1,4.16-1.59,5.67,5.67,0,0,1,4.11,1.59,7.94,7.94,0,0,1,0,10.66Zm15.37,1.25V98.06q0-3.15-2.89-3.15a2.85,2.85,0,0,0-1.73.58A4,4,0,0,0,161.06,97a8.25,8.25,0,0,0-.57,3.38v6h-2.24V93.25h2l.18,2a4,4,0,0,1,1.73-1.7,5,5,0,0,1,2.38-.61A4.57,4.57,0,0,1,168,94.18a4.94,4.94,0,0,1,1.22,3.56v8.66Z"/></svg>