<svg id="b56a50d6-0399-48e6-8b5b-e12b3786fcab" data-name="592e89c4-40a5-4934-b8e7-a570c6ad1fc2" xmlns="http://www.w3.org/2000/svg" viewBox="0 0 198.1 198.1"><defs><style>.\37 c43eb90-3250-496c-87dd-c4bd83cb2b84{fill:blue;}</style></defs><title>stamp</title><path class="7c43eb90-3250-496c-87dd-c4bd83cb2b84" d="M86.84,106.88a6.3,6.3,0,0,0-.65-.36,2.47,2.47,0,0,0-.87-.18l-.84-.05H80.77a2.62,2.62,0,0,0-1.18.79,1.92,1.92,0,0,0-.48,1.29,1.87,1.87,0,0,0,.55,1.38q.91.91,3.64.91t3.61-.94a1.86,1.86,0,0,0,.6-1.35,2.27,2.27,0,0,0-.16-.87A1.26,1.26,0,0,0,86.84,106.88Z"/><path class="7c43eb90-3250-496c-87dd-c4bd83cb2b84" d="M82.93,100.53a3,3,0,0,0,2.2-.85A2.8,2.8,0,0,0,86,97.59a2.75,2.75,0,0,0-.84-2.08,3.47,3.47,0,0,0-4.45,0,2.75,2.75,0,0,0-.84,2.08,2.8,2.8,0,0,0,.87,2.09A3,3,0,0,0,82.93,100.53Z"/><path class="7c43eb90-3250-496c-87dd-c4bd83cb2b84" d="M53.76,91.32a4.5,4.5,0,0,0-3.41-1.22H47.18v14.17h3.17a4.55,4.55,0,0,0,3.48-1.3,4.26,4.26,0,0,0,1.07-2.28,22.15,22.15,0,0,0,.23-3.55,19.9,19.9,0,0,0-.26-3.56A4.31,4.31,0,0,0,53.76,91.32Z"/><path class="7c43eb90-3250-496c-87dd-c4bd83cb2b84" d="M128.51,100.94a2,2,0,0,0-.86,1.74,2.06,2.06,0,0,0,.65,1.57,2.79,2.79,0,0,0,2,.61A3.67,3.67,0,0,0,133,103.8a4.13,4.13,0,0,0,1.17-3v-.78l-3.64.21A4,4,0,0,0,128.51,100.94Z"/><path class="7c43eb90-3250-496c-87dd-c4bd83cb2b84" d="M99,0A99.05,99.05,0,1,0,198.1,99.05,99.05,99.05,0,0,0,99,0Zm-1,87.63h3.15v3.12H98.06Zm-32.24,0H69v3.12H65.82Zm-9.59,16q-1.72,2.78-5.88,2.78H44.87V88h5.49q4.13,0,5.9,2.86,1.25,2,1.25,6.32T56.23,103.62Zm17.19,2.78H61.64v-1.9h4.76V95.12H62.16V93.25h6.47V104.5h4.78ZM88.55,111q-1.59,1.56-5.38,1.56-3.56,0-5.07-1.51a3.17,3.17,0,0,1-1-2.31,3.12,3.12,0,0,1,.52-1.77,3.46,3.46,0,0,1,1.35-1.2,2.35,2.35,0,0,1-1.51-2.21A2.73,2.73,0,0,1,79.26,101a4.2,4.2,0,0,1-1.53-3.41A4.45,4.45,0,0,1,79,94.39a5.23,5.23,0,0,1,4-1.48,5.77,5.77,0,0,1,3.07.78,2.85,2.85,0,0,1,1.07-1.35,2.9,2.9,0,0,1,1.66-.49,5.6,5.6,0,0,1,.65.05v1.79a3.05,3.05,0,0,0-.49,0,1.71,1.71,0,0,0-1.07.34,1.51,1.51,0,0,0-.57.86,4.34,4.34,0,0,1,.88,2.73,4.51,4.51,0,0,1-1.2,3.12,5.17,5.17,0,0,1-4,1.59,7.12,7.12,0,0,1-2.29-.42,2,2,0,0,0-.77.46,1.1,1.1,0,0,0-.38.77,1,1,0,0,0,.53,1,3.34,3.34,0,0,0,1.42.27h2.89a5.8,5.8,0,0,1,4.29,1.38,3.49,3.49,0,0,1,1,2.57A3.6,3.6,0,0,1,88.55,111Zm17.11-4.58H93.88v-1.9h4.76V95.12H94.4V93.25h6.47V104.5h4.78Zm15-.65a7.21,7.21,0,0,1-3.64.94,4,4,0,0,1-3.16-1.21,4.27,4.27,0,0,1-1.08-3V95.14H108.7v-1.9h4.11V89.84l2.21-.7v4.11h5.51v1.9H115v7.18a2.39,2.39,0,0,0,.61,1.73,2.28,2.28,0,0,0,1.73.64,8.37,8.37,0,0,0,3.33-.88Zm17.06.52a3.22,3.22,0,0,1-1.46.31,1.85,1.85,0,0,1-1.4-.57,2,2,0,0,1-.55-1.43h-.05a4,4,0,0,1-1.75,1.57,5.75,5.75,0,0,1-2.59.58,4.61,4.61,0,0,1-3.38-1.16,3.7,3.7,0,0,1-1.17-2.72,4.11,4.11,0,0,1,1.18-2.9,5,5,0,0,1,3.52-1.39l4.11-.23v-1a2.46,2.46,0,0,0-.68-1.9,3.11,3.11,0,0,0-2.21-.75,3.24,3.24,0,0,0-2.39.81,2.39,2.39,0,0,0-.7,1.53H126a3.83,3.83,0,0,1,1.22-2.7,5.48,5.48,0,0,1,4.06-1.46,5.73,5.73,0,0,1,3,.72A4,4,0,0,1,136,95.51a4.89,4.89,0,0,1,.39,2v6.37q0,.88.78.88l.57-.08Zm15.78.13H142.05v-1.87h4.63V89.48h-4.24V87.63h6.47v16.9h4.6Z"/></svg>