<?xml version="1.0" encoding="utf-8"?>
<!-- Generator: Adobe Illustrator 21.0.2, SVG Export Plug-In . SVG Version: 6.00 Build 0)  -->
<svg version="1.1" id="_x30_3395b9d-b1ad-4de8-9111-003323df33f0"
	 xmlns="http://www.w3.org/2000/svg" xmlns:xlink="http://www.w3.org/1999/xlink" x="0px" y="0px" viewBox="0 0 198.1 198.1"
	 style="enable-background:new 0 0 198.1 198.1;" xml:space="preserve">
<style type="text/css">
	.st0{fill:#0000FF;}
</style>
<title>stamp</title>
<path class="st0" d="M91.8,138.1c-0.2-0.1-0.4-0.3-0.7-0.4c-0.3-0.1-0.6-0.2-0.9-0.2l-0.8-0.1h-3.7c-0.5,0.1-0.9,0.4-1.2,0.8
	c-0.3,0.4-0.5,0.8-0.5,1.3c0,0.5,0.2,1,0.6,1.4c0.6,0.6,1.8,0.9,3.6,0.9c1.8,0,3-0.3,3.6-0.9c0.4-0.3,0.6-0.8,0.6-1.4
	c0-0.3-0.1-0.6-0.2-0.9C92.3,138.4,92.1,138.2,91.8,138.1z"/>
<path class="st0" d="M87.9,131.7c0.8,0,1.6-0.3,2.2-0.8c0.6-0.5,0.9-1.3,0.9-2.1c0-0.8-0.3-1.5-0.8-2.1c-1.3-1.1-3.2-1.1-4.4,0
	c-0.6,0.5-0.9,1.3-0.8,2.1c0,0.8,0.3,1.5,0.9,2.1C86.3,131.5,87.1,131.8,87.9,131.7z"/>
<path class="st0" d="M98.9,68.9l-3.6,0.2c-0.7,0-1.4,0.3-2.1,0.7c-0.6,0.4-0.9,1.1-0.9,1.7c0,0.6,0.2,1.2,0.7,1.6
	c0.6,0.5,1.3,0.7,2,0.6c1,0,2-0.3,2.8-1.1c0.8-0.8,1.2-1.9,1.2-3L98.9,68.9z"/>
<path class="st0" d="M133.5,132.1c-0.6,0.4-0.9,1.1-0.9,1.7c0,0.6,0.2,1.2,0.6,1.6c0.6,0.5,1.3,0.7,2,0.6c1,0,2-0.4,2.7-1.1
	c0.8-0.8,1.2-1.9,1.2-3v-0.8l-3.6,0.2C134.8,131.5,134.1,131.7,133.5,132.1z"/>
<path class="st0" d="M74.4,95.9c-0.6-0.7-1.6-1.1-2.5-1.1c-1.1,0-2.1,0.4-2.7,1.3c-0.6,0.7-1,1.7-1,2.6h7.4
	C75.5,97.6,75.1,96.6,74.4,95.9z"/>
<path class="st0" d="M58.8,122.5c-0.9-0.9-2.2-1.3-3.4-1.2h-3.2v14.2h3.2c1.3,0.1,2.6-0.4,3.5-1.3c0.6-0.6,1-1.4,1.1-2.3
	c0.2-1.2,0.2-2.4,0.2-3.6c0-1.2-0.1-2.4-0.3-3.6C59.7,123.9,59.3,123.1,58.8,122.5z"/>
<polygon class="st0" points="28.6,68.3 34.4,68.3 31.5,59.1 "/>
<path class="st0" d="M55.3,104.8c0.8,0,1.6-0.3,2.2-0.8c2-2.4,2-5.9,0-8.3c-0.6-0.5-1.4-0.8-2.2-0.8c-0.9,0-1.8,0.3-2.4,1
	c-1,1.1-1.5,2.5-1.4,4c-0.1,1.5,0.4,2.9,1.4,4.1C53.5,104.5,54.4,104.9,55.3,104.8z"/>
<path class="st0" d="M99,0C44.3,0,0,44.4,0,99.1s44.4,99,99.1,99c54.7,0,99-44.4,99-99C198.1,44.3,153.8,0,99,0C99,0,99,0,99,0z
	 M127.2,56.4h3.1v3.1h-3.1V56.4z M123.1,73.3h4.8v-9.4h-4.2V62h6.5v11.3h4.8v1.9h-11.8V73.3z M119.2,87.6h3.2v3.1h-3.2V87.6z
	 M88.4,94.9c-0.6,0-1.2,0.2-1.7,0.6c-0.5,0.4-1,0.9-1.2,1.5c-0.4,1.1-0.6,2.2-0.6,3.4v6h-2.2V93.2h2l0.2,2c0.4-0.7,1-1.3,1.7-1.7
	c0.7-0.4,1.5-0.6,2.4-0.6c1.3-0.1,2.5,0.4,3.5,1.3c0.9,1,1.3,2.3,1.2,3.6v8.7h-2.3v-8.4C91.3,96,90.3,94.9,88.4,94.9z M62.8,56.4
	h3.2v3.1h-3.2V56.4z M58.6,73.3h4.8v-9.4h-4.2V62h6.5v11.3h4.8v1.9H58.6V73.3z M27.9,70.4l-1.5,4.8H24l6.1-18.4h2.8L39,75.2h-2.4
	l-1.5-4.8L27.9,70.4z M44.8,89.9h-4.1v14.6h4.1v1.9H34.3v-1.9h4.1V89.9h-4.1V88h10.5V89.9z M46.4,64.3c-0.5,0.4-1,0.9-1.2,1.5
	c-0.4,1.1-0.6,2.2-0.6,3.4v6h-2.2V62h2l0.2,2c0.4-0.7,1-1.3,1.7-1.7c0.7-0.4,1.5-0.6,2.4-0.6c1.3-0.1,2.5,0.4,3.4,1.3
	c0.9,1,1.3,2.3,1.2,3.6v8.6H51v-8.3c0-2.1-1-3.1-2.9-3.2C47.5,63.7,46.9,63.9,46.4,64.3z M51.3,94.4c1-1,2.3-1.5,3.7-1.5
	c0.8,0,1.6,0.2,2.3,0.5c0.6,0.3,1.2,0.8,1.6,1.3v-7.2h2.2v18.8h-2l-0.1-1.7c-0.4,0.7-1,1.2-1.7,1.5c-0.7,0.4-1.5,0.5-2.3,0.6
	c-1.4,0.1-2.8-0.5-3.8-1.5c-1.3-1.5-2-3.4-1.9-5.4C49.1,97.8,49.9,95.8,51.3,94.4L51.3,94.4z M61.3,134.8c-1.1,1.9-3.1,2.8-5.9,2.8
	h-5.5v-18.4h5.5c2.8,0,4.7,1,5.9,2.9c0.8,1.3,1.2,3.4,1.2,6.3C62.5,131.2,62.1,133.4,61.3,134.8L61.3,134.8z M67.8,94.6
	c1.1-1.1,2.6-1.7,4.2-1.7c1.5-0.1,3,0.5,4,1.6c1.3,1.4,2,3.3,1.9,5.2v0.8H68c-0.1,1.2,0.4,2.4,1.3,3.3c0.7,0.7,1.6,1,2.5,1
	c0.9,0,1.7-0.2,2.4-0.8c0.5-0.4,0.9-1,1.1-1.6h2.1c-0.3,1.3-1,2.4-2,3.2c-1.1,0.8-2.3,1.2-3.6,1.1c-1.6,0-3-0.6-4.1-1.7
	c-1.3-1.4-2-3.2-1.9-5.2C65.7,97.9,66.4,96,67.8,94.6L67.8,94.6z M74,118.8v3.1h-3.2v-3.1H74z M78.4,137.6H66.6v-1.9h4.8v-9.4h-4.2
	v-1.9h6.5v11.3h4.8L78.4,137.6z M81.2,67.4v7.8h-2.1V66c0-1.6-0.6-2.4-1.7-2.4c-1.4,0-2.1,1.2-2.1,3.5v8h-2.2V62h1.8l0.2,1.3
	c0.3-0.5,0.6-0.9,1.1-1.2c0.5-0.3,1.2-0.4,1.8-0.4c0.6,0,1.2,0.2,1.6,0.5c0.4,0.3,0.7,0.7,0.9,1.2c0.6-1.1,1.8-1.8,3.1-1.7
	c0.9-0.1,1.8,0.3,2.4,1c0.6,0.7,0.9,1.6,0.8,2.5v10h-2.2v-9.3c0-1.5-0.5-2.2-1.6-2.2c-0.5,0-0.9,0.2-1.2,0.6
	C81.3,65.2,81,66.3,81.2,67.4L81.2,67.4z M93.6,142.2c-1.1,1-2.9,1.6-5.4,1.6c-2.4,0-4.1-0.5-5.1-1.5c-0.6-0.6-1-1.4-1-2.3
	c0-0.6,0.2-1.2,0.5-1.8c0.3-0.5,0.8-0.9,1.3-1.2c-0.9-0.4-1.5-1.2-1.5-2.2c0-1.1,0.7-2.2,1.8-2.6c-1-0.8-1.6-2.1-1.5-3.4
	c0-1.2,0.4-2.3,1.3-3.2c1.1-1,2.5-1.6,4-1.5c1.1,0,2.1,0.2,3.1,0.8c0.2-0.5,0.6-1,1.1-1.3c0.5-0.3,1.1-0.5,1.7-0.5
	c0.2,0,0.4,0,0.7,0.1v1.8c-0.2,0-0.3,0-0.5,0c-0.4,0-0.8,0.1-1.1,0.3c-0.3,0.2-0.5,0.5-0.6,0.9c0.6,0.8,0.9,1.7,0.9,2.7
	c0,1.2-0.4,2.3-1.2,3.1c-1,1.1-2.5,1.7-4,1.6c-0.8,0-1.6-0.2-2.3-0.4c-0.3,0.1-0.6,0.3-0.8,0.5c-0.2,0.2-0.4,0.5-0.4,0.8
	c-0.1,0.4,0.1,0.8,0.5,1c0.4,0.2,0.9,0.3,1.4,0.3h2.9c1.5-0.1,3.1,0.4,4.2,1.4c0.7,0.7,1,1.6,1,2.6
	C94.7,140.6,94.3,141.5,93.6,142.2L93.6,142.2z M94.7,75.5c-1.2,0.1-2.5-0.3-3.4-1.2c-0.8-0.7-1.2-1.7-1.2-2.7
	c0-1.1,0.4-2.1,1.2-2.9c0.9-0.9,2.2-1.4,3.5-1.4l4.1-0.2v-1c0.1-0.7-0.2-1.4-0.7-1.9c-0.6-0.5-1.4-0.8-2.2-0.7
	c-0.9-0.1-1.7,0.2-2.4,0.8c-0.4,0.4-0.7,1-0.7,1.5h-2.2c0-1,0.5-2,1.3-2.7c1.1-1,2.5-1.5,4-1.5c1,0,2.1,0.2,3,0.7
	c0.7,0.4,1.3,1.1,1.7,1.9c0.3,0.6,0.4,1.3,0.4,2v6.4c0,0.6,0.3,0.9,0.8,0.9l0.6-0.1v1.6c-0.5,0.2-1,0.3-1.5,0.3
	c-0.5,0-1-0.2-1.4-0.6c-0.4-0.4-0.6-0.9-0.6-1.5l0,0c-0.4,0.7-1,1.3-1.8,1.6C96.4,75.4,95.5,75.6,94.7,75.5L94.7,75.5z M97.6,93.3
	h4.1v-3.4l2.2-0.7v4.1h5.5v1.9h-5.5v7.2c0,0.6,0.2,1.3,0.6,1.7c0.5,0.4,1.1,0.7,1.7,0.6c1.2-0.1,2.3-0.4,3.3-0.9v1.9
	c-1.1,0.6-2.4,1-3.6,0.9c-1.2,0.1-2.3-0.4-3.2-1.2c-0.7-0.8-1.1-1.9-1.1-3v-7.4h-4.1L97.6,93.3z M106.2,118.8v3.1h-3.2v-3.1H106.2z
	 M110.7,137.6H98.9v-1.9h4.8v-9.4h-4.2v-1.9h6.5v11.3h4.8L110.7,137.6z M109.8,71.3v-7.4h-4.1V62h4.1v-3.4l2.2-0.7V62h5.5v1.9H112
	v7.2c0,0.6,0.2,1.3,0.6,1.7c0.5,0.4,1.1,0.7,1.7,0.6c1.2-0.1,2.3-0.4,3.3-0.9v2c-1.1,0.6-2.4,1-3.6,0.9c-1.2,0.1-2.3-0.4-3.2-1.2
	C110.1,73.5,109.7,72.4,109.8,71.3L109.8,71.3z M125.7,137c-1.1,0.6-2.4,1-3.6,0.9c-1.2,0.1-2.3-0.4-3.2-1.2c-0.7-0.8-1.1-1.9-1.1-3
	v-7.4h-4.1v-1.9h4.1V121l2.2-0.7v4.1h5.5v1.9H120v7.2c0,0.6,0.2,1.3,0.6,1.7c0.5,0.4,1.1,0.7,1.7,0.6c1.2-0.1,2.3-0.4,3.3-0.9
	L125.7,137z M126.8,106.4H115v-1.9h4.8v-9.4h-4.2v-1.9h6.5v11.2h4.8L126.8,106.4z M129.8,93.3h4.1v-3.4l2.2-0.7v4.1h5.5v1.9h-5.5
	v7.2c0,0.6,0.2,1.3,0.6,1.7c0.5,0.4,1.1,0.7,1.7,0.6c1.2-0.1,2.3-0.4,3.3-0.9v1.9c-1.1,0.6-2.4,1-3.6,0.9c-1.2,0.1-2.3-0.4-3.2-1.2
	c-0.7-0.8-1.1-1.9-1.1-3v-7.4h-4.1V93.3z M142.7,137.5c-0.5,0.2-1,0.3-1.5,0.3c-0.5,0-1-0.2-1.4-0.6c-0.4-0.4-0.6-0.9-0.6-1.4h-0.1
	c-0.4,0.7-1,1.2-1.8,1.6c-0.8,0.4-1.7,0.6-2.6,0.6c-1.2,0.1-2.5-0.3-3.4-1.2c-0.8-0.7-1.2-1.7-1.2-2.7c0-1.1,0.4-2.1,1.2-2.9
	c0.9-0.9,2.2-1.4,3.5-1.4l4.1-0.2v-1c0.1-0.7-0.2-1.4-0.7-1.9c-0.6-0.5-1.4-0.8-2.2-0.8c-0.9-0.1-1.7,0.2-2.4,0.8
	c-0.4,0.4-0.7,1-0.7,1.5H131c0-1,0.5-2,1.2-2.7c1.1-1,2.6-1.5,4.1-1.5c1,0,2.1,0.2,3,0.7c0.7,0.4,1.3,1.1,1.7,1.9
	c0.3,0.6,0.4,1.3,0.4,1.9v6.3c0,0.6,0.3,0.9,0.8,0.9l0.6-0.1L142.7,137.5z M140.2,74c-2.7-3-2.7-7.6,0-10.7c1.1-1.1,2.6-1.6,4.2-1.6
	c1.5,0,3,0.5,4.1,1.6c2.7,3,2.7,7.6,0,10.7c-1.1,1.1-2.6,1.6-4.1,1.6C142.8,75.6,141.3,75.1,140.2,74z M158.5,137.6h-11.5v-1.9h4.6
	v-15.1h-4.2v-1.8h6.5v16.9h4.6L158.5,137.6z M152.8,109.1c-0.8,1.9-2,2.8-3.6,2.8c-0.8,0-1.6-0.1-2.4-0.5v-1.9
	c0.6,0.2,1.2,0.4,1.9,0.4c0.9,0.1,1.7-0.5,2-1.3l0.9-2.2l-5.8-13.2h2.7l4.2,10.4l3.9-10.4h2.5L152.8,109.1z M166.1,75.2h-2.3v-8.4
	c0-2.1-1-3.1-2.9-3.2c-0.6,0-1.2,0.2-1.7,0.6c-0.5,0.4-1,0.9-1.2,1.5c-0.4,1.1-0.6,2.2-0.6,3.4v6h-2.2V62h2l0.2,2
	c0.4-0.7,1-1.3,1.7-1.7c0.7-0.4,1.5-0.6,2.4-0.6c1.3-0.1,2.5,0.4,3.4,1.3c0.9,1,1.3,2.3,1.2,3.6V75.2z M165.5,106.4
	c0,1.1-0.2,2.2-0.7,3.1c-0.6,0.9-1.4,1.6-2.4,1.9l-0.8-1.5c0.7-0.2,1.3-0.7,1.6-1.3c0.3-0.7,0.5-1.5,0.4-2.2h-2.1v-3.9h3.9
	L165.5,106.4z M174.9,78.4c-0.6,0.9-1.4,1.6-2.4,1.9l-0.8-1.5c0.7-0.2,1.3-0.7,1.6-1.3c0.3-0.7,0.5-1.5,0.4-2.2h-2.1v-3.9h3.9v3.9
	C175.6,76.3,175.4,77.4,174.9,78.4L174.9,78.4z"/>
<path class="st0" d="M144.4,63.6c-0.9,0-1.8,0.3-2.4,0.9c-1,1.1-1.6,2.5-1.5,4c-0.1,1.5,0.4,3,1.5,4.1c1.4,1.2,3.5,1.2,4.9,0
	c1.1-1.1,1.6-2.6,1.5-4.1c0.1-1.5-0.4-3-1.5-4.1C146.1,63.9,145.3,63.6,144.4,63.6z"/>
</svg>
