<svg id="e4aaceeb-4ce5-455d-accd-9c7a163acb4a" data-name="592e89c4-40a5-4934-b8e7-a570c6ad1fc2" xmlns="http://www.w3.org/2000/svg" viewBox="0 0 198.1 198.1"><defs><style>.\33 62365b4-cdb6-48e9-a5cb-23d27a9dfc40{fill:blue;}</style></defs><title>stamp</title><path class="362365b4-cdb6-48e9-a5cb-23d27a9dfc40" d="M66.81,94.83a3.53,3.53,0,0,0-2.44.94,5.18,5.18,0,0,0-1.48,4,5.25,5.25,0,0,0,1.48,4.08,3.66,3.66,0,0,0,4.89,0,6.29,6.29,0,0,0,0-8.11A3.54,3.54,0,0,0,66.81,94.83Z"/><path class="362365b4-cdb6-48e9-a5cb-23d27a9dfc40" d="M115.25,94.8a3.29,3.29,0,0,0-2.72,1.26,4.47,4.47,0,0,0-1.05,2.64h7.41a4.14,4.14,0,0,0-1.12-2.83A3.34,3.34,0,0,0,115.25,94.8Z"/><path class="362365b4-cdb6-48e9-a5cb-23d27a9dfc40" d="M99,0A99.05,99.05,0,1,0,198.1,99.05,99.05,99.05,0,0,0,99,0ZM55.64,105A6.52,6.52,0,0,1,51,106.76a6.6,6.6,0,0,1-4.76-2,6.51,6.51,0,0,1-1.83-3.2,22.73,22.73,0,0,1,0-8.79,6.51,6.51,0,0,1,1.83-3.2,6.87,6.87,0,0,1,9.36-.26,6,6,0,0,1,2,4.39H55.21a3.92,3.92,0,0,0-1.07-2.6A4,4,0,0,0,51,89.81a4.21,4.21,0,0,0-3.12,1.4,4.58,4.58,0,0,0-1.05,1.87,8.79,8.79,0,0,0-.4,1.92q-.05.78-.05,2.18t.05,2.18a8.78,8.78,0,0,0,.4,1.92,4.56,4.56,0,0,0,1.05,1.87,4.31,4.31,0,0,0,6.11.26,3.9,3.9,0,0,0,1.25-2.91h2.39A6.19,6.19,0,0,1,55.64,105Zm15.3.17a5.67,5.67,0,0,1-4.11,1.59,5.73,5.73,0,0,1-4.16-1.59,7.94,7.94,0,0,1,0-10.66,5.74,5.74,0,0,1,4.16-1.59,5.67,5.67,0,0,1,4.11,1.59,7.94,7.94,0,0,1,0,10.66Zm17.63,1.25H86.31V98.05q0-3.15-2.89-3.15a2.85,2.85,0,0,0-1.73.58A4,4,0,0,0,80.46,97a8.25,8.25,0,0,0-.57,3.38v6H77.65V93.25h2l.18,2a4,4,0,0,1,1.73-1.7,5,5,0,0,1,2.38-.61,4.57,4.57,0,0,1,3.46,1.27,4.94,4.94,0,0,1,1.22,3.56Zm16-.65a7.21,7.21,0,0,1-3.64.94,4,4,0,0,1-3.16-1.21,4.27,4.27,0,0,1-1.08-3V95.14H92.57v-1.9h4.11V89.84l2.21-.7v4.11h5.51v1.9H98.89v7.18A2.39,2.39,0,0,0,99.5,104a2.28,2.28,0,0,0,1.73.64,8.36,8.36,0,0,0,3.33-.88Zm16.67-5.23H111.4a4.32,4.32,0,0,0,1.33,3.3,3.52,3.52,0,0,0,2.52,1,3.72,3.72,0,0,0,2.42-.78,3.07,3.07,0,0,0,1.09-1.59h2.13a5.28,5.28,0,0,1-2,3.15,5.91,5.91,0,0,1-3.64,1.14,5.78,5.78,0,0,1-4.16-1.72,6.91,6.91,0,0,1-1.95-5.15,7.24,7.24,0,0,1,1.95-5.28,5.69,5.69,0,0,1,4.19-1.69,5.39,5.39,0,0,1,4.06,1.59,7.21,7.21,0,0,1,1.9,5.25Zm15.7,5.88h-2.26V98.05q0-3.15-2.89-3.15a2.85,2.85,0,0,0-1.73.58A4,4,0,0,0,128.82,97a8.25,8.25,0,0,0-.57,3.38v6H126V93.25h2l.18,2a4,4,0,0,1,1.73-1.7,5,5,0,0,1,2.38-.61,4.57,4.57,0,0,1,3.46,1.27,4.94,4.94,0,0,1,1.22,3.56Zm16-.65a7.21,7.21,0,0,1-3.64.94,4,4,0,0,1-3.16-1.21,4.27,4.27,0,0,1-1.08-3V95.14h-4.11v-1.9H145V89.84l2.21-.7v4.11h5.51v1.9h-5.51v7.18a2.39,2.39,0,0,0,.61,1.73,2.28,2.28,0,0,0,1.73.64,8.36,8.36,0,0,0,3.33-.88Z"/></svg>