<?xml version="1.0" encoding="utf-8"?>
<!-- Generator: Adobe Illustrator 21.0.2, SVG Export Plug-In . SVG Version: 6.00 Build 0)  -->
<svg version="1.1" id="Layer_1" xmlns="http://www.w3.org/2000/svg" xmlns:xlink="http://www.w3.org/1999/xlink" x="0px" y="0px"
	 viewBox="0 0 178.1 159" style="enable-background:new 0 0 178.1 159;" xml:space="preserve">
<style type="text/css">
	.st0{fill:#FF5C5C;}
</style>
<title>icons</title>
<g id="bfcca1fa-39cc-445c-b24c-b6831a2b7938">
	<polygon class="st0" points="83.1,84.5 70.1,62 57,39.4 44,62 31,84.5 57,84.5 	"/>
	<circle class="st0" cx="119.6" cy="108" r="23.5"/>
	<path class="st0" d="M6.9,0H0.4v159h177.3V0H6.9z M46.5,8.8c2,0,3.7,1.6,3.7,3.7s-1.6,3.7-3.7,3.7s-3.7-1.6-3.7-3.7l0,0
		C42.8,10.5,44.5,8.8,46.5,8.8z M31.7,8.8c2,0,3.7,1.6,3.7,3.7s-1.6,3.7-3.7,3.7s-3.7-1.6-3.7-3.7l0,0C28.1,10.5,29.7,8.8,31.7,8.8
		C31.7,8.8,31.7,8.8,31.7,8.8L31.7,8.8z M17,8.8c2,0,3.7,1.6,3.7,3.7S19,16.2,17,16.2s-3.7-1.6-3.7-3.7l0,0C13.3,10.5,15,8.8,17,8.8
		z M164.7,146H13.4V25h151.3V146z"/>
</g>
</svg>
