<?xml version="1.0" encoding="utf-8"?>
<!-- Generator: Adobe Illustrator 21.0.2, SVG Export Plug-In . SVG Version: 6.00 Build 0)  -->
<svg version="1.1" id="Layer_1" xmlns="http://www.w3.org/2000/svg" xmlns:xlink="http://www.w3.org/1999/xlink" x="0px" y="0px"
	 viewBox="0 0 198.1 161" style="enable-background:new 0 0 198.1 161;" xml:space="preserve">
<style type="text/css">
	.st0{fill:#FF5C5C;}
</style>
<title>icons</title>
<g>
	<polygon class="st0" points="151.5,86.6 143.3,94.7 153,104.5 143.3,114.2 151.5,122.4 161.2,112.6 170.9,122.4 179.1,114.2 
		169.4,104.5 179.1,94.7 170.9,86.6 161.2,96.3 	"/>
	<path class="st0" d="M66.2,107.6l2.3,11.3c6.5-1.3,12.8-4.6,18.3-9.6l-7.8-8.5C75,104.3,70.6,106.7,66.2,107.6z"/>
	<path class="st0" d="M44.5,98l-9.5,6.5c4.3,6.2,9.9,10.7,16.4,13.1l4-10.8C51.1,105.2,47.3,102.2,44.5,98z"/>
	<path class="st0" d="M37.7,72.5H26.2c0,6.2,0.7,12.1,2.1,17.4l11.2-3C38.3,82.5,37.7,77.7,37.7,72.5z"/>
	<path class="st0" d="M86.7,91l9.9,5.9c3.1-5.2,5.6-11.1,7.4-17.7L92.9,76C91.3,81.6,89.2,86.7,86.7,91z"/>
	<path class="st0" d="M97.8,61.8l10.5,4.8c2.4-5.2,5.3-9.5,8.7-12.6l-7.8-8.5C104.6,49.7,100.8,55.2,97.8,61.8z"/>
	<path class="st0" d="M126.7,48.5c4.4-1.1,8.9-0.4,13.2,1.8l5.4-10.2c-4.6-2.4-9.4-3.6-14.4-3.6c-2.3,0-4.6,0.3-6.9,0.8L126.7,48.5z
		"/>
	<path class="st0" d="M166.7,68.6c-2.1-6.8-5.1-12.7-8.9-17.6l-9.1,7c3,3.8,5.3,8.5,7,14L166.7,68.6z"/>
	<path class="st0" d="M130.1,1.6L67.9,19.4L0,0v139.9l67.9,19.4l62.2-17.8l67.9,19.4V21.1L130.1,1.6z M186.5,145.7l-56.4-16.1
		l-62.2,17.8l-56.4-16.1v-116l56.4,16.1l62.2-17.8l56.4,16.1V145.7z"/>
</g>
</svg>
