<?xml version="1.0" encoding="utf-8"?>
<!-- Generator: Adobe Illustrator 21.0.2, SVG Export Plug-In . SVG Version: 6.00 Build 0)  -->
<svg version="1.1" id="Layer_1" xmlns="http://www.w3.org/2000/svg" xmlns:xlink="http://www.w3.org/1999/xlink" x="0px" y="0px"
	 viewBox="0 0 177.3 178" style="enable-background:new 0 0 177.3 178;" xml:space="preserve">
<style type="text/css">
	.st0{fill:#0000FF;}
</style>
<title>icons</title>
<g id="_x33_e06d756-b417-434c-925c-4de9280bd5de">
	<path class="st0" d="M36.4,93.9h7c5.6,24.5,20.7,36.8,45.3,36.8s39.7-12.3,45.3-36.8h7.1c-1.8,15.9-7.3,28.3-16.6,37.3
		s-21.2,13.5-35.8,13.5s-26.5-4.5-35.8-13.5C43.6,122.2,38.1,109.8,36.4,93.9 M88.6,166.6c21.5,0,39.8-7.6,55-22.7
		c15.2-15.1,22.8-33.4,22.7-54.9c0-21.4-7.6-39.7-22.8-54.9s-33.5-22.8-55-22.8s-39.8,7.6-55,22.8S10.8,67.6,10.9,89
		c0,21.4,7.6,39.7,22.8,54.9S67.2,166.6,88.6,166.6 M88.7,177.9c-24.6,0-45.6-8.7-63-26.1S-0.4,113.5-0.4,89
		c0-24.6,8.7-45.6,26.1-62.9S64,0,88.6,0s45.6,8.7,63,26s26.1,38.3,26,62.9c0,24.6-8.7,45.6-26.1,62.9S113.2,178,88.7,177.9"/>
	<circle class="st0" cx="116.9" cy="62.4" r="9.6"/>
	<circle class="st0" cx="59.9" cy="62.4" r="9.6"/>
</g>
</svg>
