<?xml version="1.0" encoding="utf-8"?>
<!-- Generator: Adobe Illustrator 21.0.2, SVG Export Plug-In . SVG Version: 6.00 Build 0)  -->
<svg version="1.1" id="Layer_1" xmlns="http://www.w3.org/2000/svg" xmlns:xlink="http://www.w3.org/1999/xlink" x="0px" y="0px"
	 viewBox="0 0 174.7 144.6" style="enable-background:new 0 0 174.7 144.6;" xml:space="preserve">
<style type="text/css">
	.st0{fill:#0000FF;}
</style>
<title>icons</title>
<g id="_x38_4623e1a-8ad1-4de0-80d9-99801e97dd24">
	<circle class="st0" cx="87.3" cy="94.6" r="31.5"/>
	<path class="st0" d="M87.3,144.6c-17.1,0-35.5-8.2-53-23.7c-8-7-15.1-14.8-21.4-23.4l-2-2.9l2-2.9c6.3-8.5,13.4-16.4,21.4-23.4
		c17.6-15.5,35.9-23.7,53-23.7s35.5,8.2,53,23.7c7.9,7,15.1,14.8,21.4,23.4l2,2.9l-2,2.9c-6.3,8.5-13.4,16.4-21.4,23.4
		C122.8,136.4,104.5,144.6,87.3,144.6z M23.3,94.6c7.5,9.6,33.8,40,64.1,40c18.4,0,35.3-11.5,46.3-21.1c6.5-5.7,12.4-12.1,17.8-18.9
		c-7.5-9.6-33.8-40-64.1-40S30.8,85,23.3,94.6L23.3,94.6z"/>
	
		<rect x="70.9" y="11.5" transform="matrix(2.268872e-03 -1 1 2.268872e-03 70.6774 103.8184)" class="st0" width="33" height="10"/>
	<rect x="124.9" y="27.9" transform="matrix(0.5622 -0.827 0.827 0.5622 33.0976 128.3446)" class="st0" width="25.7" height="10"/>
	<rect x="157.2" y="59" transform="matrix(0.7071 -0.7071 0.7071 0.7071 3.2033 135.685)" class="st0" width="16.4" height="10"/>
	<rect x="31.9" y="20" transform="matrix(0.827 -0.5622 0.5622 0.827 -12.0915 26.4145)" class="st0" width="10" height="25.7"/>
	<rect x="4.3" y="55.8" transform="matrix(0.7071 -0.7071 0.7071 0.7071 -42.537 25.3351)" class="st0" width="10" height="16.4"/>
</g>
</svg>
